<svg width="54" height="53" viewBox="0 0 54 53" fill="none" xmlns="http://www.w3.org/2000/svg">
<rect width="32.2755" height="31.1905" rx="3" transform="matrix(0.53633 0.844008 -0.863989 0.503512 36.2734 9.23047)" fill="#FF8717" fill-opacity="0.08"/>
<path d="M19.5896 31.8354H0.5625V0H33.8607V18.6401H32.1081V1.67567H2.31524V30.1597H19.5896L19.5896 31.8354Z" fill="#FF8717"/>
<path d="M30.3577 40.2127C23.593 40.2127 18.0898 34.9513 18.0898 28.4838C18.0898 22.0163 23.593 16.7549 30.3577 16.7549C37.1224 16.7549 42.6255 22.0163 42.6255 28.4838C42.6255 34.9513 37.1224 40.2127 30.3577 40.2127ZM30.3577 18.4306C24.5592 18.4306 19.8425 22.9402 19.8425 28.4838C19.8425 34.0275 24.5593 38.537 30.3577 38.537C36.1561 38.537 40.8728 34.0274 40.8728 28.4838C40.8728 22.9401 36.156 18.4306 30.3577 18.4306Z" fill="#FF8717"/>
<path d="M8.4479 27.0295C6.03225 27.0295 4.06641 25.5265 4.06641 23.6783C4.06641 21.8301 6.03193 20.3271 8.4479 20.3271C10.8636 20.3271 12.8294 21.8301 12.8294 23.6783C12.8294 25.5269 10.8639 27.0295 8.4479 27.0295ZM8.4479 22.0031C7.02299 22.0031 5.81899 22.7703 5.81899 23.6786C5.81899 24.5866 7.02299 25.3542 8.4479 25.3542C9.87282 25.3542 11.0768 24.5869 11.0768 23.6786C11.0768 22.7703 9.87282 22.0031 8.4479 22.0031Z" fill="#FF8717"/>
<path d="M19.8385 22.3987C17.4229 22.3987 15.457 20.8957 15.457 19.0475C15.457 17.1993 17.4226 15.6963 19.8385 15.6963C22.2542 15.6963 24.22 17.1993 24.22 19.0475C24.22 20.8957 22.2545 22.3987 19.8385 22.3987ZM19.8385 17.3719C18.4136 17.3719 17.2096 18.1392 17.2096 19.0475C17.2096 19.9555 18.4136 20.7231 19.8385 20.7231C21.2634 20.7231 22.4674 19.9558 22.4674 19.0475C22.4674 18.1395 21.2634 17.3719 19.8385 17.3719Z" fill="#FF8717"/>
<path d="M12.8307 24.0744H11.0781V9.59624C11.0781 8.24155 11.903 7.06889 13.0847 6.74496L24.2223 3.69336V18.6001H22.4697V5.91669L13.5672 8.35474C13.1471 8.47021 12.8305 9.00352 12.8305 9.59609L12.8307 24.0744Z" fill="#FF8717"/>
<path d="M11.6992 11.5441L23.0915 8.19531L23.6068 9.79739L12.2144 13.1462L11.6992 11.5441Z" fill="#FF8717"/>
<path d="M28.019 30.7711L27.0391 25.3135L32.7475 26.2503L32.4516 27.9014L29.1851 27.3653L29.7458 30.4883L28.019 30.7711Z" fill="#FF8717"/>
<path d="M27.9844 27.4014L29.2234 26.2168L36.2334 32.9188L34.9944 34.1034L27.9844 27.4014Z" fill="#FF8717"/>
</svg>
