<svg width="16" height="12" viewBox="0 0 16 12" fill="none" xmlns="http://www.w3.org/2000/svg">
<path d="M3.00524 10.0557V11.6628C3.00524 11.7354 2.97734 11.7995 2.92153 11.8553C2.87131 11.9056 2.80992 11.9307 2.73738 11.9307H1.13024C1.05769 11.9307 0.993518 11.9056 0.937715 11.8553C0.887492 11.7995 0.86238 11.7354 0.86238 11.6628V10.0557C0.86238 9.98312 0.887492 9.92174 0.937715 9.87151C0.993518 9.81571 1.05769 9.78781 1.13024 9.78781H2.73738C2.80992 9.78781 2.87131 9.81571 2.92153 9.87151C2.97734 9.92174 3.00524 9.98312 3.00524 10.0557ZM3.00524 6.84138V8.44852C3.00524 8.52107 2.97734 8.58524 2.92153 8.64104C2.87131 8.69127 2.80992 8.71638 2.73738 8.71638H1.13024C1.05769 8.71638 0.993518 8.69127 0.937715 8.64104C0.887492 8.58524 0.86238 8.52107 0.86238 8.44852V6.84138C0.86238 6.76883 0.887492 6.70745 0.937715 6.65723C0.993518 6.60142 1.05769 6.57352 1.13024 6.57352H2.73738C2.80992 6.57352 2.87131 6.60142 2.92153 6.65723C2.97734 6.70745 3.00524 6.76883 3.00524 6.84138ZM3.00524 3.62709V5.23424C3.00524 5.30678 2.97734 5.37095 2.92153 5.42676C2.87131 5.47698 2.80992 5.50209 2.73738 5.50209H1.13024C1.05769 5.50209 0.993518 5.47698 0.937715 5.42676C0.887492 5.37095 0.86238 5.30678 0.86238 5.23424V3.62709C0.86238 3.55455 0.887492 3.49316 0.937715 3.44294C0.993518 3.38714 1.05769 3.35924 1.13024 3.35924H2.73738C2.80992 3.35924 2.87131 3.38714 2.92153 3.44294C2.97734 3.49316 3.00524 3.55455 3.00524 3.62709ZM15.8624 10.0557V11.6628C15.8624 11.7354 15.8345 11.7995 15.7787 11.8553C15.7285 11.9056 15.6671 11.9307 15.5945 11.9307H4.34452C4.27198 11.9307 4.2078 11.9056 4.152 11.8553C4.10178 11.7995 4.07667 11.7354 4.07667 11.6628V10.0557C4.07667 9.98312 4.10178 9.92174 4.152 9.87151C4.2078 9.81571 4.27198 9.78781 4.34452 9.78781H15.5945C15.6671 9.78781 15.7285 9.81571 15.7787 9.87151C15.8345 9.92174 15.8624 9.98312 15.8624 10.0557ZM3.00524 0.412806V2.01995C3.00524 2.09249 2.97734 2.15667 2.92153 2.21247C2.87131 2.26269 2.80992 2.28781 2.73738 2.28781H1.13024C1.05769 2.28781 0.993518 2.26269 0.937715 2.21247C0.887492 2.15667 0.86238 2.09249 0.86238 2.01995V0.412806C0.86238 0.340262 0.887492 0.278878 0.937715 0.228655C0.993518 0.172851 1.05769 0.144949 1.13024 0.144949H2.73738C2.80992 0.144949 2.87131 0.172851 2.92153 0.228655C2.97734 0.278878 3.00524 0.340262 3.00524 0.412806ZM15.8624 6.84138V8.44852C15.8624 8.52107 15.8345 8.58524 15.7787 8.64104C15.7285 8.69127 15.6671 8.71638 15.5945 8.71638H4.34452C4.27198 8.71638 4.2078 8.69127 4.152 8.64104C4.10178 8.58524 4.07667 8.52107 4.07667 8.44852V6.84138C4.07667 6.76883 4.10178 6.70745 4.152 6.65723C4.2078 6.60142 4.27198 6.57352 4.34452 6.57352H15.5945C15.6671 6.57352 15.7285 6.60142 15.7787 6.65723C15.8345 6.70745 15.8624 6.76883 15.8624 6.84138ZM15.8624 3.62709V5.23424C15.8624 5.30678 15.8345 5.37095 15.7787 5.42676C15.7285 5.47698 15.6671 5.50209 15.5945 5.50209H4.34452C4.27198 5.50209 4.2078 5.47698 4.152 5.42676C4.10178 5.37095 4.07667 5.30678 4.07667 5.23424V3.62709C4.07667 3.55455 4.10178 3.49316 4.152 3.44294C4.2078 3.38714 4.27198 3.35924 4.34452 3.35924H15.5945C15.6671 3.35924 15.7285 3.38714 15.7787 3.44294C15.8345 3.49316 15.8624 3.55455 15.8624 3.62709ZM15.8624 0.412806V2.01995C15.8624 2.09249 15.8345 2.15667 15.7787 2.21247C15.7285 2.26269 15.6671 2.28781 15.5945 2.28781H4.34452C4.27198 2.28781 4.2078 2.26269 4.152 2.21247C4.10178 2.15667 4.07667 2.09249 4.07667 2.01995V0.412806C4.07667 0.340262 4.10178 0.278878 4.152 0.228655C4.2078 0.172851 4.27198 0.144949 4.34452 0.144949H15.5945C15.6671 0.144949 15.7285 0.172851 15.7787 0.228655C15.8345 0.278878 15.8624 0.340262 15.8624 0.412806Z" fill="white"/>
</svg>
