<svg width="15" height="20" viewBox="0 0 15 20" fill="none" xmlns="http://www.w3.org/2000/svg">
<path d="M14.0217 0H0.978261C0.438 0 0 0.407029 0 0.909089V19.0909C0 19.4403 0.215543 19.7589 0.554478 19.9103C0.893413 20.0616 1.29567 20.0191 1.58935 19.8007L7.5 15.4066L13.4107 19.8007C13.5875 19.9323 13.8037 20 14.0219 20C14.1659 20 14.3108 19.9704 14.4455 19.9103C14.7845 19.7589 15 19.4404 15 19.0909V0.909089C15 0.407029 14.562 0 14.0217 0ZM13.0435 17.1994L8.11109 13.5325C7.93246 13.3997 7.7162 13.3333 7.5 13.3333C7.2838 13.3333 7.06754 13.3997 6.88891 13.5325L1.95652 17.1994V1.81818H13.0435V17.1994Z" fill="#060606"/>
</svg>
