<svg width="38" height="39" viewBox="0 0 38 39" fill="none" xmlns="http://www.w3.org/2000/svg">
<path d="M10.5078 25.2891V31.3828C10.5078 32.0138 11.0508 32.5254 11.7206 32.5254H27.8917C28.5615 32.5254 29.1046 32.0138 29.1046 31.3828V25.2891C29.1046 24.6581 28.5615 24.1465 27.8917 24.1465H11.7206C11.0508 24.1465 10.5078 24.6581 10.5078 25.2891ZM12.9335 26.4316H26.6789V30.2402H12.9335V26.4316Z" fill="#807E7B"/>
<path d="M36.7039 15.4612C36.5985 15.3872 36.4828 15.331 36.3617 15.293C36.3757 15.1473 36.3829 15.0007 36.3829 14.8535C36.3829 13.8951 36.0847 12.9698 35.546 12.1819C37.0371 11.3003 38 9.74322 38 7.99805C38 5.26797 35.6423 3.04688 32.7444 3.04688C32.4754 3.04688 32.2081 3.06668 31.9436 3.10598C31.1652 1.26849 29.2704 0 27.0846 0C24.927 0 23.0388 1.232 22.2404 3.04688H22.2333C19.4389 3.04688 17.1477 5.11228 16.9875 7.70753C15.7933 7.88767 14.6594 8.33305 13.681 9.00352L11.3146 5.14236C9.64279 2.41442 5.92668 1.47636 3.03084 3.05129C0.135085 4.62637 -0.86065 8.12716 0.811278 10.8553L3.49964 15.242C3.28966 15.2645 3.0859 15.3383 2.91077 15.4614C2.56738 15.703 2.38481 16.0973 2.43049 16.4987C2.83452 20.0513 3.24535 23.7023 3.64267 27.2332C3.9699 30.1411 4.29712 33.0488 4.62434 35.9364C4.82227 37.6829 6.37761 39 8.2423 39H31.3717C33.237 39 34.7925 37.6823 34.9898 35.9349L37.1847 16.4978C37.23 16.0965 37.0473 15.7025 36.7039 15.4612ZM22.2333 5.33203C22.4263 5.33203 22.6278 5.35465 22.8493 5.40112C23.1722 5.46876 23.5106 5.40927 23.786 5.23636C24.0613 5.06337 24.2496 4.7919 24.3073 4.48492C24.5466 3.21034 25.7147 2.28516 27.0846 2.28516C28.5179 2.28516 29.7185 3.30578 29.8773 4.65928C29.92 5.023 30.145 5.34551 30.4825 5.52665C30.82 5.70779 31.2293 5.72561 31.5831 5.57464C31.9603 5.41369 32.351 5.33203 32.7445 5.33203C34.3049 5.33203 35.5744 6.52801 35.5744 7.99805C35.5744 9.29015 34.5907 10.3906 33.2355 10.6148C32.7526 10.6947 32.3682 11.0407 32.2614 11.4915C32.1547 11.9424 32.3467 12.4094 32.7479 12.675C33.5052 13.1764 33.9573 13.9908 33.9573 14.8536C33.9573 15.2481 33.861 15.6364 33.6784 15.9943C30.8982 16.9422 28.0385 17.5975 25.1236 17.9563C25.2948 17.6179 25.4373 17.267 25.551 16.9074C28.6628 12.6013 29.0849 8.27912 29.1015 8.09494C29.1583 7.46622 28.6632 6.91313 27.9958 6.85966C27.3285 6.80725 26.7414 7.27259 26.6846 7.90138C26.6821 7.92904 26.4919 9.87431 25.4025 12.3623C24.4591 9.94599 22.184 8.1312 19.42 7.71042C19.5729 6.37513 20.776 5.33203 22.2333 5.33203V5.33203ZM18.1905 9.90234C21.0884 9.90234 23.4461 12.1234 23.4461 14.8535C23.4461 16.1243 22.9456 17.3068 22.031 18.2244C21.2926 18.2618 20.5515 18.2812 19.8076 18.2812C19.66 18.2812 19.5126 18.2802 19.3653 18.2787L14.9039 10.999C15.832 10.2952 16.9914 9.90234 18.1905 9.90234V9.90234ZM2.54846 7.11163C2.8 6.22728 3.40205 5.48811 4.24367 5.03024C5.98109 4.08533 8.21076 4.64808 9.21394 6.28494L10.2541 7.98228L6.79878 8.17766C6.13011 8.21544 5.62064 8.75672 5.66074 9.38658C5.69939 9.99322 6.2336 10.4608 6.87026 10.4608C6.89476 10.4608 6.91934 10.4601 6.94408 10.4587L11.6101 10.1949L12.6798 11.9404L9.22445 12.1358C8.55585 12.1736 8.04638 12.7149 8.08649 13.3447C8.12514 13.9513 8.65943 14.4189 9.296 14.4189C9.3205 14.4189 9.34508 14.4182 9.36982 14.4168L14.0357 14.153L16.4884 18.1551C13.2436 17.9082 10.0593 17.2988 6.96826 16.3317L2.91198 9.71268C2.42596 8.9198 2.29692 7.99607 2.54846 7.11163V7.11163ZM32.5778 35.6932C32.512 36.2756 31.9935 36.7148 31.3717 36.7148H8.2423C7.62068 36.7148 7.10223 36.2759 7.03626 35.6939C6.70912 32.8068 6.38197 29.8996 6.05483 26.9923C5.7268 24.0772 5.38955 21.0802 5.05449 18.124C9.78963 19.7455 14.7431 20.5664 19.8076 20.5664C24.8728 20.5664 29.8262 19.7455 34.5618 18.1235L32.5778 35.6932Z" fill="#807E7B"/>
</svg>
