<svg width="41" height="42" viewBox="0 0 41 42" fill="none" xmlns="http://www.w3.org/2000/svg">
<g clip-path="url(#clip0_935_3020)">
<path d="M39.4081 26.9943C38.551 26.1181 37.4492 25.6358 36.3049 25.6358C36.3022 25.6358 36.2993 25.6358 36.2966 25.6358C35.1273 25.6382 34.0525 26.06 33.2275 26.7549V25.7718C33.2275 24.3782 34.3343 23.2445 35.6947 23.2445C36.1373 23.2445 36.4963 22.8768 36.4963 22.4234C36.4963 21.97 36.1373 21.6023 35.6947 21.6023C33.4504 21.6023 31.6244 23.4727 31.6244 25.7718V26.7616C31.4376 26.6034 31.2385 26.4586 31.0276 26.3304C31.2114 25.3405 31.3058 24.3296 31.3058 23.3162C31.3058 23.2779 31.3023 23.2406 31.2974 23.2037C31.3024 23.1058 31.3058 23.0074 31.3058 22.9092C31.3058 19.8912 28.909 17.4359 25.9627 17.4359C25.2965 17.4359 24.6358 17.5642 24.0191 17.8106C23.0105 16.5613 21.5193 15.8339 19.9078 15.8339C19.5479 15.8339 19.1956 15.8708 18.854 15.9403C18.7086 15.5422 18.5519 15.1484 18.3826 14.7646C17.6743 13.1591 17.2102 11.4817 16.9935 9.7558C16.9915 9.71762 16.9875 9.67993 16.9805 9.64323C16.8954 8.9296 16.8513 8.20801 16.8513 7.47944V6.8999C17.8082 6.33095 18.4536 5.27049 18.4536 4.05788C18.4536 2.24684 17.0153 0.773438 15.2473 0.773438H7.23592C5.468 0.773438 4.02968 2.24684 4.02968 4.05788C4.02968 5.27074 4.67533 6.33145 5.63256 6.90031V7.47944C5.63256 8.21819 5.58591 8.95735 5.49581 9.69036C5.49397 9.70424 5.49204 9.71819 5.49092 9.73232C5.42888 10.2273 5.34744 10.7194 5.24484 11.2061C4.98794 12.4286 4.60295 13.6258 4.10054 14.7647C3.22515 16.7504 2.68659 18.858 2.49998 21.0287C2.48483 21.2047 2.47297 21.3797 2.46263 21.5535C2.21559 21.8312 2.01672 22.1504 1.87541 22.4951H0.801559C0.358938 22.4951 0 22.8628 0 23.3162C0 25.9218 0.615197 28.4181 1.72472 30.6341C1.7389 30.6681 1.75574 30.7007 1.77417 30.7322C1.97624 31.129 2.19387 31.5168 2.42712 31.8942V39.1405C2.42712 40.2833 3.33465 41.213 4.45026 41.213H18.7571C20.1494 41.213 21.282 40.0527 21.282 38.6265V38.2812C22.621 37.7529 23.8745 37.0424 25.0239 36.1595C25.7421 37.5275 26.6674 38.5285 27.446 39.3694C27.6394 39.5783 27.822 39.7755 27.9897 39.9658C28.7166 40.7908 29.5775 41.2268 30.4792 41.2268C30.7918 41.2268 31.1001 41.1716 31.3956 41.0629C32.1348 40.7905 32.9567 40.8033 33.71 41.0988C33.7101 41.0988 33.7101 41.0989 33.7102 41.0989C33.9269 41.1838 34.147 41.2269 34.3645 41.2269C35.2237 41.2269 36.0301 40.823 36.8296 39.9923C36.912 39.9066 37.0001 39.8165 37.093 39.7218C38.4584 38.3273 41 35.7314 41 31.0684C41 29.5137 40.4198 28.0287 39.4081 26.9943ZM23.0792 19.2769C23.3056 19.6474 23.7753 19.7712 24.1483 19.5589C24.7002 19.2444 25.3276 19.0782 25.9627 19.0782C27.8883 19.0782 29.4781 20.5768 29.6805 22.4952H10.7039C10.7736 22.3841 10.849 22.2762 10.9305 22.1718C11.6457 21.2572 12.7108 20.7326 13.8528 20.7326C14.3178 20.7326 14.7713 20.8191 15.2007 20.9895C15.4164 21.075 15.6577 21.061 15.8629 20.9507C16.0678 20.8405 16.2162 20.6449 16.2699 20.4144C16.6728 18.6845 18.1688 17.4762 19.9077 17.4762C21.2045 17.476 22.3901 18.1493 23.0792 19.2769ZM7.23592 2.41566H15.2472C16.1311 2.41566 16.8503 3.15236 16.8503 4.05788C16.8503 4.9634 16.1311 5.70009 15.2472 5.70009H7.23592C6.35196 5.70009 5.6328 4.9634 5.6328 4.05788C5.6328 3.15236 6.35196 2.41566 7.23592 2.41566ZM7.23592 7.34231H15.2472H15.2481V7.47944C15.2481 7.98327 15.2673 8.48415 15.3046 8.98174H7.17812C7.2162 8.48193 7.23576 7.98056 7.23576 7.47944V7.34231H7.23592ZM5.56146 15.4408C6.11061 14.1963 6.53143 12.8878 6.81213 11.5521C6.8769 11.2446 6.93349 10.9349 6.98351 10.624H15.4973C15.7623 12.2791 16.2378 13.8906 16.9216 15.4409C17.0741 15.7863 17.2153 16.1406 17.3463 16.4988C16.289 17.0879 15.4417 18.0355 14.9697 19.2102C14.6046 19.1304 14.2312 19.0903 13.8527 19.0903C12.2214 19.0903 10.7003 19.8392 9.67859 21.1457C9.35564 21.5597 9.09778 22.0121 8.90564 22.4951H7.78891C7.29996 21.2954 6.1462 20.4801 4.8318 20.4801C4.6048 20.4801 4.38044 20.5054 4.1617 20.5532C4.37475 18.7852 4.84406 17.0681 5.56146 15.4408ZM4.8318 22.1223C5.21486 22.1223 5.57044 22.261 5.84898 22.4951H3.81847C4.1035 22.2551 4.46068 22.1223 4.8318 22.1223ZM7.19119 24.1373C7.19239 24.1373 7.19351 24.1375 7.19472 24.1375C7.19584 24.1375 7.19704 24.1373 7.19816 24.1373H29.68C29.6504 24.6736 29.5914 25.2073 29.5043 25.7348C29.1946 25.6716 28.8747 25.6365 28.547 25.6358C28.5441 25.6358 28.5412 25.6358 28.5383 25.6358C27.7441 25.6358 26.9765 25.8569 26.2986 26.2705H10.458C10.0154 26.2705 9.65647 26.6381 9.65647 27.0916C9.65647 27.545 10.0154 27.9127 10.458 27.9127H24.6854C24.2606 28.6117 23.9891 29.4224 23.8888 30.2972C23.6232 30.2741 23.4855 30.1811 23.2617 30.0291C22.9216 29.7981 22.4556 29.4819 21.6093 29.4819C20.763 29.4819 20.2972 29.7982 19.957 30.0291C19.6969 30.2057 19.5536 30.303 19.1903 30.303C18.8265 30.303 18.683 30.2056 18.4226 30.0289C18.0825 29.798 17.6165 29.4819 16.7705 29.4819C15.9241 29.4819 15.4582 29.7982 15.118 30.0291C14.8579 30.2057 14.7146 30.303 14.3514 30.303C13.9887 30.303 13.8539 30.2115 13.5855 30.0292C13.2454 29.7983 12.7794 29.4819 11.9331 29.4819C11.0868 29.4819 10.6209 29.7982 10.2807 30.0291C10.0206 30.2057 9.87729 30.303 9.51403 30.303C9.15132 30.303 9.01658 30.2115 8.74822 30.0292C8.40804 29.7983 7.94209 29.4819 7.09572 29.4819C6.24944 29.4819 5.78357 29.7982 5.44347 30.0291C5.18328 30.2057 5.03996 30.303 4.67662 30.303C4.31319 30.303 4.16979 30.2056 3.90953 30.029C3.68926 29.8794 3.40823 29.689 3.00144 29.5768C2.74759 29.0386 2.52611 28.4828 2.33855 27.9128H4.04587C4.48849 27.9128 4.84743 27.5451 4.84743 27.0916C4.84743 26.6382 4.48849 26.2705 4.04587 26.2705H1.9013C1.75894 25.574 1.66596 24.8613 1.6258 24.1374H7.19119V24.1373ZM4.03024 39.1406V34.0597C5.6449 35.895 7.6819 37.3583 10.0236 38.282V38.6265C10.0236 38.9597 10.0861 39.2781 10.1986 39.5708H4.45034C4.21869 39.5709 4.03024 39.3778 4.03024 39.1406ZM19.679 38.6266C19.679 39.1473 19.2655 39.5709 18.7572 39.5709H12.5486C12.0403 39.5709 11.6268 39.1473 11.6268 38.6266V38.5288H19.679V38.6266ZM20.3424 36.8866H18.5665V36.6309C18.5665 36.1775 18.2076 35.8098 17.765 35.8098C17.3223 35.8098 16.9634 36.1775 16.9634 36.6309V36.8866H16.1527V36.6309C16.1527 36.1775 15.7938 35.8098 15.3511 35.8098C14.9085 35.8098 14.5496 36.1775 14.5496 36.6309V36.8866H13.739V36.6309C13.739 36.1775 13.38 35.8098 12.9374 35.8098C12.4948 35.8098 12.1358 36.1775 12.1358 36.6309V36.8866H10.9624C8.28155 35.9145 6.0238 34.1634 4.39784 31.9327C4.48601 31.9406 4.57835 31.9452 4.67638 31.9452C5.52274 31.9452 5.98861 31.6289 6.32879 31.398C6.5889 31.2214 6.73222 31.1241 7.09548 31.1241C7.45875 31.1241 7.60207 31.2214 7.86217 31.398C8.2022 31.629 8.6679 31.9452 9.51371 31.9452C10.36 31.9452 10.8259 31.6289 11.166 31.398C11.4261 31.2214 11.5695 31.1241 11.9327 31.1241C12.296 31.1241 12.4393 31.2214 12.6994 31.398C13.0394 31.629 13.5052 31.9452 14.351 31.9452C15.1972 31.9452 15.6631 31.6289 16.0032 31.398C16.2634 31.2214 16.4067 31.1241 16.7701 31.1241C17.1333 31.1241 17.2766 31.2214 17.5368 31.3979C17.8771 31.6289 18.3433 31.9452 19.1899 31.9452C20.0362 31.9452 20.502 31.6289 20.8422 31.398C21.1023 31.2214 21.2456 31.1241 21.6089 31.1241C21.9723 31.1241 22.1156 31.2214 22.3758 31.398C22.6945 31.6144 23.1235 31.9056 23.8724 31.9415C23.9384 32.9422 24.1159 33.8225 24.3683 34.6032C23.1534 35.5908 21.8019 36.3574 20.3424 36.8866ZM35.9611 38.5588C35.8649 38.6571 35.7735 38.7504 35.6881 38.8392C35.1987 39.3477 34.7781 39.5846 34.3645 39.5846C34.3442 39.5846 34.3153 39.5777 34.2831 39.5651C33.1713 39.1291 31.9533 39.1121 30.8531 39.5176C30.7323 39.5621 30.6065 39.5846 30.4792 39.5846C29.929 39.5846 29.4689 39.1935 29.1798 38.8654C28.9988 38.66 28.8096 38.4556 28.6092 38.2392C27.2002 36.7175 25.4467 34.8236 25.4467 31.0684C25.4467 31.0635 25.4469 31.0588 25.447 31.0539C25.4473 31.0418 25.448 31.0297 25.4478 31.0175C25.459 29.8721 25.8428 28.8549 26.5332 28.1491C26.6693 28.0101 26.8135 27.8872 26.9647 27.7806C26.9734 27.7748 26.9819 27.7689 26.9904 27.7628C27.4524 27.4443 27.9783 27.2781 28.5382 27.2781H28.5439C30.1733 27.2815 31.5253 28.4772 31.6221 30.0001C31.6495 30.432 31.9994 30.7679 32.422 30.7679C32.8445 30.7679 33.1944 30.432 33.2218 30.0001C33.3186 28.4771 34.6706 27.2815 36.2999 27.2781H36.3049C37.0215 27.2781 37.7214 27.5901 38.2757 28.1568C38.9883 28.8853 39.397 29.9466 39.397 31.0684C39.3969 35.0497 37.2461 37.2463 35.9611 38.5588Z" fill="#807E7B"/>
<path d="M7.252 27.9184C7.69752 27.9184 8.05869 27.5484 8.05869 27.092C8.05869 26.6356 7.69752 26.2656 7.252 26.2656C6.80648 26.2656 6.44531 26.6356 6.44531 27.092C6.44531 27.5484 6.80648 27.9184 7.252 27.9184Z" fill="#807E7B"/>
<path d="M18.959 20.7738C19.4046 20.7738 19.7657 20.4038 19.7657 19.9475C19.7657 19.4911 19.4046 19.1211 18.959 19.1211C18.5135 19.1211 18.1523 19.4911 18.1523 19.9475C18.1523 20.4038 18.5135 20.7738 18.959 20.7738Z" fill="#807E7B"/>
<path d="M20.7833 21.3852C21.2288 21.3852 21.5899 21.0152 21.5899 20.5588C21.5899 20.1024 21.2288 19.7324 20.7833 19.7324C20.3377 19.7324 19.9766 20.1024 19.9766 20.5588C19.9766 21.0152 20.3377 21.3852 20.7833 21.3852Z" fill="#807E7B"/>
<path d="M25.0059 22.0023C25.4514 22.0023 25.8126 21.6324 25.8126 21.176C25.8126 20.7196 25.4514 20.3496 25.0059 20.3496C24.5604 20.3496 24.1992 20.7196 24.1992 21.176C24.1992 21.6324 24.5604 22.0023 25.0059 22.0023Z" fill="#807E7B"/>
</g>
<defs>
<clipPath id="clip0_935_3020">
<rect width="41" height="42" fill="white"/>
</clipPath>
</defs>
</svg>
