<svg width="41" height="38" viewBox="0 0 41 38" fill="none" xmlns="http://www.w3.org/2000/svg">
<path d="M29.7167 21.6096C29.2594 15.8032 25.579 10.9098 20.5049 8.79216C20.6846 8.65417 20.8579 8.5032 21.0217 8.33624C23.2367 6.07913 22.7384 2.1382 22.7161 1.97149L22.5928 1.04968L21.6882 0.924009C21.5394 0.903118 18.3303 0.48212 16.0839 2.10132V0H13.6815V7.71686C6.03477 8.34219 0 14.883 0 22.8337C0 31.1964 6.67635 38 14.8827 38C16.8323 38 18.7207 37.6224 20.5046 36.8791C22.2376 37.601 24.1325 38 26.1174 38C34.3236 38 41 31.1964 41 22.8337V21.6096H29.7167ZM18.5359 24.0578H24.0369L21.2885 28.9089C19.8479 27.7176 18.8377 26.0062 18.5359 24.0578ZM26.1173 25.2818L28.8674 30.1361C28.0132 30.4713 27.086 30.6557 26.1172 30.6557C25.1485 30.6557 24.2214 30.4713 23.3671 30.1362L26.1173 25.2818ZM30.9462 28.9088L28.1978 24.0577H33.6987C33.397 26.0062 32.3867 27.7175 30.9462 28.9088ZM17.1411 4.38176C17.9515 3.55592 19.355 3.32971 20.3784 3.30605C20.3552 4.35002 20.1331 5.77965 19.323 6.60516C18.5126 7.431 17.1092 7.65721 16.0857 7.68087C16.1089 6.6369 16.331 5.20727 17.1411 4.38176ZM14.8827 35.5519C8.00101 35.5519 2.40234 29.8465 2.40234 22.8337C2.40234 15.8209 8.00101 10.1155 14.8827 10.1155C21.3591 10.1155 26.6985 15.169 27.305 21.6096H11.2347V22.8337C11.2347 27.9644 13.7482 32.5075 17.5858 35.2534C16.7055 35.4513 15.8025 35.5519 14.8827 35.5519ZM26.1173 35.5519C19.641 35.5519 14.3009 30.4982 13.6943 24.0577H16.1112C16.7069 29.1457 20.9667 33.1037 26.1172 33.1037C31.2679 33.1037 35.5277 29.1457 36.1234 24.0577H38.5403C37.9337 30.4982 32.5936 35.5519 26.1173 35.5519Z" fill="#807E7B"/>
</svg>
