<svg width="43" height="42" viewBox="0 0 43 42" fill="none" xmlns="http://www.w3.org/2000/svg">
<path d="M42.738 18.0127C42.703 17.8258 42.6028 17.6565 42.4543 17.5338C41.0635 16.3846 40.8287 15.1175 40.64 14.0994L40.6153 13.9667C40.5501 13.6193 40.2644 13.3515 39.9063 13.3023C39.7826 13.2853 39.6518 13.2766 39.5173 13.2766C38.7181 13.2766 37.592 13.6056 36.878 14.3403C36.7563 14.4657 36.6781 14.6255 36.6547 14.7969C36.5947 15.2377 36.5638 15.6412 36.5366 15.9971C36.4337 17.3384 36.3427 17.4806 35.9244 17.6099C35.6622 17.691 35.4573 17.8922 35.3757 18.1486C34.9818 19.3875 34.459 20.573 33.8262 21.6915C33.5137 21.1087 33.1684 20.5845 32.847 20.0968C32.0609 18.9039 31.4399 17.9615 31.652 16.7936C32.3395 13.0084 31.9906 10.157 30.6146 8.31849C29.8483 7.29465 28.7567 6.59665 27.4301 6.27058C27.6941 4.25819 29.1259 3.34583 29.9184 3.13838C30.3665 3.02115 30.6324 2.57129 30.5123 2.13366C30.3922 1.6961 29.9316 1.43615 29.4837 1.55361C27.8473 1.9819 26.0993 3.55419 25.7655 6.0655C24.4251 6.06181 23.2077 6.46163 22.206 7.24338C20.3754 8.67196 19.2695 11.3267 18.9187 15.1336C18.8131 16.2791 18.0544 16.9475 17.0041 17.8724C16.1469 18.6274 15.192 19.4704 14.4271 20.7447C13.4743 20.3658 12.4522 20.1199 11.3849 20.0309C11.6874 18.0989 13.0786 17.2167 13.8558 17.0134C14.3039 16.8962 14.5698 16.4463 14.4497 16.0088C14.3296 15.5711 13.869 15.3112 13.4211 15.4287C12.9991 15.5391 12.5699 15.7266 12.1591 15.9856C11.968 15.0645 11.5058 14.2005 10.8058 13.517C9.86808 12.601 8.62116 12.0966 7.29488 12.0966C6.86077 12.0966 6.42842 12.152 6.00975 12.2611C5.71942 12.3368 5.49258 12.5584 5.41506 12.8419C4.95877 14.5109 5.45143 16.306 6.70078 17.5265C7.5701 18.3756 8.70548 18.8702 9.92326 18.9381C9.8171 19.2775 9.73816 19.6388 9.6923 20.0219C4.27959 20.4191 0 24.8475 0 30.234C0 35.8809 4.70354 40.4751 10.4849 40.4751C12.6335 40.4751 14.6802 39.8513 16.4324 38.6681C16.7084 38.7864 16.9852 38.9002 17.2634 39.0074C19.791 39.9812 22.3455 40.475 24.8557 40.475C28.8933 40.475 32.6407 39.1864 35.6927 36.7485C38.8827 34.2004 41.2337 30.43 42.4915 25.845C42.9019 24.3495 43.264 20.826 42.738 18.0127ZM18.1291 19.0909C19.2588 18.0959 20.4269 17.067 20.5916 15.2807C20.8998 11.9367 21.7956 9.6638 23.2545 8.52529C24.1206 7.84943 25.191 7.58882 26.4365 7.7514C27.6665 7.91177 28.6161 8.42833 29.2586 9.28686C30.3538 10.7501 30.6026 13.1794 29.9981 16.5071C29.6708 18.3086 30.5675 19.6691 31.4345 20.9848C31.9204 21.7222 32.4207 22.4826 32.7608 23.3675C29.9303 27.36 25.6352 30.2715 20.9092 31.3377C20.9495 30.9717 20.97 30.6029 20.97 30.234C20.97 26.5336 18.9501 23.2854 15.9308 21.4856C16.5592 20.4754 17.3549 19.7729 18.1291 19.0909ZM7.88832 16.3663C7.18276 15.6771 6.84195 14.7107 6.94492 13.7552C7.06099 13.7432 7.17764 13.7371 7.29471 13.7371C8.17227 13.7371 8.99741 14.0708 9.61789 14.6769C10.3235 15.3661 10.6644 16.3326 10.5614 17.288C10.4454 17.3 10.3286 17.3061 10.2118 17.3061H10.2117C9.33385 17.3062 8.50879 16.9724 7.88832 16.3663ZM10.4849 38.8344C5.62964 38.8344 1.67969 34.9763 1.67969 30.234C1.67969 25.4916 5.62964 21.6335 10.4849 21.6335C15.3402 21.6335 19.2902 25.4916 19.2902 30.234C19.2902 30.7068 19.2506 31.1788 19.1725 31.6432C18.6322 31.7113 18.0882 31.7545 17.5417 31.7727C17.6568 31.2696 17.7169 30.7555 17.7169 30.234C17.7169 29.3101 17.5349 28.4083 17.1761 27.5536C17.0001 27.1346 16.5097 26.9339 16.0803 27.1059C15.6512 27.2779 15.446 27.757 15.622 28.1762C15.8976 28.8324 16.0372 29.5246 16.0372 30.234C16.0372 30.7498 15.9624 31.2565 15.8161 31.7471C14.6141 31.6716 13.4104 31.4775 12.2243 31.1671C11.9828 31.1039 11.7248 31.1492 11.5208 31.2906C10.7744 31.8082 10.022 32.4593 9.5759 33.7077C9.46092 34.0294 9.56154 34.387 9.82869 34.6062C11.3715 35.872 12.9834 36.9451 14.6438 37.8162C13.3728 38.4848 11.9577 38.8344 10.4849 38.8344ZM40.8691 25.4204C38.5648 33.8199 32.5785 38.8344 24.8558 38.8344C20.3473 38.8344 15.5883 37.029 11.3937 33.7387C11.616 33.3489 11.8909 33.0806 12.1863 32.8516C13.7634 33.2316 15.3671 33.4241 16.9597 33.4241C21.4671 33.4241 25.8132 31.9238 29.5281 29.0854C31.4169 27.6424 33.0538 25.9036 34.3651 23.9755C34.3807 23.9549 34.3954 23.9335 34.4089 23.9116C35.444 22.3777 36.2731 20.725 36.8578 19.0064C38.0348 18.4279 38.1246 17.2562 38.2117 16.1196C38.2316 15.8598 38.252 15.5933 38.2832 15.3122C38.5066 15.1542 38.8026 15.0291 39.0994 14.9648C39.3232 16.0078 39.7585 17.3467 41.1337 18.583C41.5228 20.9998 41.2403 24.0672 40.8691 25.4204Z" fill="#807E7B"/>
<path d="M27.0867 9.43889C26.6592 9.264 26.1668 9.46046 25.9874 9.87825C25.8081 10.296 26.0094 10.7767 26.4372 10.952C27.0482 11.2021 27.3855 13.0028 26.8482 15.9603C26.7672 16.4064 27.0717 16.8322 27.5285 16.9114C27.5781 16.92 27.6275 16.9242 27.6762 16.9242C28.0757 16.9242 28.43 16.6446 28.5022 16.2471C28.9828 13.6024 29.1272 10.2745 27.0867 9.43889Z" fill="#807E7B"/>
<path d="M32.6368 32.9186C32.3585 32.5561 31.8312 32.4833 31.4602 32.7553C31.4598 32.7554 31.4562 32.7581 31.456 32.7582C31.0819 33.0257 31.0022 33.5376 31.2757 33.9031C31.4399 34.1225 31.6954 34.2386 31.9543 34.2386C32.1268 34.2386 32.3009 34.187 32.4506 34.0802L32.4698 34.0664C32.8409 33.7945 32.9151 33.2811 32.6368 32.9186Z" fill="#807E7B"/>
<path d="M30.7074 34.2447C30.496 33.8414 29.9901 33.6817 29.5771 33.888C26.7026 35.3242 24.2774 35.2674 24.2416 35.2658C23.7799 35.2501 23.3899 35.6016 23.3717 36.0536C23.3536 36.5062 23.7146 36.8876 24.1781 36.9053C24.1909 36.9058 24.2361 36.9073 24.3111 36.9073C24.9113 36.9073 27.413 36.812 30.342 35.3485C30.755 35.1424 30.9185 34.648 30.7074 34.2447Z" fill="#807E7B"/>
<path d="M15.6238 25.2638L15.5962 25.2367C15.2674 24.9174 14.7357 24.9186 14.4085 25.2398C14.0814 25.5611 14.0828 26.0805 14.4117 26.4L14.4297 26.4176C14.594 26.5799 14.8103 26.661 15.0268 26.661C15.2402 26.661 15.4537 26.582 15.6174 26.4239C15.9471 26.1053 15.95 25.5858 15.6238 25.2638Z" fill="#807E7B"/>
</svg>
