<svg width="39" height="38" viewBox="0 0 39 38" fill="none" xmlns="http://www.w3.org/2000/svg">
<path d="M36.7148 14.8435H33.9727V11.1326C33.9727 9.90485 32.9475 8.90601 31.6875 8.90601H29.5869L34.8267 3.80058C35.7176 2.93252 35.7176 1.52006 34.8267 0.651996C33.9358 -0.215993 32.4862 -0.216067 31.5953 0.651996L21.7852 10.2112V6.67945C21.7852 5.45172 20.76 4.45289 19.5 4.45289H14.9297C13.6697 4.45289 12.6445 5.45172 12.6445 6.67945V9.05578C12.1464 8.95707 11.6371 8.90601 11.1211 8.90601C7.46286 8.90601 4.36686 11.4155 3.65671 14.8435H2.28516C1.02512 14.8435 0 15.8423 0 17.0701V18.9998C0 20.0054 0.687908 20.8569 1.62916 21.1324L4.3549 36.1718C4.55272 37.2309 5.49831 37.9998 6.60342 37.9998H32.3967C33.5018 37.9998 34.4474 37.231 34.6459 36.168L37.3709 21.1324C38.3121 20.8569 39 20.0053 39 18.9998V17.0701C39 15.8423 37.9749 14.8435 36.7148 14.8435ZM31.6875 10.3904C32.1075 10.3904 32.4492 10.7233 32.4492 11.1326V14.8435H23.4931L28.0634 10.3904H31.6875ZM32.6725 1.70167C32.9693 1.41237 33.4525 1.41229 33.7494 1.70167C34.0463 1.9909 34.0463 2.46167 33.7494 2.75098C33.7494 2.75098 20.7052 15.4607 20.0385 16.1104C19.7406 16.4005 19.2595 16.4007 18.9615 16.1104C18.6638 15.8203 18.6636 15.3514 18.9615 15.0611L32.6725 1.70167ZM14.168 6.67945C14.168 6.27013 14.5097 5.93726 14.9297 5.93726H19.5C19.92 5.93726 20.2617 6.27021 20.2617 6.67945V11.6957L18.232 13.6726C17.5057 11.8381 16.0442 10.3236 14.168 9.5244V6.67945ZM11.1211 10.3904C13.9542 10.3904 16.3394 12.2784 17.0221 14.8435H5.21838C5.8973 12.2542 8.30045 10.3904 11.1211 10.3904ZM37.4766 18.9998C37.4766 19.409 37.1349 19.742 36.7148 19.742H22.5469C22.1262 19.742 21.7852 20.0742 21.7852 20.4841C21.7852 20.894 22.1262 21.2263 22.5469 21.2263H35.8068L33.1463 35.9061C33.0803 36.2591 32.765 36.5154 32.3966 36.5154H6.60334C6.2349 36.5154 5.91962 36.2591 5.85434 35.9098L3.1932 21.2263H16.4531C16.8738 21.2263 17.2148 20.894 17.2148 20.4841C17.2148 20.0742 16.8738 19.742 16.4531 19.742H2.28516C1.86514 19.742 1.52344 19.409 1.52344 18.9998V17.0701C1.52344 16.6608 1.86514 16.3279 2.28516 16.3279C3.0612 16.3279 16.1227 16.3279 17.3446 16.3279C17.4566 16.6373 17.639 16.921 17.8843 17.16C18.7776 18.0302 20.2222 18.0305 21.1157 17.16L21.9696 16.3279H36.7148C37.1349 16.3279 37.4766 16.6608 37.4766 17.0701V18.9998Z" fill="#807E7B"/>
<path d="M19.5 24.1943C19.0793 24.1943 18.7383 24.5266 18.7383 24.9365V32.8037C18.7383 33.2136 19.0793 33.5459 19.5 33.5459C19.9207 33.5459 20.2617 33.2136 20.2617 32.8037V24.9365C20.2617 24.5266 19.9207 24.1943 19.5 24.1943Z" fill="#807E7B"/>
<path d="M24.0703 24.1943C23.6496 24.1943 23.3086 24.5266 23.3086 24.9365V32.8037C23.3086 33.2135 23.6496 33.5459 24.0703 33.5459C24.491 33.5459 24.832 33.2136 24.832 32.8037V24.9365C24.832 24.5266 24.491 24.1943 24.0703 24.1943Z" fill="#807E7B"/>
<path d="M28.6406 24.1943C28.2199 24.1943 27.8789 24.5266 27.8789 24.9365V32.8037C27.8789 33.2135 28.2199 33.5459 28.6406 33.5459C29.0613 33.5459 29.4023 33.2136 29.4023 32.8037V24.9365C29.4023 24.5266 29.0613 24.1943 28.6406 24.1943Z" fill="#807E7B"/>
<path d="M14.9297 24.1943C14.509 24.1943 14.168 24.5266 14.168 24.9365V32.8037C14.168 33.2136 14.509 33.5459 14.9297 33.5459C15.3504 33.5459 15.6914 33.2136 15.6914 32.8037V24.9365C15.6914 24.5266 15.3504 24.1943 14.9297 24.1943Z" fill="#807E7B"/>
<path d="M10.3594 24.1943C9.93868 24.1943 9.59766 24.5266 9.59766 24.9365V32.8037C9.59766 33.2136 9.93868 33.5459 10.3594 33.5459C10.7801 33.5459 11.1211 33.2136 11.1211 32.8037V24.9365C11.1211 24.5266 10.7801 24.1943 10.3594 24.1943Z" fill="#807E7B"/>
<path d="M19.5 19.7412C19.0795 19.7412 18.7383 20.0737 18.7383 20.4834C18.7383 20.8931 19.0795 21.2256 19.5 21.2256C19.9205 21.2256 20.2617 20.8931 20.2617 20.4834C20.2617 20.0737 19.9205 19.7412 19.5 19.7412Z" fill="#807E7B"/>
</svg>
