<svg width="40" height="40" viewBox="0 0 40 40" fill="none" xmlns="http://www.w3.org/2000/svg">
<path d="M14.7851 20.5518C12.418 20.5518 10.4922 22.4775 10.4922 24.8446C10.4922 27.2116 12.418 29.1375 14.7851 29.1375C17.1522 29.1375 19.0779 27.2116 19.0779 24.8446C19.0779 22.4775 17.1521 20.5518 14.7851 20.5518ZM14.7851 26.7926C13.711 26.7926 12.8372 25.9188 12.8372 24.8447C12.8372 23.7707 13.711 22.8969 14.7851 22.8969C15.8591 22.8969 16.7329 23.7707 16.7329 24.8447C16.7328 25.9187 15.8591 26.7926 14.7851 26.7926Z" fill="#807E7B"/>
<path d="M39.9933 17.0607C39.5153 12.6181 37.2748 9.01086 33.5138 6.62898C30.7115 4.85414 28.057 4.38992 27.9454 4.37102L27.5998 4.3125L0 16.4201V23.5347H1.1725C2.24656 23.5347 3.12031 24.4085 3.12031 25.4826C3.12031 26.5566 2.24656 27.4304 1.1725 27.4304H0V35.6877H40V17.1231L39.9933 17.0607ZM27.8771 6.75156C28.5901 6.91836 30.3839 7.4225 32.2591 8.61008C35.0636 10.3863 36.8075 12.873 37.4582 16.0139H6.7632L27.8771 6.75156ZM33.2415 18.6097C33.2415 20.4904 31.7114 22.0205 29.8306 22.0205C27.9498 22.0205 26.4197 20.4904 26.4197 18.6097C26.4197 18.5257 26.4237 18.4423 26.4298 18.359H33.2314C33.2375 18.4422 33.2415 18.5257 33.2415 18.6097ZM23.6273 33.3427C23.7622 32.0778 24.8354 31.0892 26.1354 31.0892C27.4354 31.0892 28.5087 32.0778 28.6435 33.3427H23.6273ZM37.6549 33.3427H30.9953V33.3427C30.8551 30.7834 28.7291 28.7441 26.1354 28.7441C23.5417 28.7441 21.4159 30.7833 21.2755 33.3427H2.34508V29.6127C4.14398 29.1012 5.46539 27.4434 5.46539 25.4827C5.46539 23.522 4.14398 21.864 2.34508 21.3525V18.3591H24.0808C24.0772 18.4426 24.0747 18.5261 24.0747 18.6098C24.0747 21.7836 26.6568 24.3658 29.8307 24.3658C33.0045 24.3658 35.5866 21.7837 35.5866 18.6098C35.5866 18.5261 35.5842 18.4427 35.5805 18.3591H37.6551V33.3427H37.6549Z" fill="#807E7B"/>
</svg>
