<svg width="35" height="35" viewBox="0 0 35 35" fill="none" xmlns="http://www.w3.org/2000/svg">
<path d="M19.3006 31.9209H15.9844C15.6069 31.9209 15.3008 31.6148 15.3008 31.2373C15.3008 30.8598 15.6069 30.5537 15.9844 30.5537H19.3006C19.678 30.5537 19.9842 30.8598 19.9842 31.2373C19.9842 31.6148 19.678 31.9209 19.3006 31.9209Z" fill="#807E7B"/>
<path d="M14.7263 29.791H11.4102C11.0327 29.791 10.7266 29.4849 10.7266 29.1074C10.7266 28.7299 11.0327 28.4238 11.4102 28.4238H14.7263C15.1038 28.4238 15.4099 28.7299 15.4099 29.1074C15.4099 29.4849 15.1038 29.791 14.7263 29.791Z" fill="#807E7B"/>
<path d="M31.2464 4.68937C31.2468 4.45571 31.1275 4.23744 30.9304 4.11207C30.9231 4.10743 30.9181 4.10428 30.916 4.10298L24.5049 0.103633C24.3964 0.0358887 24.271 1.82231e-07 24.1431 1.82231e-07H4.43551H4.4338C4.05768 -0.000273254 3.75 0.307206 3.75 0.683318V28.7097C3.75 28.8523 3.79464 28.9914 3.87769 29.1074L7.88586 34.7082L7.88791 34.7114C8.0072 34.8925 8.21043 35.0012 8.4274 34.9999C8.44354 34.9999 8.45324 34.9998 8.45359 34.9998H30.5628C30.9403 34.9998 31.2464 34.6937 31.2464 34.3162V4.68978C31.2464 4.68971 31.2464 4.6895 31.2464 4.68937ZM23.9474 1.36718L28.1755 4.00468H8.72866L6.08617 1.36718H23.9474ZM5.11718 2.33173L7.76227 4.97183V15.0171C7.76227 15.3946 8.06838 15.7007 8.44586 15.7007C8.82334 15.7007 9.12945 15.3946 9.12945 15.0171V5.37186H29.8792V26.1309C29.8691 26.131 29.8588 26.131 29.8486 26.131C28.7064 26.131 28.1706 25.8822 27.5502 25.5942C26.8799 25.283 26.1202 24.9304 24.6762 24.9304C23.2322 24.9304 22.4725 25.283 21.8022 25.5942C21.3208 25.8177 20.8904 26.0175 20.188 26.0958V23.7879C20.4054 23.8069 20.6626 23.8212 20.9446 23.8212C22.0254 23.8212 23.4696 23.6111 24.4286 22.652C26.0988 20.9819 25.4976 17.8417 25.4712 17.7088C25.4173 17.4375 25.2053 17.2255 24.934 17.1715C24.8534 17.1555 23.6659 16.928 22.3714 17.1244C22.5386 16.7101 22.6424 16.2646 22.6424 15.7969C22.6424 13.435 19.9969 11.6396 19.8843 11.5643C19.6544 11.4105 19.3545 11.4106 19.1246 11.5643C19.012 11.6396 16.3664 13.435 16.3664 15.7969C16.3664 16.2646 16.4701 16.7101 16.6374 17.1244C15.3428 16.928 14.1553 17.1556 14.0748 17.1715C13.8034 17.2255 13.5915 17.4376 13.5375 17.7088C13.5111 17.8416 12.9101 20.9819 14.5801 22.652C15.5393 23.6112 16.9834 23.8212 18.0643 23.8212C18.3462 23.8212 18.6034 23.8069 18.8209 23.7879V26.0959C18.118 26.0176 17.6874 25.8177 17.2058 25.5942C16.5355 25.283 15.7759 24.9304 14.3319 24.9304C12.8879 24.9304 12.1282 25.283 11.458 25.5942C10.8376 25.8822 10.3019 26.131 9.1598 26.131C9.14969 26.131 9.13964 26.1309 9.12959 26.1309V21.1977C9.12959 20.8202 8.82348 20.5141 8.446 20.5141C8.06852 20.5141 7.76241 20.8202 7.76241 21.1977V32.1865L5.11732 28.4903V2.33173H5.11718ZM17.7335 15.797C17.7335 14.6765 18.7999 13.5634 19.5054 12.986C20.2111 13.5614 21.2752 14.6707 21.2752 15.797C21.2752 16.9168 20.21 18.0293 19.5045 18.607C18.7984 18.0288 17.7335 16.9166 17.7335 15.797ZM18.7859 22.4215C17.8802 22.5135 16.3432 22.4817 15.5468 21.6852C14.7546 20.893 14.7215 19.3519 14.812 18.4447C15.7176 18.3528 17.2547 18.3845 18.0511 19.181C18.8433 19.9732 18.8764 21.5143 18.7859 22.4215ZM20.1863 21.5841C20.201 20.7451 20.3742 19.7643 20.9576 19.181C21.7498 18.3887 23.2906 18.3557 24.1981 18.4462C24.2903 19.352 24.2583 20.8888 23.4618 21.6852C22.6696 22.4775 21.1288 22.5106 20.2213 22.42C20.2031 22.241 20.1898 22.0374 20.1862 21.8197C20.1874 21.7433 20.1874 21.6646 20.1863 21.5841ZM9.12945 33.6327V27.4981C9.1395 27.4981 9.14962 27.4981 9.15967 27.4981C10.6036 27.4981 11.3633 27.1455 12.0336 26.8343C12.6539 26.5463 13.1896 26.2975 14.3318 26.2975C15.4739 26.2975 16.0096 26.5463 16.6299 26.8343C17.3002 27.1455 18.0599 27.4981 19.5039 27.4981C20.9479 27.4981 21.7075 27.1455 22.3779 26.8343C22.9982 26.5463 23.534 26.2975 24.6761 26.2975C25.8183 26.2975 26.3541 26.5463 26.9745 26.8343C27.6448 27.1455 28.4045 27.4981 29.8486 27.4981C29.8587 27.4981 29.8689 27.4981 29.8791 27.4981V33.6327H9.12945Z" fill="#807E7B"/>
<path d="M8.44433 18.8035C8.15955 18.8035 7.89623 18.6188 7.80073 18.3502C7.70639 18.085 7.78685 17.7811 8.00211 17.599C8.22654 17.4091 8.55521 17.3855 8.80506 17.5399C9.04391 17.6875 9.16969 17.9781 9.11425 18.2533C9.05075 18.5688 8.76678 18.8035 8.44433 18.8035Z" fill="#807E7B"/>
<path d="M24.9153 9.30078H14.0938C13.7163 9.30078 13.4102 8.99467 13.4102 8.61719C13.4102 8.23971 13.7163 7.93359 14.0938 7.93359H24.9153C25.2928 7.93359 25.5989 8.23971 25.5989 8.61719C25.5989 8.99474 25.2929 9.30078 24.9153 9.30078Z" fill="#807E7B"/>
</svg>
