<svg width="38" height="38" viewBox="0 0 38 38" fill="none" xmlns="http://www.w3.org/2000/svg">
<g clip-path="url(#clip0_935_2960)">
<path d="M19 34.2226C18.5901 34.2226 18.2578 33.8904 18.2578 33.4804V25.376C18.2578 24.9661 18.5901 24.6338 19 24.6338C19.4099 24.6338 19.7422 24.9661 19.7422 25.376V33.4804C19.7422 33.8904 19.4099 34.2226 19 34.2226Z" fill="#807E7B"/>
<path d="M25.8368 34.654C25.7872 34.654 25.7367 34.649 25.6862 34.6386C25.2847 34.5557 25.0264 34.1632 25.1092 33.7617L26.9008 25.0749C26.9836 24.6734 27.3759 24.415 27.7777 24.4979C28.1791 24.5807 28.4375 24.9733 28.3546 25.3747L26.563 34.0616C26.4906 34.4125 26.1816 34.654 25.8368 34.654Z" fill="#807E7B"/>
<path d="M12.1622 34.654C11.8173 34.654 11.5084 34.4125 11.436 34.0616L9.64436 25.3747C9.56153 24.9732 9.81989 24.5807 10.2213 24.4979C10.6232 24.415 11.0153 24.6734 11.0982 25.0749L12.8898 33.7617C12.9726 34.1632 12.7143 34.5557 12.3128 34.6385C12.2623 34.649 12.2118 34.654 12.1622 34.654Z" fill="#807E7B"/>
<path d="M19.0141 22.7292C18.7038 22.7292 18.4206 22.528 18.3161 22.2367C18.2115 21.9451 18.3039 21.6103 18.5432 21.4134C18.7859 21.2136 19.1389 21.1904 19.4057 21.3564C19.6647 21.5176 19.8022 21.8322 19.7422 22.1317C19.6735 22.4741 19.3638 22.7292 19.0141 22.7292Z" fill="#807E7B"/>
<path d="M37.2578 17.3473H33.9411V12.6978C33.9411 12.0774 33.8378 11.4663 33.6341 10.8816C33.1451 9.47794 32.0845 8.31404 30.7444 7.68385V0.742186C30.7444 0.332277 30.4122 0 30.0023 0H25.806C25.3961 0 25.0638 0.332277 25.0638 0.742186V7.68333C23.7231 8.31271 22.6621 9.47638 22.1737 10.8804C22.1735 10.881 22.1733 10.8816 22.1732 10.8822C22.0516 11.232 21.9659 11.5915 21.9167 11.9568C21.7322 11.8818 21.5599 11.8057 21.4099 11.7196C21.2053 11.6024 20.989 11.4298 20.7599 11.2471C20.2386 10.8312 19.6479 10.3599 18.8549 10.2583C18.0623 10.157 17.3714 10.4641 16.7622 10.7352C16.4945 10.8543 16.2417 10.9668 16.0142 11.0288C15.7696 11.0954 15.4837 11.1294 15.1809 11.1654C14.5255 11.2435 13.7827 11.3319 13.1744 11.8021C12.8424 12.0587 12.6331 12.3764 12.482 12.7073C11.9392 11.8952 11.1351 11.2794 10.1822 10.9656C10.1658 10.9602 10.1493 10.9549 10.1328 10.9497L10.6463 8.39605C10.7796 7.73269 10.6118 7.04772 10.1857 6.51662C9.748 5.97104 9.09168 5.64996 8.38505 5.63579C7.67982 5.62154 7.00992 5.91604 6.55066 6.44351C6.48438 6.51966 6.4236 6.59944 6.36853 6.68227C6.09421 6.4061 5.75503 6.19458 5.37363 6.069C4.64717 5.82965 3.85407 5.92673 3.19754 6.33508C2.54115 6.74335 2.10363 7.41191 1.99705 8.16924C1.94332 8.55072 1.97775 8.93228 2.09227 9.28772C1.99534 9.29877 1.89841 9.31607 1.80223 9.33974C1.12298 9.50659 0.555205 9.9663 0.244378 10.601C-0.0664496 11.2358 -0.0814418 11.9663 0.203261 12.6051C0.480393 13.227 1.01261 13.6898 1.66336 13.8748L4.17663 14.5894C4.16973 14.6304 4.16334 14.6716 4.15755 14.7129C4.02856 15.6297 4.1862 16.5466 4.59522 17.3475H0.742236C0.332327 17.3475 5.02458e-05 17.6798 5.02458e-05 18.0897V21.9865C5.02458e-05 22.3964 0.332327 22.7287 0.742236 22.7287H2.37764L4.84185 35.3911C5.13605 36.9028 6.46739 37.9999 8.00749 37.9999H29.9926C31.5327 37.9999 32.864 36.9027 33.1582 35.3909L35.6225 22.7286H37.2579C37.6678 22.7286 38 22.3963 38 21.9864V18.0895C38 17.6796 37.6677 17.3473 37.2578 17.3473ZM23.3515 12.6978C23.3515 12.4174 23.3802 12.1399 23.437 11.868H32.3708C32.4279 12.14 32.4567 12.4176 32.4567 12.6978V17.3473H23.3515V12.6978ZM26.5482 1.48437H29.2601V4.10555H26.5482V1.48437ZM26.0536 8.87959C26.35 8.77464 26.5482 8.49439 26.5482 8.17993V5.59H29.2601V8.17993C29.2601 8.4941 29.4579 8.77427 29.754 8.87936C30.5527 9.16288 31.2433 9.69792 31.7252 10.3836H24.0814C24.5631 9.69777 25.2541 9.16258 26.0536 8.87959ZM14.0822 12.9765C14.3657 12.7574 14.8469 12.7001 15.3563 12.6394C15.6991 12.5986 16.0536 12.5565 16.4039 12.4611C16.7412 12.3693 17.0586 12.228 17.3656 12.0914C17.8388 11.8808 18.2857 11.6821 18.6663 11.7308C19.0469 11.7795 19.4293 12.0846 19.8341 12.4075C20.0967 12.6171 20.3684 12.8337 20.6716 13.0076C20.9866 13.1881 21.319 13.3183 21.6406 13.4442C21.7177 13.4744 21.7933 13.504 21.8671 13.5337V17.3474H14.4299L13.3628 14.661C13.4701 14.4117 13.5464 14.1651 13.6206 13.9253C13.7499 13.5077 13.8615 13.1472 14.0822 12.9765ZM2.06934 12.4469C1.83934 12.3815 1.65817 12.2231 1.55909 12.0008C1.45392 11.7647 1.4606 11.4924 1.57749 11.2537C1.69439 11.0151 1.90532 10.8428 2.15632 10.7811C2.39249 10.7232 2.62895 10.769 2.82162 10.9106C3.06394 11.0886 3.38976 11.1028 3.64663 10.9467C3.9035 10.7905 4.04088 10.4947 3.99427 10.1976L3.89719 9.57806C3.87485 9.43548 3.8114 9.30249 3.71469 9.19539C3.51215 8.97117 3.42413 8.68016 3.46695 8.37601C3.51207 8.05532 3.69962 7.77084 3.98158 7.59546C4.26361 7.42008 4.60183 7.37755 4.90931 7.47886C5.20099 7.5749 5.42306 7.78249 5.53461 8.06333C5.58463 8.18928 5.6682 8.2992 5.77619 8.38099L6.29958 8.77746C6.54123 8.96034 6.86972 8.97822 7.12956 8.82229C7.3894 8.66643 7.52841 8.36815 7.48062 8.06897C7.44299 7.83288 7.51023 7.60177 7.6701 7.41815C7.83984 7.22325 8.09032 7.11408 8.35513 7.11979C8.62084 7.12513 8.86606 7.24381 9.02778 7.44539C9.18007 7.63524 9.23804 7.86888 9.19091 8.10326L8.66136 10.7371C7.83887 10.7537 7.02351 10.9921 6.30039 11.4418C5.59888 11.8782 5.03749 12.4805 4.65897 13.1832L2.06934 12.4469ZM6.35005 17.2998C5.76854 16.6562 5.50522 15.7887 5.62745 14.9196C5.75593 14.0066 6.28703 13.1984 7.08459 12.7023C7.88229 12.2062 8.84208 12.087 9.71786 12.3754C10.5514 12.6499 11.2131 13.2697 11.5333 14.0759L12.8328 17.3473H6.39294L6.35005 17.2998ZM36.5156 21.2442H22.3552C21.9453 21.2442 21.613 21.5765 21.613 21.9864C21.613 22.3963 21.9453 22.7286 22.3552 22.7286H34.1101L31.7011 35.1074C31.5424 35.9234 30.8238 36.5156 29.9925 36.5156H8.00749C7.17625 36.5156 6.45766 35.9234 6.29891 35.1074L3.88992 22.7286H15.6449C16.0548 22.7286 16.3871 22.3963 16.3871 21.9864C16.3871 21.5765 16.0548 21.2442 15.6449 21.2442H1.48442V18.8317H36.5156V21.2442Z" fill="#807E7B"/>
</g>
<defs>
<clipPath id="clip0_935_2960">
<rect width="38" height="38" fill="white"/>
</clipPath>
</defs>
</svg>
