<svg width="40" height="40" viewBox="0 0 40 40" fill="none" xmlns="http://www.w3.org/2000/svg">
<path d="M5.85938 40H18.9062V25.7812H14.2188V21.0938H18.9062V15.2344C18.9062 12.0035 21.5347 9.375 24.7656 9.375H30.625V14.0625H25.9375C24.6451 14.0625 23.5938 15.1138 23.5938 16.4062V21.0938H30.4135L29.6323 25.7812H23.5938V40H34.1406C37.3715 40 40 37.3715 40 34.1406V5.85938C40 2.62848 37.3715 0 34.1406 0H5.85938C2.62848 0 0 2.62848 0 5.85938V34.1406C0 37.3715 2.62848 40 5.85938 40ZM2.34375 5.85938C2.34375 3.9209 3.9209 2.34375 5.85938 2.34375H34.1406C36.0791 2.34375 37.6562 3.9209 37.6562 5.85938V34.1406C37.6562 36.0791 36.0791 37.6562 34.1406 37.6562H25.9375V28.125H31.6177L33.1802 18.75H25.9375V16.4062H32.9688V7.03125H24.7656C20.2423 7.03125 16.5625 10.7111 16.5625 15.2344V18.75H11.875V28.125H16.5625V37.6562H5.85938C3.9209 37.6562 2.34375 36.0791 2.34375 34.1406V5.85938Z" fill="#FF8717"/>
</svg>
