<svg width="51" height="47" viewBox="0 0 51 47" fill="none" xmlns="http://www.w3.org/2000/svg">
<path d="M39.7002 29.0458C38.6909 28.0463 37.4735 27.5119 36.1832 27.5119C34.9034 27.5119 33.6756 28.0364 32.6247 29.0359L29.3367 32.1532C29.0661 32.0147 28.7956 31.886 28.5355 31.7574C28.1609 31.5792 27.8071 31.411 27.5054 31.2329C24.4255 29.3724 21.6265 26.9478 18.942 23.8107C17.6413 22.2471 16.7673 20.9309 16.1326 19.5949C16.9858 18.8527 17.7766 18.0808 18.5466 17.3385C18.8379 17.0615 19.1293 16.7745 19.4206 16.4974C21.6057 14.4192 21.6057 11.7274 19.4206 9.64917L16.58 6.9475C16.2574 6.64072 15.9245 6.32404 15.6123 6.00736C14.988 5.39379 14.3325 4.76043 13.6562 4.16666C12.6469 3.21662 11.4399 2.71191 10.1705 2.71191C8.90103 2.71191 7.67322 3.21662 6.63271 4.16666C6.62231 4.17656 6.62231 4.17656 6.6119 4.18645L3.07416 7.58086C1.74231 8.84758 0.982735 10.3914 0.816253 12.1826C0.56653 15.0723 1.46137 17.7641 2.14811 19.5256C3.83374 23.8503 6.35177 27.8582 10.108 32.1532C14.6655 37.3289 20.149 41.4161 26.4128 44.2959C28.806 45.3746 32.0004 46.6512 35.5693 46.8689C35.7878 46.8788 36.0168 46.8887 36.2249 46.8887C38.6284 46.8887 40.647 46.0673 42.2286 44.4344C42.239 44.4146 42.2598 44.4047 42.2702 44.3849C42.8113 43.7615 43.4356 43.1974 44.0911 42.5937C44.5385 42.188 44.9964 41.7624 45.4438 41.3171C46.4739 40.2978 47.015 39.1103 47.015 37.893C47.015 36.6659 46.4635 35.4882 45.4126 34.4986L39.7002 29.0458ZM43.4252 39.4665C43.4148 39.4665 43.4148 39.4764 43.4252 39.4665C43.0194 39.8822 42.6032 40.2582 42.1558 40.6739C41.4794 41.2874 40.7927 41.9307 40.1476 42.6531C39.0967 43.7219 37.8585 44.2266 36.2353 44.2266C36.0792 44.2266 35.9127 44.2266 35.7566 44.2167C32.6663 44.0287 29.7945 42.8807 27.6406 41.901C21.7513 39.1894 16.58 35.3398 12.2827 30.4609C8.73455 26.3936 6.36218 22.633 4.79101 18.5954C3.82333 16.1312 3.46956 14.2113 3.62563 12.4003C3.72969 11.2425 4.19792 10.2825 5.06154 9.46114L8.60968 6.08653C9.11953 5.6313 9.6606 5.3839 10.1913 5.3839C10.8468 5.3839 11.3774 5.75995 11.7104 6.07663C11.7208 6.08653 11.7312 6.09643 11.7416 6.10632C12.3763 6.67041 12.9798 7.25428 13.6145 7.87775C13.9371 8.19443 14.2701 8.51111 14.603 8.83768L17.4436 11.5394C18.5466 12.5884 18.5466 13.5582 17.4436 14.6072C17.1419 14.8942 16.8505 15.1812 16.5488 15.4583C15.6748 16.3093 14.8423 17.101 13.9371 17.8729C13.9163 17.8927 13.8955 17.9026 13.8851 17.9224C12.9902 18.7735 13.1567 19.6048 13.344 20.1689C13.3544 20.1986 13.3648 20.2282 13.3752 20.2579C14.114 21.9601 15.1545 23.5633 16.7361 25.4732L16.7465 25.4831C19.6183 28.8479 22.6462 31.4704 25.9862 33.4793C26.4128 33.7366 26.8498 33.9444 27.2661 34.1423C27.6406 34.3205 27.9944 34.4887 28.2962 34.6668C28.3378 34.6866 28.3794 34.7163 28.421 34.7361C28.7748 34.9044 29.1078 34.9835 29.4511 34.9835C30.3148 34.9835 30.8558 34.4689 31.0327 34.3007L34.5913 30.9162C34.945 30.5797 35.5069 30.174 36.1624 30.174C36.8075 30.174 37.3382 30.5599 37.6608 30.8964C37.6712 30.9063 37.6712 30.9063 37.6816 30.9162L43.4148 36.369C44.4865 37.3784 44.4865 38.4175 43.4252 39.4665Z" fill="#FF8717"/>
<path d="M27.3828 11.1532C30.1089 11.5886 32.5854 12.8158 34.5623 14.6961C36.5393 16.5763 37.8191 18.9317 38.2874 21.5245C38.4018 22.1776 38.9949 22.6328 39.6712 22.6328C39.7545 22.6328 39.8273 22.6229 39.9106 22.6131C40.6805 22.4943 41.1904 21.8016 41.0655 21.0692C40.5037 17.9321 38.9429 15.0721 36.5601 12.8059C34.1773 10.5396 31.1703 9.05521 27.8718 8.52082C27.1019 8.40206 26.3839 8.88698 26.2486 9.6094C26.1134 10.3318 26.6128 11.0345 27.3828 11.1532Z" fill="#FF8717"/>
<path d="M49.9825 20.6837C49.0564 15.5179 46.4968 10.8172 42.5636 7.07638C38.6305 3.33561 33.6881 0.901133 28.2566 0.0203679C27.497 -0.108283 26.7791 0.386529 26.6438 1.10895C26.5189 1.84127 27.0288 2.52412 27.7988 2.65277C32.6475 3.43457 37.0697 5.62164 40.5866 8.95667C44.1036 12.3016 46.3927 16.5075 47.2147 21.1191C47.3292 21.7723 47.9223 22.2275 48.5986 22.2275C48.6818 22.2275 48.7547 22.2176 48.8379 22.2077C49.5975 22.0989 50.1177 21.4061 49.9825 20.6837Z" fill="#FF8717"/>
</svg>
