<svg xmlns="http://www.w3.org/2000/svg" width="24" height="24" viewBox="0 0 24 24" fill="none"><g clip-path="url(#clip0_1565_548)"><path d="M12.1856 6.71119V6.24994H13.2339C13.5198 6.24964 13.7938 6.13596 13.996 5.93383C14.1981 5.73171 14.3118 5.45766 14.3121 5.17181V3C14.3118 2.71415 14.1981 2.4401 13.996 2.23798C13.7938 2.03586 13.5198 1.92217 13.2339 1.92188H1.07812C0.79228 1.92217 0.518227 2.03586 0.316104 2.23798C0.113981 2.4401 0.000297807 2.71415 0 3L0 5.17181C0.000297807 5.45766 0.113981 5.73171 0.316104 5.93383C0.518227 6.13596 0.79228 6.24964 1.07812 6.24994H2.12644V6.71119C2.12688 7.09644 2.28012 7.46579 2.55254 7.73821C2.82496 8.01063 3.19431 8.16387 3.57956 8.16431H5.4525L5.05875 19.9054C5.04678 20.1884 5.09219 20.4709 5.19223 20.7358C5.29228 21.0008 5.4449 21.2428 5.64091 21.4473C5.83692 21.6518 6.07226 21.8145 6.33279 21.9256C6.59331 22.0368 6.87363 22.0941 7.15687 22.0941C7.44012 22.0941 7.72044 22.0368 7.98096 21.9256C8.24149 21.8145 8.47683 21.6518 8.67284 21.4473C8.86885 21.2428 9.02147 21.0008 9.12151 20.7358C9.22156 20.4709 9.26696 20.1884 9.255 19.9054L8.86125 8.16375H10.7344C11.1192 8.16281 11.488 8.00943 11.76 7.73718C12.032 7.46494 12.185 7.09602 12.1856 6.71119ZM12.246 4.44056H2.06587V3.94369H12.246V4.44056ZM0.65625 5.17181V3C0.656399 2.88816 0.700894 2.78094 0.779979 2.70185C0.859063 2.62277 0.966282 2.57827 1.07812 2.57812H13.2339C13.3458 2.57827 13.453 2.62277 13.5321 2.70185C13.6112 2.78094 13.6557 2.88816 13.6558 3V5.17181C13.6557 5.28365 13.6112 5.39087 13.5321 5.46996C13.453 5.54904 13.3458 5.59354 13.2339 5.59369H12.9022V3.61556C12.9023 3.57247 12.8938 3.52979 12.8773 3.48997C12.8608 3.45014 12.8367 3.41396 12.8062 3.38349C12.7757 3.35301 12.7395 3.32885 12.6997 3.31236C12.6599 3.29588 12.6172 3.28741 12.5741 3.28744H1.73775C1.69465 3.28741 1.65197 3.29588 1.61215 3.31236C1.57233 3.32885 1.53615 3.35301 1.50568 3.38349C1.4752 3.41396 1.45103 3.45014 1.43455 3.48997C1.41807 3.52979 1.4096 3.57247 1.40962 3.61556V5.59369H1.07812C0.966282 5.59354 0.859063 5.54904 0.779979 5.46996C0.700894 5.39087 0.656399 5.28365 0.65625 5.17181ZM2.06587 5.09681H12.246V5.59369H2.06587V5.09681ZM2.78269 6.71119V6.24994H11.5294V6.71119C11.5292 6.92247 11.4452 7.12504 11.2958 7.27444C11.1464 7.42384 10.9438 7.50786 10.7325 7.50806H3.57956C3.36828 7.50786 3.16571 7.42384 3.01631 7.27444C2.86691 7.12504 2.78289 6.92247 2.78269 6.71119ZM8.59819 19.9284C8.60708 20.1234 8.57636 20.3181 8.50789 20.5008C8.43943 20.6835 8.33463 20.8505 8.19982 20.9916C8.06502 21.1327 7.90302 21.245 7.7236 21.3217C7.54418 21.3984 7.35107 21.438 7.15594 21.438C6.9608 21.438 6.76769 21.3984 6.58827 21.3217C6.40885 21.245 6.24685 21.1327 6.11205 20.9916C5.97725 20.8505 5.87245 20.6835 5.80398 20.5008C5.73551 20.3181 5.70479 20.1234 5.71369 19.9284L6.10912 8.16487H8.20275L8.59819 19.9284Z" fill="black"/><path d="M7.15625 20.4482C7.2675 20.4482 7.37626 20.4153 7.46876 20.3534C7.56126 20.2916 7.63336 20.2038 7.67593 20.101C7.71851 19.9982 7.72965 19.8851 7.70794 19.776C7.68624 19.6669 7.63266 19.5667 7.554 19.488C7.47533 19.4093 7.3751 19.3558 7.26599 19.3341C7.15687 19.3123 7.04377 19.3235 6.94099 19.3661C6.83821 19.4086 6.75036 19.4807 6.68855 19.5732C6.62674 19.6657 6.59375 19.7745 6.59375 19.8857C6.59405 20.0348 6.65341 20.1777 6.75883 20.2832C6.86426 20.3886 7.00716 20.4479 7.15625 20.4482ZM7.15625 19.792C7.17479 19.792 7.19292 19.7975 7.20833 19.8078C7.22375 19.8181 7.23577 19.8327 7.24286 19.8499C7.24996 19.867 7.25182 19.8858 7.2482 19.904C7.24458 19.9222 7.23565 19.9389 7.22254 19.952C7.20943 19.9651 7.19273 19.9741 7.17454 19.9777C7.15635 19.9813 7.1375 19.9795 7.12037 19.9724C7.10324 19.9653 7.0886 19.9532 7.0783 19.9378C7.068 19.9224 7.0625 19.9043 7.0625 19.8857C7.0625 19.8609 7.07238 19.837 7.08996 19.8195C7.10754 19.8019 7.13139 19.792 7.15625 19.792Z" fill="black"/><path d="M22.7284 12.8894H22.4571V11.4256C22.4571 11.3386 22.4225 11.2551 22.361 11.1936C22.2994 11.132 22.216 11.0975 22.1289 11.0975H21.4646C21.5501 10.7826 21.523 10.4478 21.3879 10.1509C21.2528 9.85393 21.0183 9.61349 20.7247 9.47109C20.744 9.3782 20.7536 9.28358 20.7534 9.18871C20.753 8.83985 20.6228 8.50363 20.3881 8.24554C20.1533 7.98746 19.8309 7.82599 19.4837 7.79259C19.3303 7.36859 19.0821 6.98521 18.7581 6.67165C18.4341 6.35809 18.0427 6.12263 17.6139 5.98321C17.5558 5.96668 17.4942 5.96653 17.436 5.98279C17.3777 5.99904 17.3251 6.03107 17.284 6.07533C17.2428 6.11959 17.2146 6.17437 17.2026 6.23362C17.1906 6.29287 17.1952 6.35428 17.2159 6.41109C17.3096 6.66871 17.139 7.17609 16.7576 7.7864H16.5163C16.3143 7.78648 16.1147 7.83018 15.9312 7.91452C15.7476 7.99886 15.5845 8.12184 15.4529 8.27506C15.3212 8.42828 15.2243 8.60812 15.1686 8.80227C15.1129 8.99643 15.0997 9.20033 15.1301 9.40002C14.7887 9.51131 14.503 9.74954 14.3323 10.0655C14.1615 10.3814 14.1186 10.7508 14.2125 11.0975H13.5488C13.4617 11.0975 13.3783 11.132 13.3167 11.1936C13.2552 11.2551 13.2206 11.3386 13.2206 11.4256V12.8894H12.9493C12.6106 12.8898 12.2859 13.0246 12.0465 13.2641C11.807 13.5036 11.6723 13.8283 11.6719 14.167V20.0414C11.6725 20.5814 11.8873 21.0992 12.2692 21.4811C12.6511 21.8629 13.1688 22.0778 13.7089 22.0784H21.9688C22.5089 22.0778 23.0266 21.8629 23.4085 21.4811C23.7903 21.0992 24.0052 20.5814 24.0058 20.0414V14.167C24.0055 13.8283 23.8708 13.5036 23.6313 13.2641C23.3918 13.0245 23.0671 12.8898 22.7284 12.8894ZM14.8204 10.7317C14.8212 10.5359 14.8987 10.3482 15.0362 10.209C15.1737 10.0697 15.3604 9.98981 15.5561 9.98653C15.6114 9.98579 15.6656 9.97108 15.7137 9.94378C15.7618 9.91648 15.8022 9.87746 15.8312 9.83036C15.8602 9.78325 15.8768 9.72959 15.8795 9.67435C15.8822 9.61911 15.8708 9.56409 15.8466 9.5144C15.7966 9.4131 15.7705 9.30167 15.7704 9.18871C15.7707 8.99095 15.8493 8.80136 15.9892 8.66151C16.129 8.52165 16.3186 8.44295 16.5163 8.44265H16.9365C16.9907 8.44266 17.044 8.42926 17.0917 8.40365C17.1395 8.37803 17.1801 8.34099 17.2101 8.29584C17.5319 7.85425 17.7587 7.35071 17.8761 6.81703C18.1334 6.96478 18.3583 7.16283 18.5375 7.39937C18.7166 7.63592 18.8463 7.90611 18.9188 8.19384C18.9366 8.26485 18.9776 8.32785 19.0354 8.37284C19.0931 8.41782 19.1643 8.4422 19.2375 8.44209H19.3517C19.5494 8.44239 19.739 8.52109 19.8788 8.66094C20.0187 8.8008 20.0973 8.99039 20.0976 9.18815C20.0972 9.2418 20.0909 9.29525 20.0788 9.34753H17.8389C17.7519 9.34753 17.6685 9.3821 17.6069 9.44363C17.5454 9.50517 17.5108 9.58863 17.5108 9.67565C17.5108 9.76267 17.5454 9.84613 17.6069 9.90767C17.6685 9.9692 17.7519 10.0038 17.8389 10.0038H20.2674C20.3818 10.0279 20.4888 10.0786 20.5799 10.1518C20.6709 10.225 20.7434 10.3186 20.7915 10.4251C20.8396 10.5316 20.8619 10.648 20.8566 10.7647C20.8513 10.8814 20.8185 10.9952 20.7609 11.0969H14.9164C14.8529 10.9857 14.8198 10.8597 14.8204 10.7317ZM13.8769 11.7537H21.8008V12.8894H13.8769V11.7537ZM23.3496 20.0412C23.3491 20.4073 23.2035 20.7582 22.9447 21.0171C22.6858 21.2759 22.3349 21.4215 21.9688 21.422H13.7089C13.3428 21.4215 12.9919 21.2759 12.733 21.0171C12.4742 20.7582 12.3286 20.4073 12.3281 20.0412V14.167C12.3283 14.0023 12.3938 13.8444 12.5102 13.7279C12.6267 13.6114 12.7846 13.5458 12.9493 13.5456H22.7284C22.8931 13.5458 23.051 13.6114 23.1675 13.7279C23.2839 13.8444 23.3494 14.0023 23.3496 14.167V20.0412Z" fill="black"/><path d="M21.8027 14.7646H13.875C13.8319 14.7646 13.7892 14.7731 13.7494 14.7896C13.7096 14.8061 13.6734 14.8302 13.6429 14.8607C13.6125 14.8912 13.5883 14.9274 13.5718 14.9672C13.5553 15.007 13.5469 15.0497 13.5469 15.0928V19.8753C13.5469 19.9184 13.5553 19.9611 13.5718 20.0009C13.5883 20.0408 13.6125 20.0769 13.6429 20.1074C13.6734 20.1379 13.7096 20.1621 13.7494 20.1785C13.7892 20.195 13.8319 20.2035 13.875 20.2035H21.8027C21.8458 20.2035 21.8885 20.195 21.9283 20.1785C21.9681 20.1621 22.0043 20.1379 22.0348 20.1074C22.0652 20.0769 22.0894 20.0408 22.1059 20.0009C22.1224 19.9611 22.1308 19.9184 22.1308 19.8753V15.0928C22.1308 15.0497 22.1224 15.007 22.1059 14.9672C22.0894 14.9274 22.0652 14.8912 22.0348 14.8607C22.0043 14.8302 21.9681 14.8061 21.9283 14.7896C21.8885 14.7731 21.8458 14.7646 21.8027 14.7646ZM21.4746 19.5472H14.2031V15.4209H21.4746V19.5472Z" fill="black"/></g><defs><clipPath id="clip0_1565_548"><rect width="24" height="24" fill="white"/></clipPath></defs></svg>