<svg xmlns="http://www.w3.org/2000/svg" width="26" height="26" viewBox="0 0 26 26" fill="none"><path d="M22.7005 13.147L20.2034 3.13539C20.0577 2.54863 19.7195 2.02765 19.2429 1.65563C18.7663 1.2836 18.1788 1.082 17.5742 1.08301H8.42436C7.81994 1.08266 7.23276 1.28451 6.75631 1.65643C6.27986 2.02835 5.9415 2.54896 5.79511 3.13539L3.29857 13.147C3.23866 13.3865 3.23411 13.6366 3.28528 13.8781C3.33645 14.1197 3.44198 14.3464 3.59388 14.541C3.74577 14.7357 3.94002 14.8932 4.16188 15.0015C4.38374 15.1099 4.62737 15.1662 4.87428 15.1663H7.58261V17.8747C7.58261 18.0183 7.63968 18.1561 7.74126 18.2577C7.84284 18.3593 7.98062 18.4163 8.12428 18.4163C8.26794 18.4163 8.40571 18.3593 8.5073 18.2577C8.60888 18.1561 8.66595 18.0183 8.66595 17.8747V15.1663H11.3743V21.1247H7.58261C6.86458 21.1255 6.17621 21.4112 5.66848 21.9189C5.16076 22.4266 4.87514 23.115 4.87428 23.833C4.87428 24.1203 4.98842 24.3959 5.19158 24.599C5.39475 24.8022 5.6703 24.9163 5.95761 24.9163H20.0409C20.3283 24.9163 20.6038 24.8022 20.807 24.599C21.0101 24.3959 21.1243 24.1203 21.1243 23.833C21.1234 23.115 20.8378 22.4266 20.3301 21.9189C19.8223 21.4112 19.134 21.1255 18.4159 21.1247H14.6243V15.1663H21.1243C21.3713 15.1665 21.6151 15.1103 21.8372 15.002C22.0593 14.8938 22.2537 14.7364 22.4058 14.5417C22.5579 14.347 22.6636 14.1202 22.7148 13.8785C22.7661 13.6368 22.7616 13.3867 22.7016 13.147H22.7005ZM18.4159 22.208C18.8469 22.208 19.2602 22.3792 19.565 22.684C19.8697 22.9887 20.0409 23.402 20.0409 23.833H5.95761C5.95761 23.402 6.12882 22.9887 6.43356 22.684C6.73831 22.3792 7.15164 22.208 7.58261 22.208H18.4159ZM13.5409 21.1247H12.4576V15.1663H13.5409V21.1247ZM21.5506 13.8745C21.5002 13.9395 21.4355 13.9921 21.3616 14.0282C21.2877 14.0644 21.2065 14.0831 21.1243 14.083H4.87428C4.7919 14.0831 4.71058 14.0644 4.63652 14.0283C4.56246 13.9922 4.49761 13.9397 4.44689 13.8748C4.39618 13.8099 4.36094 13.7342 4.34386 13.6537C4.32678 13.5731 4.3283 13.4896 4.34832 13.4097L6.84757 3.39755C6.93542 3.04586 7.13833 2.73364 7.42405 2.51055C7.70976 2.28745 8.06187 2.16629 8.42436 2.16635H17.5742C17.9366 2.16641 18.2886 2.28763 18.5742 2.51071C18.8598 2.7338 19.0626 3.04595 19.1504 3.39755L21.6497 13.4097C21.67 13.4896 21.6716 13.5731 21.6544 13.6537C21.6372 13.7343 21.6017 13.8098 21.5506 13.8745Z" fill="black"/></svg>