<svg xmlns="http://www.w3.org/2000/svg" width="27" height="27" viewBox="0 0 27 27" fill="none"><g clip-path="url(#clip0_1565_531)"><path d="M19.0349 10.8027L19.005 10.7954C19.0329 10.7201 19.045 10.6398 19.0404 10.5596V7.36507C19.0468 7.04863 18.7955 6.78684 18.479 6.78041C18.4745 6.78029 18.47 6.78029 18.4654 6.78029H8.49408C8.16832 6.7777 7.90193 7.03932 7.89869 7.36507V10.559C7.89474 10.6939 7.93806 10.8258 8.02112 10.9321L10.0209 15.2004V25.0051C10.0209 26.1057 10.9439 27.0001 12.0444 27.0001H14.9534C16.054 27.0001 16.977 26.1057 16.977 25.0051V20.6924H17.711C18.0366 20.6924 18.2738 20.4208 18.2738 20.0952V17.8492C18.2849 17.5424 18.0452 17.2847 17.7383 17.2736C17.7292 17.2733 17.7201 17.2732 17.711 17.2734H16.977V15.2004L19.0349 10.8027ZM9.07768 7.95929H17.8612V9.96358H9.07768V7.95929ZM15.798 25.0051C15.798 25.4556 15.4038 25.8211 14.9534 25.8211H12.0444C11.594 25.8211 11.1999 25.4556 11.1999 25.0051V24.1705H15.798V25.0051ZM17.0949 18.4523V19.5134H16.977V18.4523H17.0949ZM15.8403 14.8142C15.8077 14.8948 15.7932 14.9817 15.798 15.0686V22.9915H11.1999V15.0686C11.2046 14.9818 11.1901 14.895 11.1575 14.8143L9.44317 11.1426H17.5547L15.8403 14.8142Z" fill="black"/><path d="M13.4997 0C13.1741 0 12.9102 0.263918 12.9102 0.589498V4.46604C12.9102 4.79161 13.1741 5.05553 13.4997 5.05553C13.8252 5.05553 14.0892 4.79161 14.0892 4.46604V0.589498C14.0892 0.263918 13.8252 0 13.4997 0Z" fill="black"/><path d="M18.7749 0.538623C18.4582 0.463226 18.1403 0.658821 18.0649 0.975558L17.2623 4.34808C17.1869 4.66481 17.3825 4.98267 17.6992 5.05807C18.016 5.13346 18.3338 4.93781 18.4092 4.62107L19.2119 1.24855C19.2872 0.931817 19.0916 0.614019 18.7749 0.538623Z" fill="black"/><path d="M9.73534 4.34813L8.93268 0.975614C8.85728 0.658877 8.53942 0.463222 8.22268 0.538619C7.90595 0.614016 7.71029 0.931873 7.78569 1.24861L8.58835 4.62113C8.6516 4.88652 8.88852 5.07392 9.16134 5.07427C9.48733 5.07404 9.75143 4.80959 9.75119 4.4836C9.75113 4.43797 9.74583 4.39252 9.73534 4.34813Z" fill="black"/></g><defs><clipPath id="clip0_1565_531"><rect width="27" height="27" fill="white"/></clipPath></defs></svg>