<svg xmlns="http://www.w3.org/2000/svg" width="21" height="21" viewBox="0 0 21 21" fill="none"><g clip-path="url(#clip0_1565_544)"><path d="M16.4962 14.4497C16.2777 14.391 16.0532 14.5205 15.9946 14.7393C15.9359 14.9577 16.0655 15.1826 16.2842 15.2413C16.5028 15.2999 16.7277 15.17 16.7864 14.9516C16.8448 14.7328 16.7151 14.5083 16.4962 14.4497Z" fill="black"/><path d="M4.71525 15.2413C4.93411 15.1826 5.06357 14.9577 5.00493 14.7393C4.94629 14.5205 4.72182 14.391 4.50345 14.4497C4.28459 14.5081 4.15465 14.7328 4.21329 14.9516C4.27177 15.17 4.49688 15.2999 4.71525 15.2413Z" fill="black"/><path d="M20.5306 13.9357C20.8395 12.9191 20.9906 11.9633 20.9906 11.0241C20.9906 8.29941 19.8796 5.72504 17.8622 3.77504C15.896 1.87454 13.2596 0.779297 10.5 0.779297C4.84692 0.779297 0.00947952 5.3535 0.00947952 11.0241C0.00947952 11.9634 0.160564 12.9194 0.469623 13.9363C0.0943945 14.2326 -0.0879325 14.7353 0.0413627 15.2206L1.10232 19.1785C1.27664 19.8312 1.94747 20.2247 2.60788 20.0483L3.8635 19.7117C4.15125 20.1298 4.68029 20.3412 5.19491 20.2037L6.77833 19.7791C7.43298 19.6037 7.82295 18.9282 7.64751 18.2737L6.16278 12.7321C5.98718 12.0773 5.31139 11.6874 4.6569 11.863L3.07395 12.2871C2.90717 12.3318 2.75768 12.409 2.63031 12.5099C2.5486 12.1284 2.49765 11.75 2.47795 11.3765C2.9328 11.2335 3.27246 10.8365 3.32069 10.3427C3.65875 6.87716 6.87943 4.05766 10.5 4.05766C14.1206 4.05766 17.3413 6.87716 17.6793 10.3427C17.7274 10.8365 18.0672 11.2335 18.5221 11.3765C18.5024 11.75 18.4514 12.1284 18.3697 12.5099C18.2422 12.409 18.0929 12.3318 17.9261 12.2871L16.3431 11.863C15.6882 11.6875 15.0127 12.0773 14.8373 12.7321L13.3525 18.2737C13.1771 18.9284 13.5671 19.6037 14.2217 19.7791L15.8055 20.2037C16.318 20.3407 16.8477 20.1315 17.1365 19.7117L18.3925 20.0485C19.0551 20.2253 19.7242 19.8282 19.8976 19.1788L20.9587 15.2202C21.0881 14.7347 20.905 14.2313 20.5306 13.9357ZM3.28592 13.0787L4.86903 12.6544C5.0874 12.5958 5.31251 12.7259 5.37115 12.9441L6.85572 18.4857C6.9142 18.7039 6.78426 18.9289 6.56605 18.9875L6.17015 19.0936L5.42802 16.3226C5.36954 16.1041 5.14492 15.9743 4.92622 16.0328C4.70753 16.0914 4.57775 16.316 4.63639 16.5347L5.37868 19.3059L4.98294 19.4119C4.76489 19.4702 4.53962 19.3401 4.48098 19.1219C4.48098 19.1218 4.48098 19.1216 4.48098 19.1216L2.99593 13.5803C2.93745 13.3623 3.06754 13.1372 3.28592 13.0787ZM3.58328 18.9382L2.39607 19.2565C2.1777 19.3148 1.95275 19.1862 1.89395 18.9665L0.833156 15.0088C0.778041 14.8018 0.892436 14.5854 1.09703 14.5147C1.10649 14.5114 1.11642 14.5085 1.12315 14.5067L2.2937 14.1928C2.41322 14.4912 2.195 13.8074 3.58328 18.9382ZM0.839885 11.4337H1.6602C1.69593 12.0868 1.81657 12.7512 2.02037 13.4176L1.23274 13.6289C1.00555 12.8645 0.876094 12.1403 0.839885 11.4337ZM18.495 10.2629C18.1076 6.29269 14.504 3.23799 10.5 3.23799C6.49379 3.23799 2.89211 6.29445 2.50486 10.263C2.48564 10.4599 2.30924 10.6142 2.10288 10.6142H0.839084C1.06819 5.68643 5.39854 1.59881 10.5 1.59881C15.6013 1.59881 19.9318 5.68643 20.1608 10.6142H18.8968C18.6908 10.6142 18.5142 10.4599 18.495 10.2629ZM20.16 11.4337C20.1238 12.1403 19.9943 12.8645 19.7673 13.6289L18.9795 13.4177C19.1833 12.751 19.304 12.0868 19.3397 11.4337H20.16ZM16.5191 19.1218C16.5191 19.1218 16.5191 19.1218 16.5189 19.1218C16.4604 19.34 16.2352 19.4701 16.0174 19.4119L15.6214 19.3057L16.3636 16.5347C16.4223 16.316 16.2925 16.0914 16.0738 16.0328C15.8553 15.9743 15.6305 16.1041 15.572 16.3226L14.8297 19.0936L14.434 18.9873C14.2158 18.9289 14.0857 18.7038 14.1442 18.4857L15.6289 12.9441C15.6779 12.7613 15.8439 12.6403 16.0249 12.6403C16.0599 12.6403 16.0956 12.645 16.131 12.6544L17.714 13.0785C17.9323 13.137 18.0626 13.3621 18.0041 13.5802L16.5191 19.1218ZM20.1669 15.0083L19.1059 18.9668C19.0473 19.1863 18.8219 19.3148 18.6043 19.2567L17.4168 18.9382C18.8055 13.8054 18.5867 14.4915 18.7062 14.1928C19.9532 14.5274 19.8804 14.5067 19.906 14.5158C20.1074 14.5854 20.222 14.802 20.1669 15.0083Z" fill="black"/></g><defs><clipPath id="clip0_1565_544"><rect width="21" height="21" fill="white"/></clipPath></defs></svg>