<svg xmlns="http://www.w3.org/2000/svg" width="20" height="24" viewBox="0 0 20 24" fill="none"><path d="M18.9873 8.36318C18.3429 3.14006 13.5863 -0.571731 8.36318 0.0726933C3.14006 0.717117 -0.571731 5.4737 0.0726933 10.6968C0.607874 15.0346 4.02544 18.4521 8.36318 18.9873V20.8114H5.64061C4.99618 20.8114 4.47379 21.3338 4.47379 21.9783V23.1451H14.5862V21.9783C14.5862 21.3338 14.0638 20.8114 13.4194 20.8114H10.6968V18.9873C15.9199 18.3429 19.6317 13.5863 18.9873 8.36318ZM13.4194 21.5893C13.6342 21.5893 13.8083 21.7635 13.8083 21.9783V22.3672H5.25167V21.9783C5.25167 21.7635 5.42581 21.5893 5.64061 21.5893H13.4194ZM9.14106 20.8114V19.2557H9.91894V20.8114H9.14106ZM9.53 18.2833C4.69689 18.2833 0.778862 14.3653 0.778862 9.53219C0.784453 4.70136 4.69918 0.78664 9.53 0.781049C14.3631 0.781049 18.2811 4.69908 18.2811 9.53219C18.2811 14.3653 14.3631 18.2833 9.53 18.2833Z" fill="black"/><path d="M17.7026 10.3108V9.53297C17.7026 9.31817 17.5285 9.14403 17.3137 9.14403H12.7662C14.7012 7.79091 15.1729 5.12541 13.8198 3.19043C13.0192 2.04559 11.7098 1.36412 10.3128 1.36524H9.53492C9.32013 1.36524 9.14598 1.53938 9.14598 1.75418V6.30166C7.79286 4.36668 5.12736 3.895 3.19238 5.24812C2.04754 6.0487 1.36607 7.35811 1.36719 8.75509V9.53297C1.36719 9.74776 1.54134 9.9219 1.75613 9.9219H6.30361C5.1628 10.723 4.48225 12.0284 4.47871 13.4224C4.48148 15.784 6.39535 17.6979 8.75704 17.7007H9.53492C9.74971 17.7007 9.92386 17.5265 9.92386 17.3118V12.7643C11.277 14.6992 13.9425 15.1709 15.8775 13.8178C17.0222 13.0173 17.7038 11.7079 17.7026 10.3108ZM9.92386 2.14311H10.3128C12.246 2.14579 13.8111 3.71521 13.8084 5.64843C13.8063 7.16384 12.8293 8.50578 11.3878 8.97328C11.1835 8.29011 10.6217 7.77355 9.92386 7.62716V2.14311ZM2.14507 9.14403V8.75509C2.14862 6.82186 3.71872 5.25755 5.65199 5.2611C7.16633 5.26387 8.50715 6.24015 8.97485 7.68045C8.29192 7.88479 7.77555 8.44641 7.62911 9.14403H2.14507ZM9.14598 16.9228H8.75704C6.82382 16.9201 5.25877 15.3507 5.26145 13.4175C5.26354 11.9021 6.2405 10.5602 7.68201 10.0926C7.8863 10.7758 8.44812 11.2924 9.14598 11.4388V16.9228ZM9.53492 10.6998C8.89049 10.6998 8.3681 10.1774 8.3681 9.53297C8.3681 8.88854 8.89049 8.36615 9.53492 8.36615C10.1793 8.36615 10.7017 8.88854 10.7017 9.53297C10.7017 10.1774 10.1793 10.6998 9.53492 10.6998ZM13.4178 13.8048C11.9035 13.8021 10.5627 12.8258 10.095 11.3855C10.7779 11.1811 11.2943 10.6195 11.4407 9.9219H16.9248V10.3108C16.9212 12.2441 15.3511 13.8084 13.4178 13.8048Z" fill="black"/></svg>