<svg xmlns="http://www.w3.org/2000/svg" width="24" height="24" viewBox="0 0 24 24" fill="none"><g clip-path="url(#clip0_1565_501)"><path d="M17.3333 2.41668C17.3132 1.07997 16.2199 0 14.8766 0H9.12328C7.77995 0 6.68662 1.07997 6.66664 2.41668L6.35997 5.26003C5.55666 5.66667 5 6.49671 5 7.45672V16.5433C5 17.51 5.56 18.3433 6.37333 18.7434L6.66669 21.5367C6.68668 22.9 7.78001 24 9.12334 24H14.8767C16.22 24 17.3133 22.8966 17.3333 21.5367L17.6267 18.7467C18.44 18.3467 19 17.51 19 16.5467V7.45666C19 6.49665 18.4434 5.66667 17.64 5.25998L17.3333 2.41668ZM7.9966 2.52667L7.99994 2.4567C7.99994 1.83669 8.50328 1.33336 9.12328 1.33336H14.8766C15.4966 1.33336 16 1.83669 16 2.4567L16.2699 5.00002H7.72991L7.9966 2.52667ZM16.0033 21.4267L15.9999 21.4967C15.9999 22.14 15.4966 22.6667 14.8766 22.6667H9.12328C8.50328 22.6667 7.99994 22.1434 7.99994 21.4967L7.73993 19H16.2599L16.0033 21.4267ZM17.6666 16.5433C17.6666 17.1633 17.1633 17.6667 16.5433 17.6667H7.45659C6.83658 17.6667 6.33325 17.1633 6.33325 16.5433V7.45666C6.33325 6.83666 6.83658 6.33333 7.45659 6.33333H16.5433C17.1633 6.33333 17.6666 6.83666 17.6666 7.45666V16.5433Z" fill="black"/><path d="M13.6766 12.7636L12.3333 11.957V9.33365C12.3333 8.96698 12.0333 8.66699 11.6667 8.66699C11.3 8.66699 11 8.96698 11 9.33365V12.3336C11 12.567 11.1234 12.7836 11.3233 12.9037L12.99 13.9036C13.0967 13.9703 13.2167 14.0003 13.3333 14.0003C13.56 14.0003 13.78 13.8837 13.9067 13.677C14.0933 13.3602 13.9933 12.9503 13.6766 12.7636Z" fill="black"/></g><defs><clipPath id="clip0_1565_501"><rect width="24" height="24" fill="white"/></clipPath></defs></svg>