<svg xmlns="http://www.w3.org/2000/svg" width="21" height="23" viewBox="0 0 21 23" fill="none"><path d="M0.932 23C0.80107 23.0001 0.675454 22.9482 0.582738 22.8558C0.490022 22.7633 0.437786 22.6379 0.4375 22.5069V0.493062C0.437881 0.362162 0.490148 0.236753 0.582843 0.144327C0.675539 0.051901 0.801099 -5.53087e-07 0.932 0L20.068 0C20.1989 -5.53087e-07 20.3245 0.051901 20.4172 0.144327C20.5099 0.236753 20.5621 0.362162 20.5625 0.493062V22.5069C20.5622 22.6379 20.51 22.7633 20.4173 22.8558C20.3245 22.9482 20.1989 23.0001 20.068 23H0.932ZM1.668 5.39062C1.63633 5.39058 1.60497 5.39677 1.57569 5.40884C1.54642 5.42092 1.51981 5.43864 1.49738 5.461C1.47496 5.48336 1.45716 5.50991 1.44499 5.53915C1.43283 5.56839 1.42655 5.59974 1.4265 5.63141V21.7731C1.4265 21.8048 1.43275 21.8362 1.44489 21.8655C1.45703 21.8947 1.47483 21.9213 1.49726 21.9437C1.51969 21.9661 1.54631 21.9839 1.57561 21.996C1.60491 22.0081 1.6363 22.0143 1.668 22.0142H19.332C19.3637 22.0143 19.3951 22.0081 19.4244 21.996C19.4537 21.9839 19.4803 21.9661 19.5027 21.9437C19.5252 21.9213 19.543 21.8947 19.5551 21.8655C19.5673 21.8362 19.5735 21.8048 19.5735 21.7731V5.62961C19.5735 5.59794 19.5672 5.56659 19.555 5.53736C19.5428 5.50812 19.525 5.48156 19.5026 5.4592C19.4802 5.43684 19.4536 5.41912 19.4243 5.40705C19.395 5.39497 19.3637 5.38878 19.332 5.38883L1.668 5.39062ZM9.02656 0.986125C8.99488 0.98603 8.9635 0.992189 8.9342 1.00425C8.9049 1.0163 8.87827 1.03403 8.85584 1.05639C8.83341 1.07876 8.81561 1.10534 8.80346 1.1346C8.79131 1.16386 8.78506 1.19523 8.78506 1.22691V4.16192C8.78511 4.19359 8.79139 4.22494 8.80356 4.25418C8.81572 4.28341 8.83352 4.30997 8.85594 4.33233C8.87837 4.35469 8.90498 4.37241 8.93425 4.38448C8.96353 4.39656 8.99489 4.40275 9.02656 4.4027H19.332C19.3637 4.40275 19.395 4.39656 19.4243 4.38448C19.4536 4.37241 19.4802 4.35469 19.5026 4.33233C19.525 4.30997 19.5428 4.28341 19.555 4.25418C19.5672 4.22494 19.5735 4.19359 19.5735 4.16192V1.22691C19.5735 1.19523 19.5672 1.16386 19.5551 1.1346C19.543 1.10534 19.5252 1.07876 19.5027 1.05639C19.4803 1.03403 19.4537 1.0163 19.4244 1.00425C19.3951 0.992189 19.3637 0.98603 19.332 0.986125H9.02656ZM1.66656 0.986125C1.63488 0.98603 1.60349 0.992189 1.5742 1.00425C1.5449 1.0163 1.51827 1.03403 1.49584 1.05639C1.4734 1.07876 1.4556 1.10534 1.44346 1.1346C1.43131 1.16386 1.42506 1.19523 1.42506 1.22691V4.16192C1.42511 4.19359 1.43139 4.22494 1.44356 4.25418C1.45572 4.28341 1.47352 4.30997 1.49594 4.33233C1.51837 4.35469 1.54498 4.37241 1.57425 4.38448C1.60353 4.39656 1.6349 4.40275 1.66656 4.4027H7.556C7.58767 4.40275 7.61903 4.39656 7.64831 4.38448C7.67758 4.37241 7.70419 4.35469 7.72662 4.33233C7.74904 4.30997 7.76684 4.28341 7.77901 4.25418C7.79117 4.22494 7.79745 4.19359 7.7975 4.16192V1.22691C7.7975 1.19523 7.79125 1.16386 7.7791 1.1346C7.76696 1.10534 7.74916 1.07876 7.72672 1.05639C7.70429 1.03403 7.67766 1.0163 7.64836 1.00425C7.61907 0.992189 7.58768 0.98603 7.556 0.986125H1.66656Z" fill="black"/><path d="M10.5019 20.7981C9.09906 20.7939 7.72895 20.3741 6.56459 19.5917C5.40023 18.8092 4.49385 17.6993 3.95993 16.4021C3.42602 15.1048 3.28851 13.6784 3.56478 12.3031C3.84105 10.9277 4.5187 9.6651 5.51215 8.67466C6.5056 7.68422 7.77028 7.0104 9.14647 6.7383C10.5226 6.46621 11.9486 6.60804 13.2442 7.14589C14.5398 7.68374 15.647 8.59348 16.4259 9.76021C17.2048 10.9269 17.6204 12.2983 17.6204 13.7011C17.6154 15.5856 16.8632 17.3911 15.5286 18.7216C14.1941 20.0521 12.3863 20.7988 10.5019 20.7981ZM10.5019 7.58961C9.2939 7.59316 8.11407 7.95462 7.1114 8.62831C6.10873 9.30201 5.3282 10.2577 4.86839 11.3748C4.40857 12.4918 4.29011 13.7201 4.52795 14.9044C4.76579 16.0888 5.34927 17.176 6.20469 18.029C7.06011 18.8819 8.14911 19.4622 9.33414 19.6965C10.5192 19.9309 11.7471 19.8088 12.8628 19.3457C13.9784 18.8826 14.9319 18.0993 15.6026 17.0947C16.2734 16.09 16.6314 14.9091 16.6314 13.7011C16.6272 12.0784 15.9795 10.5237 14.8304 9.37791C13.6813 8.23217 12.1246 7.58904 10.5019 7.58961Z" fill="black"/><path d="M10.4998 17.8636C9.92438 17.8648 9.35498 17.7464 8.82764 17.5161C8.76593 17.4918 8.70975 17.4553 8.66247 17.4088C8.61519 17.3622 8.57778 17.3067 8.55247 17.2453C8.52717 17.184 8.51448 17.1182 8.51518 17.0519C8.51587 16.9856 8.52994 16.9201 8.55653 16.8593C8.58312 16.7985 8.62169 16.7437 8.66993 16.6982C8.71818 16.6527 8.77511 16.6174 8.83732 16.5943C8.89953 16.5713 8.96574 16.5611 9.032 16.5642C9.09826 16.5674 9.16321 16.5838 9.22295 16.6127C9.90044 16.9064 10.6592 16.9545 11.3683 16.7487C12.0775 16.5428 12.6926 16.096 13.1075 15.4852C13.5225 14.8743 13.7112 14.1379 13.6413 13.4028C13.5713 12.6677 13.247 11.98 12.7243 11.4585C12.2016 10.9369 11.5132 10.6141 10.778 10.5457C10.0427 10.4774 9.30665 10.6677 8.69674 11.084C8.08684 11.5003 7.64132 12.1163 7.43704 12.8259C7.23275 13.5356 7.28251 14.2942 7.57773 14.971C7.62946 15.0908 7.63157 15.2261 7.58359 15.3474C7.53562 15.4687 7.44149 15.566 7.32186 15.6179C7.26007 15.6458 7.19307 15.6602 7.12528 15.6603C7.02879 15.6602 6.93441 15.6321 6.85368 15.5792C6.77294 15.5264 6.70935 15.4512 6.67067 15.3628C6.44113 14.8385 6.32315 14.2722 6.32423 13.6999C6.3221 12.8739 6.56509 12.0658 7.02244 11.3779C7.47979 10.69 8.13095 10.1533 8.89349 9.83562C9.65602 9.51798 10.4957 9.43371 11.3061 9.59347C12.1166 9.75324 12.8614 10.1499 13.4463 10.7331C14.0313 11.3164 14.43 12.0601 14.5921 12.8701C14.7542 13.6801 14.6723 14.52 14.3568 15.2834C14.0413 16.0469 13.5064 16.6995 12.8199 17.1588C12.1333 17.6181 11.3259 17.8634 10.4998 17.8636Z" fill="black"/><path d="M3.87747 3.18712C3.81162 3.1889 3.74609 3.17746 3.68473 3.15349C3.62338 3.12952 3.56745 3.0935 3.52025 3.04756C3.47304 3.00161 3.43553 2.94668 3.40991 2.88599C3.38429 2.82531 3.37109 2.7601 3.37109 2.69423C3.37109 2.62836 3.38429 2.56316 3.40991 2.50248C3.43553 2.44179 3.47304 2.38686 3.52025 2.34091C3.56745 2.29497 3.62338 2.25895 3.68473 2.23498C3.74609 2.21101 3.81162 2.19957 3.87747 2.20135H5.3509C5.41675 2.19957 5.48228 2.21101 5.54364 2.23498C5.60499 2.25895 5.66092 2.29497 5.70812 2.34091C5.75533 2.38686 5.79284 2.44179 5.81846 2.50248C5.84408 2.56316 5.85728 2.62836 5.85728 2.69423C5.85728 2.7601 5.84408 2.82531 5.81846 2.88599C5.79284 2.94668 5.75533 3.00161 5.70812 3.04756C5.66092 3.0935 5.60499 3.12952 5.54364 3.15349C5.48228 3.17746 5.41675 3.1889 5.3509 3.18712H3.87747Z" fill="black"/><path d="M10.613 3.29524C10.945 3.29524 11.2142 3.02606 11.2142 2.69401C11.2142 2.36196 10.945 2.09277 10.613 2.09277C10.2809 2.09277 10.0117 2.36196 10.0117 2.69401C10.0117 3.02606 10.2809 3.29524 10.613 3.29524Z" fill="black"/><path d="M12.7028 3.29524C13.0348 3.29524 13.304 3.02606 13.304 2.69401C13.304 2.36196 13.0348 2.09277 12.7028 2.09277C12.3707 2.09277 12.1016 2.36196 12.1016 2.69401C12.1016 3.02606 12.3707 3.29524 12.7028 3.29524Z" fill="black"/><path d="M14.7965 3.29524C15.1286 3.29524 15.3978 3.02606 15.3978 2.69401C15.3978 2.36196 15.1286 2.09277 14.7965 2.09277C14.4645 2.09277 14.1953 2.36196 14.1953 2.69401C14.1953 3.02606 14.4645 3.29524 14.7965 3.29524Z" fill="black"/><path d="M10.613 3.29524C10.945 3.29524 11.2142 3.02606 11.2142 2.69401C11.2142 2.36196 10.945 2.09277 10.613 2.09277C10.2809 2.09277 10.0117 2.36196 10.0117 2.69401C10.0117 3.02606 10.2809 3.29524 10.613 3.29524Z" fill="black"/><path d="M12.7028 3.29524C13.0348 3.29524 13.304 3.02606 13.304 2.69401C13.304 2.36196 13.0348 2.09277 12.7028 2.09277C12.3707 2.09277 12.1016 2.36196 12.1016 2.69401C12.1016 3.02606 12.3707 3.29524 12.7028 3.29524Z" fill="black"/><path d="M14.7965 3.29524C15.1286 3.29524 15.3978 3.02606 15.3978 2.69401C15.3978 2.36196 15.1286 2.09277 14.7965 2.09277C14.4645 2.09277 14.1953 2.36196 14.1953 2.69401C14.1953 3.02606 14.4645 3.29524 14.7965 3.29524Z" fill="black"/></svg>