<svg xmlns="http://www.w3.org/2000/svg" width="22" height="22" viewBox="0 0 22 22" fill="none"><path d="M18.8018 4.8125H15.8496L15.5059 3.78125C15.3402 3.28052 15.0207 2.84483 14.593 2.53623C14.1653 2.22763 13.6511 2.06185 13.1237 2.0625H8.87631C8.34903 2.0621 7.83504 2.22799 7.40748 2.53656C6.97991 2.84514 6.66055 3.28069 6.49481 3.78125L6.15037 4.8125H3.19825C2.53258 4.81323 1.89438 5.07799 1.42369 5.54869C0.952986 6.01939 0.688228 6.65758 0.6875 7.32325V17.4295C0.688955 18.0947 0.954035 18.7322 1.42466 19.2023C1.89528 19.6724 2.53306 19.9368 3.19825 19.9375H18.8045C19.4697 19.936 20.1072 19.671 20.5773 19.2003C21.0474 18.7297 21.3118 18.0919 21.3125 17.4268V7.3205C21.311 6.65531 21.046 6.01782 20.5753 5.54771C20.1047 5.07761 19.4669 4.81323 18.8018 4.8125ZM19.9375 17.4268C19.9371 17.7279 19.8174 18.0165 19.6044 18.2294C19.3915 18.4424 19.1029 18.5621 18.8018 18.5625H3.19825C2.89714 18.5621 2.60847 18.4424 2.39556 18.2294C2.18264 18.0165 2.06286 17.7279 2.0625 17.4268V7.3205C2.06359 7.01987 2.18369 6.7319 2.39652 6.51958C2.60936 6.30726 2.89762 6.18786 3.19825 6.1875H6.64606C6.7903 6.18739 6.93084 6.14192 7.04781 6.05753C7.16477 5.97314 7.25223 5.85409 7.29781 5.71725L7.799 4.21369C7.87426 3.98754 8.01884 3.79083 8.21223 3.6515C8.40561 3.51217 8.63797 3.4373 8.87631 3.4375H13.1237C13.3621 3.43724 13.5946 3.51218 13.788 3.65165C13.9814 3.79113 14.1259 3.98804 14.201 4.21438L14.7022 5.71725C14.7478 5.85409 14.8352 5.97314 14.9522 6.05753C15.0692 6.14192 15.2097 6.18739 15.3539 6.1875H18.8018C19.1029 6.18787 19.3915 6.30764 19.6044 6.52056C19.8174 6.73347 19.9371 7.02214 19.9375 7.32325V17.4268Z" fill="black"/><path d="M11 6.875C9.98019 6.875 8.98328 7.17741 8.13534 7.74398C7.2874 8.31056 6.62651 9.11586 6.23625 10.058C5.84598 11.0002 5.74387 12.037 5.94283 13.0372C6.14178 14.0374 6.63287 14.9562 7.35398 15.6773C8.0751 16.3984 8.99385 16.8895 9.99407 17.0884C10.9943 17.2874 12.031 17.1853 12.9732 16.795C13.9154 16.4047 14.7207 15.7439 15.2873 14.8959C15.8538 14.048 16.1563 13.0511 16.1563 12.0313C16.1548 10.6642 15.6111 9.35351 14.6444 8.38684C13.6777 7.42017 12.3671 6.87646 11 6.875ZM11 15.8125C10.2521 15.8125 9.52108 15.5907 8.89925 15.1752C8.27743 14.7598 7.79278 14.1692 7.50658 13.4783C7.22039 12.7873 7.14551 12.0271 7.29141 11.2936C7.43731 10.5601 7.79744 9.88632 8.32625 9.3575C8.85507 8.82869 9.52883 8.46856 10.2623 8.32266C10.9958 8.17676 11.7561 8.25164 12.447 8.53783C13.138 8.82402 13.7285 9.30868 14.144 9.9305C14.5595 10.5523 14.7813 11.2834 14.7813 12.0313C14.7802 13.0338 14.3814 13.9949 13.6725 14.7038C12.9637 15.4127 12.0025 15.8114 11 15.8125Z" fill="black"/><path d="M17.875 8.9375C18.2547 8.9375 18.5625 8.6297 18.5625 8.25C18.5625 7.8703 18.2547 7.5625 17.875 7.5625C17.4953 7.5625 17.1875 7.8703 17.1875 8.25C17.1875 8.6297 17.4953 8.9375 17.875 8.9375Z" fill="black"/></svg>