<svg width="32" height="31" viewBox="0 0 32 31" fill="none" xmlns="http://www.w3.org/2000/svg">
<path d="M2.875 16.4688H29.125C29.6427 16.4688 30.0625 16.0621 30.0625 15.5605V0.908203C30.0625 0.406633 29.6427 0 29.125 0H2.875C2.35725 0 1.9375 0.406633 1.9375 0.908203V15.5605C1.9375 16.0621 2.35725 16.4688 2.875 16.4688ZM3.8125 1.81641H28.1875V14.6523H3.8125V1.81641Z" fill="#FF9923"/>
<path d="M31.7945 22.2876C30.1798 20.3326 27.2241 20.0147 25.2059 21.5787C24.3088 22.2739 23.6755 22.7424 23.1948 23.0591C22.5269 21.3393 20.802 20.1219 18.8125 20.1219C17.2094 20.1219 15.0493 20.0503 12.5534 19.491C10.1184 18.9497 8.76556 19.0776 6.42156 20.1016H0.9375C0.41975 20.1016 0 20.5082 0 21.0098V30.0918C0 30.5934 0.41975 31 0.9375 31H6.625C7.14275 31 7.5625 30.5934 7.5625 30.0918V29.2072C9.04806 28.8075 10.3253 28.7666 11.6314 29.0682C13.6721 29.5393 15.5836 29.7741 17.4038 29.7741C23.1097 29.7741 27.8594 27.4307 31.7414 23.4813C32.0648 23.1524 32.0875 22.6424 31.7945 22.2876ZM1.875 29.1837V21.9181H5.6875V29.1837H1.875ZM12.0661 27.3013C10.5868 26.9597 9.15831 26.966 7.5625 27.3321V21.5992C9.29413 20.8814 10.2191 20.8357 12.1325 21.2611C14.8116 21.8614 17.1097 21.9384 18.8125 21.9384C20.0188 21.9384 21.0621 22.6833 21.4516 23.7301C21.4166 23.7318 14.125 23.7345 14.125 23.7345C13.6073 23.7345 13.1875 24.1411 13.1875 24.6427C13.1875 25.1442 13.6073 25.5509 14.125 25.5509C14.125 25.5509 21.3816 25.5507 21.3922 25.5504C22.9835 25.4984 23.8086 24.9876 26.3771 22.9972C27.3655 22.2313 28.7286 22.2175 29.7229 22.8761C23.2474 28.9816 16.5769 28.3427 12.0661 27.3013Z" fill="#FF9923"/>
<path d="M8.5 5.44922C9.01775 5.44922 9.4375 5.04259 9.4375 4.54102C9.4375 4.03945 9.01775 3.63281 8.5 3.63281H6.625C6.10725 3.63281 5.6875 4.03945 5.6875 4.54102V11.9277C5.6875 12.4293 6.10725 12.8359 6.625 12.8359H8.5C9.01775 12.8359 9.4375 12.4293 9.4375 11.9277C9.4375 11.4262 9.01775 11.0195 8.5 11.0195H7.5625V5.44922H8.5Z" fill="#FF9923"/>
<path d="M25.375 3.63281H23.5C22.9822 3.63281 22.5625 4.03945 22.5625 4.54102C22.5625 5.04259 22.9822 5.44922 23.5 5.44922H24.4375V11.0195H23.5C22.9822 11.0195 22.5625 11.4262 22.5625 11.9277C22.5625 12.4293 22.9822 12.8359 23.5 12.8359H25.375C25.8928 12.8359 26.3125 12.4293 26.3125 11.9277V4.54102C26.3125 4.03945 25.8928 3.63281 25.375 3.63281Z" fill="#FF9923"/>
<path d="M16 3.63281C13.409 3.63281 11.3125 5.72368 11.3125 8.23438C11.3125 10.7445 13.4084 12.8359 16 12.8359C18.591 12.8359 20.6875 10.7451 20.6875 8.23438C20.6875 5.72422 18.5916 3.63281 16 3.63281ZM16 11.0195C14.4754 11.0195 13.1875 9.74411 13.1875 8.23438C13.1875 6.72464 14.4754 5.44922 16 5.44922C17.5246 5.44922 18.8125 6.72464 18.8125 8.23438C18.8125 9.74411 17.5246 11.0195 16 11.0195Z" fill="#FF9923"/>
</svg>
