<svg width="22" height="29" viewBox="0 0 22 29" fill="none" xmlns="http://www.w3.org/2000/svg">
<path d="M18.7619 12.3328V7.7403C18.7746 5.66229 17.916 3.66419 16.3833 2.20712C14.9014 0.780793 12.9616 0 10.9074 0C10.8756 0 10.8374 0 10.8056 0C6.42357 0.00614798 2.86199 3.47361 2.86199 7.7403V12.3328C1.2084 12.5234 0 13.8637 0 15.4867V25.8031C0 27.5552 1.45007 29 3.26267 29H18.3676C20.1802 29 21.6303 27.5552 21.6303 25.8031V15.4867C21.6239 13.8698 20.4155 12.5234 18.7619 12.3328ZM4.12762 7.7403H4.13398C4.13398 4.14988 7.12953 1.21115 10.812 1.21115H10.8183C12.5673 1.205 14.2463 1.87513 15.4865 3.06784C16.7776 4.30358 17.4963 5.98813 17.4836 7.7403V12.339H16.0844V7.7403C16.0971 6.34471 15.5247 5.00445 14.5007 4.02078C13.534 3.08628 12.2239 2.55756 10.8565 2.55756H10.8183C7.89273 2.55756 5.52682 4.88149 5.52682 7.73415V12.339H4.12762V7.7403ZM14.8187 7.7403V12.339H6.80517V7.7403C6.80517 5.56392 8.59869 3.7933 10.8247 3.7933H10.8628C11.8932 3.7933 12.8853 4.19292 13.6167 4.89994C14.3926 5.64999 14.8315 6.6767 14.8187 7.7403ZM20.4155 25.8215C20.4155 26.8974 19.5124 27.7704 18.3994 27.7704H3.28811C2.17511 27.7704 1.27199 26.8974 1.27199 25.8215V15.5175C1.27199 14.4416 2.17511 13.5686 3.28811 13.5686H18.3994C19.5124 13.5686 20.4155 14.4416 20.4155 15.5175V25.8215Z" fill="#FF9923"/>
<path d="M13.0121 20.2882C12.7323 19.3353 11.8355 18.6836 10.8116 18.6836C9.54594 18.6836 8.51562 19.6734 8.51562 20.903C8.51562 21.8928 9.18978 22.7597 10.1756 23.0302V24.7516C10.1756 25.0898 10.4618 25.3664 10.8116 25.3664C11.1614 25.3664 11.4476 25.0898 11.4476 24.7516V23.0302C12.6623 22.6921 13.3683 21.4625 13.0121 20.2882ZM10.8116 21.8867C10.2455 21.8867 9.78762 21.444 9.78762 20.8969C9.78762 20.3497 10.2455 19.907 10.8116 19.907C11.3776 19.907 11.8355 20.3497 11.8355 20.8969C11.8355 21.444 11.3776 21.8867 10.8116 21.8867Z" fill="#FF9923"/>
</svg>
