<svg width="40" height="36" viewBox="0 0 40 36" fill="none" xmlns="http://www.w3.org/2000/svg">
<g clip-path="url(#clip0_697_410)">
<path d="M30.3248 21.4033C27.6127 21.4033 25.4062 23.4389 25.4062 25.9411C25.4062 28.4434 27.6127 30.479 30.3248 30.479C33.0374 30.479 35.2434 28.4434 35.2434 25.9411C35.2434 23.4389 33.037 21.4033 30.3248 21.4033ZM30.3248 28.2101C28.9686 28.2101 27.8655 27.1924 27.8655 25.9411C27.8655 24.6899 28.9686 23.6722 30.3248 23.6722C31.6811 23.6722 32.7841 24.6899 32.7841 25.9411C32.7841 27.1925 31.6811 28.2101 30.3248 28.2101Z" fill="#FF9923"/>
<path d="M13.5201 21.4033C10.808 21.4033 8.60156 23.4389 8.60156 25.9411C8.60156 28.4434 10.808 30.479 13.5201 30.479C16.2323 30.479 18.4387 28.4434 18.4387 25.9411C18.4387 23.4389 16.2323 21.4033 13.5201 21.4033ZM13.5201 28.2101C12.1639 28.2101 11.0608 27.1924 11.0608 25.9411C11.0608 24.6899 12.1639 23.6722 13.5201 23.6722C14.876 23.6722 15.9794 24.6899 15.9794 25.9411C15.9794 27.1925 14.8764 28.2101 13.5201 28.2101Z" fill="#FF9923"/>
<path d="M33.6375 8.41477C33.4285 8.0317 33.0034 7.79004 32.5386 7.79004H26.0625V10.059H31.7803L35.1286 16.2031L37.3264 15.1836L33.6375 8.41477Z" fill="#FF9923"/>
<path d="M26.6363 24.8447H17.332V27.1136H26.6363V24.8447Z" fill="#FF9923"/>
<path d="M9.83214 24.8447H5.56945C4.89025 24.8447 4.33984 25.3526 4.33984 25.9791C4.33984 26.6058 4.89032 27.1136 5.56945 27.1136H9.83222C10.5114 27.1136 11.0618 26.6057 11.0618 25.9791C11.0618 25.3525 10.5113 24.8447 9.83214 24.8447Z" fill="#FF9923"/>
<path d="M39.6182 17.9092L37.1995 15.0353C36.9671 14.7584 36.6085 14.5966 36.2285 14.5966H27.2931V6.65542C27.2931 6.02879 26.7426 5.521 26.0635 5.521H5.56945C4.89025 5.521 4.33984 6.02886 4.33984 6.65542C4.33984 7.28197 4.89032 7.78984 5.56945 7.78984H24.8338V15.731C24.8338 16.3576 25.3843 16.8654 26.0634 16.8654H35.6263L37.4171 18.9936V24.8444H34.0151C33.3359 24.8444 32.7855 25.3523 32.7855 25.9788C32.7855 26.6055 33.3359 27.1133 34.0151 27.1133H38.6467C39.3259 27.1133 39.8763 26.6054 39.8764 25.9788V18.605C39.8764 18.3532 39.7854 18.1081 39.6182 17.9092Z" fill="#FF9923"/>
<path d="M9.74927 19.0967H4.09289C3.41368 19.0967 2.86328 19.6045 2.86328 20.2311C2.86328 20.8577 3.41376 21.3655 4.09289 21.3655H9.74919C10.4284 21.3655 10.9788 20.8577 10.9788 20.2311C10.9789 19.6045 10.4284 19.0967 9.74927 19.0967Z" fill="#FF9923"/>
<path d="M12.578 14.6343H2.08507C1.40595 14.6343 0.855469 15.1421 0.855469 15.7688C0.855469 16.3954 1.40595 16.9032 2.08507 16.9032H12.578C13.2572 16.9032 13.8076 16.3953 13.8076 15.7688C13.8076 15.1422 13.2572 14.6343 12.578 14.6343Z" fill="#FF9923"/>
<path d="M14.5858 10.1724H4.09289C3.41368 10.1724 2.86328 10.6802 2.86328 11.3068C2.86328 11.9334 3.41376 12.4412 4.09289 12.4412H14.5858C15.265 12.4412 15.8154 11.9333 15.8154 11.3068C15.8155 10.6802 15.265 10.1724 14.5858 10.1724Z" fill="#FF9923"/>
</g>
<defs>
<clipPath id="clip0_697_410">
<rect width="39.0206" height="36" fill="white" transform="translate(0.855469)"/>
</clipPath>
</defs>
</svg>
