<svg width="35" height="31" viewBox="0 0 35 31" fill="none" xmlns="http://www.w3.org/2000/svg">
<g clip-path="url(#clip0_697_352)">
<path d="M32.7629 17.377C32.7629 15.8746 31.3907 14.6523 29.7041 14.6523H25.1613C25.7241 13.2969 26.0731 11.6869 26.2772 10.4673C26.4833 9.23612 26.0788 7.98989 25.1674 7.04802C24.2587 6.10894 22.9392 5.57031 21.5473 5.57031C20.9843 5.57031 20.5278 5.97695 20.5278 6.47852C20.5278 8.67255 19.1122 11.9847 17.4603 12.7225C15.6008 13.5528 11.9428 14.4729 11.2142 14.6523C10.7593 14.6523 1.45924 14.6523 1.01959 14.6523C0.456506 14.6523 7.5898e-09 15.059 7.5898e-09 15.5605V28.2754C-6.79653e-05 28.777 0.456438 29.1836 1.01953 29.1836H4.07831V30.0918C4.07831 30.5934 4.53481 31 5.0979 31H9.31222C10.5576 31 11.6306 30.3333 12.1074 29.3799L19.2609 30.9729C19.3418 30.9909 19.4248 31 19.5082 31H25.6257C27.3123 31 28.6845 29.7777 28.6845 28.2754C28.6845 27.9211 28.6082 27.5824 28.4694 27.2716C29.7669 26.9561 30.7237 25.897 30.7237 24.6426C30.7237 24.2883 30.6474 23.9496 30.5086 23.6388C31.8061 23.3233 32.7629 22.2642 32.7629 21.0098C32.7629 20.3126 32.4674 19.6757 31.9821 19.1934C32.4674 18.711 32.7629 18.0742 32.7629 17.377ZM4.07824 27.3672H2.03905V16.4688H4.07824V27.3672ZM10.3317 28.2754C10.3317 28.7762 9.87436 29.1836 9.31215 29.1836H6.11743V16.4688H10.3317V28.2754ZM23.5865 20.1016H29.7041C30.2663 20.1016 30.7237 20.509 30.7237 21.0098C30.7237 21.5105 30.2663 21.918 29.7041 21.918C28.9353 21.918 24.2149 21.918 23.5865 21.918C23.0234 21.918 22.5669 22.3246 22.5669 22.8262C22.5669 23.3277 23.0234 23.7344 23.5865 23.7344H27.6649C28.2271 23.7344 28.6845 24.1418 28.6845 24.6426C28.6845 25.1434 28.2271 25.5508 27.6649 25.5508C27.2327 25.5508 24.0188 25.5508 23.5865 25.5508C23.0234 25.5508 22.5669 25.9574 22.5669 26.459C22.5669 26.9606 23.0234 27.3672 23.5865 27.3672H25.6257C26.1879 27.3672 26.6453 27.7746 26.6453 28.2754C26.6453 28.7762 26.1879 29.1836 25.6257 29.1836H19.6337L12.371 27.5663V16.2493C13.7466 15.8975 16.6645 15.1097 18.3741 14.3463C20.7158 13.3006 22.1497 9.99302 22.4888 7.53512C22.9226 7.67644 23.3141 7.91487 23.6229 8.23395C24.1466 8.77506 24.3789 9.49145 24.2603 10.1994C23.7774 13.0847 23.1716 14.2691 22.6746 15.1543C22.5166 15.4359 22.5334 15.7702 22.7192 16.038C22.905 16.3057 23.2331 16.4688 23.5865 16.4688H29.7041C30.2663 16.4688 30.7237 16.8762 30.7237 17.377C30.7237 17.8777 30.2663 18.2852 29.7041 18.2852H23.5865C23.0234 18.2852 22.5669 18.6918 22.5669 19.1934C22.5669 19.6949 23.0234 20.1016 23.5865 20.1016Z" fill="#FF8717"/>
<path d="M22.5665 0C22.0034 0 21.5469 0.406633 21.5469 0.908203V2.8457C21.5469 3.34727 22.0034 3.75391 22.5665 3.75391C23.1296 3.75391 23.5861 3.34727 23.5861 2.8457V0.908203C23.5861 0.406633 23.1296 0 22.5665 0Z" fill="#FF8717"/>
<path d="M16.7996 4.59776L15.3577 3.31338C14.9596 2.95869 14.314 2.95869 13.9158 3.31338C13.5176 3.66806 13.5176 4.24307 13.9158 4.59776L15.3577 5.88214C15.7559 6.23682 16.4015 6.23682 16.7996 5.88214C17.1978 5.52745 17.1978 4.95244 16.7996 4.59776Z" fill="#FF8717"/>
<path d="M13.3908 10.1113H11.3516C10.7885 10.1113 10.332 10.518 10.332 11.0195C10.332 11.5211 10.7885 11.9277 11.3516 11.9277H13.3908C13.9539 11.9277 14.4104 11.5211 14.4104 11.0195C14.4104 10.518 13.9539 10.1113 13.3908 10.1113Z" fill="#FF8717"/>
<path d="M33.7814 10.1113H31.7422C31.1792 10.1113 30.7227 10.518 30.7227 11.0195C30.7227 11.5211 31.1792 11.9277 31.7422 11.9277H33.7814C34.3445 11.9277 34.801 11.5211 34.801 11.0195C34.801 10.518 34.3445 10.1113 33.7814 10.1113Z" fill="#FF8717"/>
<path d="M31.2176 3.31338C30.8195 2.95869 30.1739 2.95869 29.7757 3.31338L28.3338 4.59776C27.9356 4.95244 27.9356 5.52745 28.3338 5.88214C28.7319 6.23682 29.3776 6.23682 29.7757 5.88214L31.2176 4.59776C31.6158 4.24307 31.6158 3.66806 31.2176 3.31338Z" fill="#FF8717"/>
</g>
<defs>
<clipPath id="clip0_697_352">
<rect width="34.8021" height="31" fill="white"/>
</clipPath>
</defs>
</svg>
