<svg width="36" height="30" viewBox="0 0 36 30" fill="none" xmlns="http://www.w3.org/2000/svg">
<g clip-path="url(#clip0_697_386)">
<path d="M35.2604 10.3554H32.0246C31.5263 4.57002 26.1518 0 19.617 0C13.0823 0 7.70781 4.57002 7.2095 10.3554H3.97365C3.43594 10.3554 3 10.749 3 11.2344V20.6484C3 21.1338 3.43594 21.5273 3.97365 21.5273H8.14524C8.68296 21.5273 9.1189 21.1338 9.1189 20.6484V11.2344C9.1189 6.00897 13.8283 1.75781 19.617 1.75781C25.4057 1.75781 30.1152 6.00897 30.1152 11.2344V20.6484C30.1152 23.7974 27.277 26.3594 23.7886 26.3594H22.5167C22.109 25.2663 20.9636 24.4766 19.617 24.4766C17.9301 24.4766 16.5576 25.7155 16.5576 27.2383C16.5576 28.7611 17.9301 30 19.617 30C20.9636 30 22.109 29.2103 22.5167 28.1172H23.7886C28.0214 28.1172 31.5215 25.2329 32.0049 21.5273H35.2604C35.7981 21.5273 36.2341 21.1338 36.2341 20.6484V11.2344C36.2341 10.749 35.7981 10.3554 35.2604 10.3554ZM7.17159 19.7695H4.94731V12.1133H7.17159V19.7695ZM19.617 28.2422C19.0038 28.2422 18.5049 27.7918 18.5049 27.2383C18.5049 26.6848 19.0038 26.2344 19.617 26.2344C20.2302 26.2344 20.7292 26.6848 20.7292 27.2383C20.7292 27.7918 20.2302 28.2422 19.617 28.2422ZM34.2868 19.7695H32.0625V12.1133H34.2868V19.7695Z" fill="#FF8717"/>
<path d="M26.7678 10.4224C26.4041 10.2864 25.9853 10.3615 25.7068 10.6129C25.7068 10.6129 22.6669 13.356 21.2256 14.6561C20.5783 15.2436 20.207 16.0553 20.207 16.8829C20.207 17.3682 20.643 17.7618 21.1807 17.7618H25.4215V19.7071C25.4215 20.1925 25.8575 20.586 26.3952 20.586C26.9329 20.586 27.3688 20.1925 27.3688 19.7071V17.7618H27.438C27.9758 17.7618 28.4117 17.3682 28.4117 16.8829C28.4117 16.3975 27.9758 16.004 27.438 16.004H27.3688V11.2344C27.3688 10.879 27.1316 10.5585 26.7678 10.4224ZM25.4215 16.004H22.4988C22.5319 15.9669 22.567 15.9314 22.6042 15.8976C23.3335 15.2398 24.474 14.2107 25.4215 13.3557V16.004Z" fill="#FF8717"/>
<path d="M18.5054 19.707C18.5054 19.2216 18.0695 18.8281 17.5318 18.8281H13.6354C13.6684 18.7911 13.7036 18.7555 13.7408 18.7218C15.1801 17.4235 18.2202 14.6802 18.2202 14.6802C18.4028 14.5153 18.5055 14.2917 18.5055 14.0586V13.5879C18.5055 11.8055 16.8992 10.3555 14.9247 10.3555C12.9305 10.3555 11.3438 11.814 11.3438 13.5869V13.5879C11.3438 14.0732 11.7797 14.4663 12.3174 14.4663C12.8551 14.4663 13.2911 14.0723 13.2911 13.5869C13.2911 12.7812 14.0097 12.1133 14.9247 12.1133C15.8254 12.1133 16.5582 12.7748 16.5582 13.5879V13.6944C15.7687 14.4069 13.5357 16.4218 12.3623 17.4804C11.7149 18.0679 11.3438 18.8795 11.3438 19.707C11.3438 20.1924 11.7797 20.5859 12.3174 20.5859H17.5318C18.0695 20.5859 18.5054 20.1925 18.5054 19.707Z" fill="#FF8717"/>
</g>
<defs>
<clipPath id="clip0_697_386">
<rect width="34.8021" height="30" fill="white" transform="translate(0.765625)"/>
</clipPath>
</defs>
</svg>
