<svg width="20" height="13" viewBox="0 0 20 13" fill="none" xmlns="http://www.w3.org/2000/svg">
<path d="M19.9893 8.89098C19.9394 7.80238 19.7402 6.59545 19.4412 5.45951C19.1423 4.37091 18.7686 3.3533 18.3202 2.57234C16.5765 -0.338492 14.6832 0.111149 12.4164 0.679117C11.6939 0.844774 10.9217 1.0341 10.1246 1.10509H9.87545C9.0783 1.0341 8.30607 0.844774 7.58365 0.679117C5.31676 0.134815 3.42354 -0.338492 1.67978 2.59601C1.23138 3.37696 0.832808 4.39457 0.558789 5.48318C0.259858 6.61911 0.0605716 7.82604 0.0107498 8.91465C-0.0390719 10.1216 0.0854824 10.9972 0.359502 11.6125C0.633521 12.1805 1.0321 12.5354 1.55522 12.6774C2.02853 12.7958 2.57657 12.7484 3.14952 12.5118C4.12104 12.1331 5.24203 11.3285 6.33811 10.3582C7.11035 9.64828 8.55518 9.29329 10 9.29329C11.4448 9.29329 12.8897 9.64828 13.6619 10.3582C14.758 11.3285 15.879 12.1331 16.8505 12.5118C17.4234 12.7248 17.9715 12.7958 18.4448 12.6774C18.943 12.5354 19.3665 12.2041 19.6405 11.5888C19.9145 10.9972 20.0391 10.1216 19.9893 8.89098ZM18.7935 11.2575C18.6441 11.5888 18.4448 11.7782 18.1957 11.8491C17.9217 11.9201 17.5729 11.8728 17.1743 11.7308C16.3025 11.3995 15.2811 10.6659 14.2847 9.7666C13.3381 8.86732 11.669 8.41768 10 8.41768C8.33098 8.41768 6.66195 8.86732 5.69043 9.71927C4.66908 10.6186 3.64774 11.3758 2.80077 11.6835C2.40219 11.8255 2.05344 11.8965 1.77942 11.8018C1.53031 11.7308 1.33103 11.5415 1.18156 11.2102C0.982274 10.7605 0.88263 10.0269 0.932452 8.93832C0.982274 7.92071 1.15665 6.7611 1.45558 5.6725C1.7296 4.65489 2.07835 3.70828 2.50184 2.99832C3.87193 0.655452 5.46623 1.0341 7.35945 1.5074C8.13169 1.69673 8.92884 1.88605 9.80072 1.95704C9.82563 1.95704 9.82563 1.95704 9.85054 1.95704H10.1246C10.1495 1.95704 10.1495 1.95704 10.1744 1.95704C11.0712 1.88605 11.8683 1.69673 12.6406 1.5074C14.5338 1.05776 16.1281 0.655452 17.4982 2.99832C17.9217 3.70828 18.2704 4.63123 18.5444 5.6725C18.8185 6.7611 19.0177 7.89704 19.0676 8.93832C19.1174 10.0269 19.0177 10.7605 18.7935 11.2575Z" fill="#FF8617"/>
<path d="M7.70976 4.27571C7.46066 4.06273 7.16172 3.89707 6.81297 3.8734C6.78806 3.56575 6.6386 3.2581 6.4144 3.04512L6.38949 3.02145C6.11547 2.76113 5.76672 2.61914 5.36814 2.61914C4.96957 2.61914 4.59591 2.7848 4.3468 3.02145C4.1226 3.23444 3.94822 3.54209 3.92331 3.8734C3.57456 3.89707 3.27563 4.03906 3.02652 4.25205L3.00161 4.27571C2.72759 4.53603 2.57812 4.86735 2.57812 5.24599C2.57812 5.62464 2.7525 5.97962 3.00161 6.21627C3.25072 6.45292 3.54965 6.59491 3.92331 6.61858C3.94822 6.94989 4.09769 7.25754 4.3468 7.47053C4.62082 7.73085 4.96957 7.87284 5.36814 7.87284C5.76672 7.87284 6.14038 7.70718 6.38949 7.47053C6.61369 7.23388 6.78806 6.94989 6.81297 6.61858C7.16172 6.59491 7.48557 6.45292 7.70976 6.21627C7.98378 5.95595 8.13325 5.62464 8.13325 5.24599C8.13325 4.86735 7.95887 4.51237 7.70976 4.27571ZM7.08699 5.60097C6.98735 5.69563 6.86279 5.74296 6.71333 5.74296H6.36458C6.11547 5.74296 5.89127 5.93229 5.89127 6.1926V6.50025C5.89127 6.64224 5.84145 6.76057 5.7418 6.85523C5.64216 6.94989 5.51761 6.99723 5.36814 6.99723C5.21868 6.99723 5.09412 6.94989 4.99448 6.85523C4.89484 6.76057 4.84501 6.64224 4.84501 6.50025V6.16894C4.84501 5.93229 4.64573 5.7193 4.37171 5.7193H4.02296C3.87349 5.7193 3.74894 5.67197 3.64929 5.57731C3.57456 5.50631 3.49983 5.38798 3.49983 5.24599C3.49983 5.104 3.54965 4.98567 3.64929 4.89101C3.64929 4.89101 3.64929 4.89101 3.6742 4.86735C3.77385 4.79635 3.8984 4.74902 4.02296 4.74902H4.37171C4.62082 4.74902 4.84501 4.5597 4.84501 4.29938V3.96806C4.84501 3.82607 4.89484 3.70775 4.99448 3.61308C5.09412 3.51842 5.21868 3.47109 5.36814 3.47109C5.51761 3.47109 5.64216 3.51842 5.7418 3.61308C5.7418 3.61308 5.7418 3.61308 5.76672 3.63675C5.84145 3.73141 5.89127 3.84974 5.89127 3.96806V4.29938C5.89127 4.53603 6.09056 4.74902 6.36458 4.74902H6.71333C6.86279 4.74902 6.98735 4.79635 7.08699 4.89101C7.18664 4.98567 7.23646 5.104 7.23646 5.24599C7.23646 5.38798 7.18664 5.50631 7.08699 5.60097Z" fill="#FF8617"/>
<path d="M14.3328 4.39485C14.8143 4.39485 15.2047 4.02402 15.2047 3.56657C15.2047 3.10912 14.8143 2.73828 14.3328 2.73828C13.8513 2.73828 13.4609 3.10912 13.4609 3.56657C13.4609 4.02402 13.8513 4.39485 14.3328 4.39485Z" fill="#FF8617"/>
<path d="M14.3328 7.75423C14.8143 7.75423 15.2047 7.38339 15.2047 6.92594C15.2047 6.46849 14.8143 6.09766 14.3328 6.09766C13.8513 6.09766 13.4609 6.46849 13.4609 6.92594C13.4609 7.38339 13.8513 7.75423 14.3328 7.75423Z" fill="#FF8617"/>
<path d="M12.5672 6.07454C13.0487 6.07454 13.4391 5.7037 13.4391 5.24626C13.4391 4.78881 13.0487 4.41797 12.5672 4.41797C12.0857 4.41797 11.6953 4.78881 11.6953 5.24626C11.6953 5.7037 12.0857 6.07454 12.5672 6.07454Z" fill="#FF8617"/>
<path d="M16.1023 6.07454C16.5839 6.07454 16.9742 5.7037 16.9742 5.24626C16.9742 4.78881 16.5839 4.41797 16.1023 4.41797C15.6208 4.41797 15.2305 4.78881 15.2305 5.24626C15.2305 5.7037 15.6208 6.07454 16.1023 6.07454Z" fill="#FF8617"/>
</svg>
