<svg width="19" height="18" viewBox="0 0 19 18" fill="none" xmlns="http://www.w3.org/2000/svg">
<path d="M16.959 3.61237H13.2411L12.8795 2.55475C12.6518 1.88881 12.0151 1.44141 11.2952 1.44141H7.70476C6.98488 1.44141 6.34819 1.88881 6.12052 2.55475L5.75893 3.61237H4.86133V2.7078C4.86133 2.00951 4.27867 1.44141 3.5625 1.44141H2.82031C2.10414 1.44141 1.52148 2.00951 1.52148 2.7078V3.67794C0.646891 3.90256 0 4.68013 0 5.60243V15.0099C0 16.1073 0.9156 17 2.04102 17H16.959C18.0844 17 19 16.1073 19 15.0099V5.60243C19 4.50511 18.0844 3.61237 16.959 3.61237ZM2.63477 2.7078C2.63477 2.60805 2.718 2.52689 2.82031 2.52689H3.5625C3.66481 2.52689 3.74805 2.60805 3.74805 2.7078V3.61237H2.63477V2.7078ZM17.8867 15.0099C17.8867 15.5087 17.4705 15.9145 16.959 15.9145H2.04102C1.52946 15.9145 1.11328 15.5087 1.11328 15.0099V5.60243C1.11328 5.10365 1.52946 4.69786 2.04102 4.69786H6.16016C6.39973 4.69786 6.61245 4.54838 6.68822 4.32673L7.17666 2.89802C7.25258 2.67604 7.46477 2.52689 7.70476 2.52689H11.2952C11.5352 2.52689 11.7475 2.67603 11.8233 2.89798L12.3117 4.32673C12.3876 4.54838 12.6003 4.69786 12.8398 4.69786H16.959C17.4705 4.69786 17.8867 5.10365 17.8867 5.60243V15.0099Z" fill="#FF8617"/>
<path d="M16.1816 6.86869C16.4891 6.86869 16.7383 6.62569 16.7383 6.32594C16.7383 6.0262 16.4891 5.7832 16.1816 5.7832C15.8742 5.7832 15.625 6.0262 15.625 6.32594C15.625 6.62569 15.8742 6.86869 16.1816 6.86869Z" fill="#FF8617"/>
<path d="M3.93555 5.7832H2.82227C2.51485 5.7832 2.26562 6.02621 2.26562 6.32594C2.26562 6.62568 2.51485 6.86869 2.82227 6.86869H3.93555C4.24296 6.86869 4.49219 6.62568 4.49219 6.32594C4.49219 6.02621 4.24296 5.7832 3.93555 5.7832Z" fill="#FF8617"/>
<path d="M9.50195 14.8289C6.73957 14.8289 4.49219 12.6377 4.49219 9.94424C4.49219 7.25084 6.73957 5.05957 9.50195 5.05957C12.2643 5.05957 14.5117 7.25084 14.5117 9.94424C14.5117 12.6377 12.2643 14.8289 9.50195 14.8289ZM9.50195 6.14505C7.35343 6.14505 5.60547 7.84937 5.60547 9.94424C5.60547 12.0391 7.35343 13.7434 9.50195 13.7434C11.6505 13.7434 13.3984 12.0391 13.3984 9.94424C13.3984 7.84937 11.6505 6.14505 9.50195 6.14505Z" fill="#FF8617"/>
<path d="M9.50195 12.6579C7.96729 12.6579 6.71875 11.4405 6.71875 9.94418C6.71875 8.44784 7.96729 7.23047 9.50195 7.23047C11.0366 7.23047 12.2852 8.44784 12.2852 9.94418C12.2852 11.4405 11.0366 12.6579 9.50195 12.6579ZM9.50195 8.31595C8.58116 8.31595 7.83203 9.04637 7.83203 9.94418C7.83203 10.842 8.58116 11.5724 9.50195 11.5724C10.4227 11.5724 11.1719 10.842 11.1719 9.94418C11.1719 9.04637 10.4227 8.31595 9.50195 8.31595Z" fill="#FF8617"/>
</svg>
