<svg width="21" height="20" viewBox="0 0 21 20" fill="none" xmlns="http://www.w3.org/2000/svg">
<path d="M20.9562 17.2463L19.1543 14.1002V2.58789C19.1543 1.69938 18.4643 0.976562 17.6162 0.976562H3.38379C2.53567 0.976562 1.8457 1.69938 1.8457 2.58789V14.1002L0.0438457 17.2463C0.0151758 17.2964 0 17.3537 0 17.4121C0 18.3006 0.689965 19.0234 1.53809 19.0234H19.4619C20.31 19.0234 21 18.3006 21 17.4121C21 17.3537 20.9848 17.2964 20.9562 17.2463ZM3.38379 1.62109H17.6162C18.1251 1.62109 18.5391 2.05482 18.5391 2.58789V13.8672H2.46094V2.58789C2.46094 2.05482 2.87491 1.62109 3.38379 1.62109ZM2.32747 14.5117H18.6725L20.1491 17.0898H0.850951L2.32747 14.5117ZM13.5762 17.7344V18.3789H7.42383V17.7344H13.5762ZM0.668883 17.7344H6.80859V18.3789H1.53809C1.1372 18.3789 0.795949 18.1093 0.668883 17.7344ZM19.4619 18.3789H14.1914V17.7344H20.3311C20.2041 18.1093 19.8628 18.3789 19.4619 18.3789Z" fill="#FF8617"/>
<path d="M3.38574 13.2227H9.88672C10.0566 13.2227 10.1943 13.0784 10.1943 12.9004C10.1943 12.7224 10.0566 12.5781 9.88672 12.5781H3.69336V2.91016H17.3105V12.5781H11.1172C10.9473 12.5781 10.8096 12.7224 10.8096 12.9004C10.8096 13.0784 10.9473 13.2227 11.1172 13.2227H17.6182C17.7881 13.2227 17.9258 13.0784 17.9258 12.9004V2.58789C17.9258 2.40987 17.7881 2.26562 17.6182 2.26562H3.38574C3.21586 2.26562 3.07812 2.40987 3.07812 2.58789V12.9004C3.07812 13.0784 3.21586 13.2227 3.38574 13.2227Z" fill="#FF8617"/>
</svg>
