<svg width="16" height="18" viewBox="0 0 16 18" fill="none" xmlns="http://www.w3.org/2000/svg">
<path d="M0.512 18C0.409533 18.0001 0.311225 17.9595 0.238665 17.8871C0.166104 17.8148 0.125224 17.7166 0.125 17.6141V0.385875C0.125298 0.283431 0.166202 0.185285 0.238747 0.112952C0.311291 0.0406182 0.409556 -4.3285e-07 0.512 0L15.488 0C15.5904 -4.3285e-07 15.6887 0.0406182 15.7613 0.112952C15.8338 0.185285 15.8747 0.283431 15.875 0.385875V17.6141C15.8748 17.7166 15.8339 17.8148 15.7613 17.8871C15.6888 17.9595 15.5905 18.0001 15.488 18H0.512ZM1.088 4.21875C1.06322 4.21871 1.03867 4.22356 1.01576 4.23301C0.992849 4.24246 0.972024 4.25633 0.954473 4.27383C0.936923 4.29132 0.922991 4.31211 0.913473 4.33499C0.903955 4.35787 0.899037 4.3824 0.899 4.40719V17.0398C0.899 17.0646 0.903891 17.0892 0.913392 17.1121C0.922894 17.135 0.93682 17.1558 0.954374 17.1734C0.971928 17.1909 0.992765 17.2048 1.01569 17.2142C1.03862 17.2237 1.06319 17.2286 1.088 17.2285H14.912C14.9368 17.2286 14.9614 17.2237 14.9843 17.2142C15.0072 17.2048 15.0281 17.1909 15.0456 17.1734C15.0632 17.1558 15.0771 17.135 15.0866 17.1121C15.0961 17.0892 15.101 17.0646 15.101 17.0398V4.40578C15.101 4.381 15.096 4.35647 15.0865 4.33358C15.077 4.3107 15.0631 4.28992 15.0455 4.27242C15.028 4.25492 15.0072 4.24105 14.9842 4.2316C14.9613 4.22215 14.9368 4.21731 14.912 4.21734L1.088 4.21875ZM6.84687 0.77175C6.82208 0.771676 6.79752 0.776495 6.77459 0.785932C6.75166 0.795369 6.73082 0.809237 6.71327 0.826743C6.69571 0.844248 6.68178 0.865046 6.67227 0.887945C6.66277 0.910844 6.65788 0.935394 6.65788 0.960187V3.25716C6.65791 3.28194 6.66283 3.30647 6.67235 3.32935C6.68187 3.35224 6.6958 3.37302 6.71335 3.39052C6.7309 3.40802 6.75172 3.42189 6.77463 3.43134C6.79754 3.44079 6.82209 3.44563 6.84687 3.44559H14.912C14.9368 3.44563 14.9613 3.44079 14.9842 3.43134C15.0072 3.42189 15.028 3.40802 15.0455 3.39052C15.0631 3.37302 15.077 3.35224 15.0865 3.32935C15.096 3.30647 15.101 3.28194 15.101 3.25716V0.960187C15.101 0.935394 15.0961 0.910844 15.0866 0.887945C15.0771 0.865046 15.0632 0.844248 15.0456 0.826743C15.0281 0.809237 15.0072 0.795369 14.9843 0.785932C14.9614 0.776495 14.9368 0.771676 14.912 0.77175H6.84687ZM1.08688 0.77175C1.06208 0.771676 1.03752 0.776495 1.01459 0.785932C0.991663 0.795369 0.970823 0.809237 0.953266 0.826743C0.935708 0.844248 0.921778 0.865046 0.912273 0.887945C0.902768 0.910844 0.897875 0.935394 0.897875 0.960187V3.25716C0.897912 3.28194 0.90283 3.30647 0.912348 3.32935C0.921866 3.35224 0.935798 3.37302 0.953348 3.39052C0.970899 3.40802 0.991723 3.42189 1.01463 3.43134C1.03754 3.44079 1.06209 3.44563 1.08688 3.44559H5.696C5.72078 3.44563 5.74533 3.44079 5.76824 3.43134C5.79115 3.42189 5.81198 3.40802 5.82953 3.39052C5.84708 3.37302 5.86101 3.35224 5.87053 3.32935C5.88005 3.30647 5.88496 3.28194 5.885 3.25716V0.960187C5.885 0.935394 5.88011 0.910844 5.8706 0.887945C5.8611 0.865046 5.84717 0.844248 5.82961 0.826743C5.81205 0.809237 5.79121 0.795369 5.76828 0.785932C5.74536 0.776495 5.72079 0.771676 5.696 0.77175H1.08688Z" fill="#FF8617"/>
<path d="M7.99875 16.2768C6.9009 16.2735 5.82863 15.9449 4.91739 15.3326C4.00616 14.7203 3.29682 13.8516 2.87897 12.8364C2.46112 11.8212 2.35351 10.7049 2.56972 9.6285C2.78593 8.55214 3.31627 7.56399 4.09375 6.78887C4.87123 6.01374 5.86098 5.4864 6.938 5.27346C8.01501 5.06051 9.13097 5.17151 10.1449 5.59244C11.1589 6.01336 12.0254 6.72533 12.6349 7.63843C13.2445 8.55152 13.5698 9.62477 13.5698 10.7226C13.5659 12.1974 12.9772 13.6104 11.9327 14.6517C10.8883 15.6929 9.47354 16.2774 7.99875 16.2768ZM7.99875 5.9397C7.05338 5.94248 6.13003 6.22535 5.34534 6.75259C4.56064 7.27984 3.94979 8.0278 3.58993 8.90201C3.23008 9.77622 3.13737 10.7375 3.3235 11.6643C3.50964 12.5912 3.96627 13.4421 4.63574 14.1096C5.3052 14.7771 6.15746 15.2313 7.08487 15.4147C8.01228 15.5981 8.97325 15.5026 9.8464 15.1401C10.7195 14.7777 11.4657 14.1647 11.9906 13.3784C12.5156 12.5922 12.7957 11.668 12.7958 10.7226C12.7925 9.45269 12.2856 8.23591 11.3863 7.33924C10.487 6.44257 9.2687 5.93925 7.99875 5.9397Z" fill="#FF8617"/>
<path d="M7.99832 13.9803C7.54799 13.9812 7.10237 13.8885 6.68967 13.7083C6.64137 13.6893 6.59741 13.6607 6.56041 13.6243C6.52341 13.5879 6.49413 13.5444 6.47432 13.4964C6.45451 13.4484 6.44459 13.3969 6.44513 13.345C6.44568 13.2931 6.45668 13.2418 6.47749 13.1943C6.4983 13.1467 6.52849 13.1038 6.56625 13.0682C6.604 13.0326 6.64856 13.0049 6.69724 12.9869C6.74593 12.9689 6.79775 12.9609 6.8496 12.9633C6.90146 12.9658 6.95228 12.9787 6.99904 13.0013C7.52925 13.2311 8.12306 13.2688 8.67805 13.1077C9.23304 12.9466 9.71441 12.5969 10.0391 12.1189C10.3639 11.6408 10.5116 11.0645 10.4568 10.4892C10.4021 9.91387 10.1483 9.37572 9.7392 8.96753C9.33012 8.55935 8.79142 8.30672 8.216 8.25322C7.64059 8.19972 7.06455 8.34871 6.58723 8.67449C6.10991 9.00026 5.76124 9.4824 5.60137 10.0377C5.4415 10.5931 5.48044 11.1868 5.71148 11.7165C5.75196 11.8102 5.75361 11.9161 5.71607 12.0111C5.67852 12.106 5.60485 12.1821 5.51123 12.2228C5.46287 12.2446 5.41044 12.2559 5.35739 12.2559C5.28187 12.2559 5.20801 12.2338 5.14483 12.1925C5.08164 12.1511 5.03188 12.0923 5.0016 12.0231C4.82196 11.6128 4.72963 11.1696 4.73048 10.7217C4.72881 10.0753 4.91897 9.44282 5.2769 8.90447C5.63483 8.36613 6.14443 7.94608 6.7412 7.69749C7.33797 7.44889 7.99507 7.38294 8.62934 7.50798C9.26361 7.63301 9.84652 7.94341 10.3043 8.39989C10.7621 8.85637 11.0741 9.43839 11.201 10.0723C11.3278 10.7062 11.2637 11.3635 11.0168 11.961C10.7699 12.5584 10.3513 13.0692 9.81401 13.4287C9.27669 13.7882 8.6448 13.9801 7.99832 13.9803Z" fill="#FF8617"/>
<path d="M2.81426 2.49427C2.76273 2.49566 2.71144 2.48671 2.66342 2.46795C2.61541 2.44919 2.57164 2.421 2.5347 2.38504C2.49776 2.34909 2.46839 2.30609 2.44835 2.2586C2.4283 2.21111 2.41797 2.16008 2.41797 2.10853C2.41797 2.05698 2.4283 2.00595 2.44835 1.95846C2.46839 1.91097 2.49776 1.86797 2.5347 1.83202C2.57164 1.79606 2.61541 1.76787 2.66342 1.74911C2.71144 1.73035 2.76273 1.72141 2.81426 1.7228H3.96739C4.01892 1.72141 4.07021 1.73035 4.11822 1.74911C4.16624 1.76787 4.21001 1.79606 4.24695 1.83202C4.28389 1.86797 4.31325 1.91097 4.3333 1.95846C4.35335 2.00595 4.36368 2.05698 4.36368 2.10853C4.36368 2.16008 4.35335 2.21111 4.3333 2.2586C4.31325 2.30609 4.28389 2.34909 4.24695 2.38504C4.21001 2.421 4.16624 2.44919 4.11822 2.46795C4.07021 2.48671 4.01892 2.49566 3.96739 2.49427H2.81426Z" fill="#FF8617"/>
<path d="M8.08772 2.57876C8.34759 2.57876 8.55825 2.36809 8.55825 2.10823C8.55825 1.84836 8.34759 1.6377 8.08772 1.6377C7.82785 1.6377 7.61719 1.84836 7.61719 2.10823C7.61719 2.36809 7.82785 2.57876 8.08772 2.57876Z" fill="#FF8617"/>
<path d="M9.72444 2.57876C9.9843 2.57876 10.195 2.36809 10.195 2.10823C10.195 1.84836 9.9843 1.6377 9.72444 1.6377C9.46457 1.6377 9.25391 1.84836 9.25391 2.10823C9.25391 2.36809 9.46457 2.57876 9.72444 2.57876Z" fill="#FF8617"/>
<path d="M11.3612 2.57876C11.621 2.57876 11.8317 2.36809 11.8317 2.10823C11.8317 1.84836 11.621 1.6377 11.3612 1.6377C11.1013 1.6377 10.8906 1.84836 10.8906 2.10823C10.8906 2.36809 11.1013 2.57876 11.3612 2.57876Z" fill="#FF8617"/>
<path d="M8.08772 2.57876C8.34759 2.57876 8.55825 2.36809 8.55825 2.10823C8.55825 1.84836 8.34759 1.6377 8.08772 1.6377C7.82785 1.6377 7.61719 1.84836 7.61719 2.10823C7.61719 2.36809 7.82785 2.57876 8.08772 2.57876Z" fill="#FF8617"/>
<path d="M9.72444 2.57876C9.9843 2.57876 10.195 2.36809 10.195 2.10823C10.195 1.84836 9.9843 1.6377 9.72444 1.6377C9.46457 1.6377 9.25391 1.84836 9.25391 2.10823C9.25391 2.36809 9.46457 2.57876 9.72444 2.57876Z" fill="#FF8617"/>
<path d="M11.3612 2.57876C11.621 2.57876 11.8317 2.36809 11.8317 2.10823C11.8317 1.84836 11.621 1.6377 11.3612 1.6377C11.1013 1.6377 10.8906 1.84836 10.8906 2.10823C10.8906 2.36809 11.1013 2.57876 11.3612 2.57876Z" fill="#FF8617"/>
</svg>
