<svg width="18" height="16" viewBox="0 0 18 16" fill="none" xmlns="http://www.w3.org/2000/svg">
<path d="M9 2.58594C9.09246 2.58594 9.18316 2.54832 9.24852 2.48289C9.31395 2.41754 9.35156 2.32684 9.35156 2.23438C9.35156 2.14191 9.31395 2.05121 9.24852 1.98582C9.18316 1.92039 9.09246 1.88281 9 1.88281C8.90715 1.88281 8.81684 1.92039 8.75145 1.98582C8.68605 2.05125 8.64844 2.14191 8.64844 2.23438C8.64844 2.32684 8.68602 2.41754 8.75145 2.48289C8.81684 2.54832 8.90754 2.58594 9 2.58594Z" fill="#FF8617"/>
<path d="M12.9093 6.16C11.9991 5.91609 11.0605 6.45815 10.8168 7.36813C10.7665 7.55568 10.8778 7.7484 11.0653 7.79867C11.0958 7.80683 11.1264 7.81076 11.1565 7.81076C11.3117 7.81076 11.4538 7.70716 11.4959 7.55009C11.6394 7.01461 12.1919 6.69576 12.7274 6.83912C12.915 6.88953 13.1076 6.77809 13.1579 6.59054C13.2082 6.40302 13.0969 6.21023 12.9093 6.16Z" fill="#FF8617"/>
<path d="M9.49503 7.37803C9.52551 7.38618 9.55609 7.39012 9.58622 7.39012C9.74143 7.39012 9.88349 7.28652 9.92557 7.12945C10.3011 5.72789 11.747 4.89321 13.1484 5.26874C13.3361 5.31908 13.5287 5.20767 13.579 5.02016C13.6292 4.83264 13.5179 4.63989 13.3304 4.58961C11.5545 4.11365 9.72234 5.17146 9.24645 6.94749C9.19618 7.135 9.30748 7.32776 9.49503 7.37803Z" fill="#FF8617"/>
<path d="M17.6692 11.9015L17.5775 11.7426C17.8476 11.4263 17.9993 11.0223 17.9993 10.6012V2.16399C17.9993 1.19477 17.2108 0.40625 16.2416 0.40625H1.75774C0.788524 0.40625 0 1.19477 0 2.16399V10.6012C0 11.5704 0.788524 12.3589 1.75774 12.3589H7.52314V14.3979H6.11695C5.92282 14.3979 5.7654 14.5553 5.7654 14.7494C5.7654 14.9436 5.92282 15.101 6.11695 15.101H11.8823C12.0765 15.101 12.2339 14.9436 12.2339 14.7494C12.2339 14.5553 12.0765 14.3979 11.8823 14.3979H10.4762V12.3589H12.2502L13.4069 14.3624C13.7356 14.9316 14.2662 15.3388 14.9012 15.5089C15.1132 15.5657 15.3283 15.5939 15.5421 15.5939C15.9685 15.5939 16.3894 15.482 16.7685 15.2631C17.3378 14.9344 17.745 14.4038 17.9151 13.7689C18.0852 13.134 17.9979 12.4708 17.6692 11.9015ZM9.77306 14.3979H8.22624V12.3589H9.77306V14.3979ZM1.75774 11.6558C1.17621 11.6558 0.703098 11.1827 0.703098 10.6012V2.16399C0.703098 1.58246 1.17621 1.10935 1.75774 1.10935H16.2416C16.8231 1.10935 17.2962 1.58246 17.2962 2.16399V10.6012C17.2962 10.7645 17.2579 10.9235 17.1873 11.0669L16.4525 9.79404V2.2343C16.4525 2.04018 16.2951 1.88275 16.1009 1.88275H10.5816C10.3875 1.88275 10.2301 2.04018 10.2301 2.2343C10.2301 2.42843 10.3875 2.58585 10.5816 2.58585H15.7494V8.57624L15.1776 7.58593C15.0884 7.43139 14.9444 7.3209 14.772 7.2747C14.5997 7.22855 14.4198 7.2522 14.2652 7.34143L11.1598 9.13433C11.0053 9.22351 10.8948 9.36758 10.8486 9.53991C10.8024 9.7122 10.8261 9.8922 10.9153 10.0467L10.9918 10.1793H2.24991V2.58585H7.41768C7.6118 2.58585 7.76923 2.42843 7.76923 2.2343C7.76923 2.04018 7.6118 1.88275 7.41768 1.88275H1.89836C1.70424 1.88275 1.54681 2.04018 1.54681 2.2343V10.5309C1.54681 10.725 1.70424 10.8824 1.89836 10.8824H11.3978L11.8443 11.6558H1.75774ZM17.2359 13.5869C17.1144 14.0404 16.8236 14.4195 16.417 14.6542C16.0104 14.8889 15.5367 14.9514 15.0832 14.8298C14.6297 14.7083 14.2506 14.4175 14.0159 14.0108L11.5418 9.72567L14.5864 7.96792L17.0604 12.2531C17.2951 12.6597 17.3575 13.1334 17.2359 13.5869Z" fill="#FF8617"/>
<path d="M15.8118 12.1116C15.5396 12.0387 15.2554 12.0761 15.0115 12.217C14.5079 12.5077 14.3347 13.154 14.6255 13.6576C14.7663 13.9016 14.9937 14.0761 15.2658 14.149C15.3567 14.1733 15.4489 14.1854 15.5405 14.1854C15.7232 14.1854 15.9036 14.1375 16.0661 14.0437C16.31 13.9028 16.4846 13.6754 16.5575 13.4033C16.6304 13.1312 16.593 12.8469 16.4521 12.603C16.3113 12.3591 16.0839 12.1845 15.8118 12.1116ZM15.8784 13.2213C15.8541 13.312 15.7959 13.3878 15.7146 13.4348C15.6332 13.4817 15.5385 13.4942 15.4478 13.4699C15.3571 13.4456 15.2813 13.3874 15.2344 13.3061C15.1375 13.1382 15.1952 12.9228 15.363 12.8259C15.4172 12.7946 15.4774 12.7786 15.5383 12.7786C15.5688 12.7786 15.5995 12.7826 15.6298 12.7908C15.7205 12.815 15.7963 12.8732 15.8432 12.9546V12.9546C15.8902 13.0359 15.9027 13.1306 15.8784 13.2213Z" fill="#FF8617"/>
<path d="M13.2525 9.89172C13.1871 9.82633 13.0964 9.78906 13.0039 9.78906C12.9114 9.78906 12.8207 9.82633 12.7554 9.89172C12.69 9.95707 12.6523 10.0478 12.6523 10.1402C12.6523 10.2331 12.69 10.3234 12.7554 10.3891C12.8207 10.4545 12.9114 10.4922 13.0039 10.4922C13.0964 10.4922 13.1871 10.4546 13.2525 10.3891C13.3179 10.3234 13.3555 10.2327 13.3555 10.1402C13.3555 10.0478 13.3179 9.95746 13.2525 9.89172Z" fill="#FF8617"/>
<path d="M14.4673 9.18898C14.4019 9.12359 14.3112 9.08594 14.2188 9.08594C14.1263 9.08594 14.0356 9.12355 13.9702 9.18898C13.9048 9.25472 13.8672 9.34504 13.8672 9.43789C13.8672 9.53035 13.9048 9.62066 13.9702 9.68641C14.0356 9.7518 14.1263 9.78906 14.2188 9.78906C14.3112 9.78906 14.4019 9.7518 14.4673 9.68641C14.5327 9.62105 14.5703 9.53035 14.5703 9.43789C14.5703 9.34504 14.5327 9.25434 14.4673 9.18898Z" fill="#FF8617"/>
<path d="M14.6733 10.9038C14.7387 10.9692 14.8294 11.0068 14.9219 11.0068C15.0143 11.0068 15.105 10.9692 15.1704 10.9038C15.2358 10.8384 15.2734 10.7477 15.2734 10.6553C15.2734 10.5625 15.2358 10.4721 15.1704 10.4067C15.105 10.341 15.0143 10.3037 14.9219 10.3037C14.8294 10.3037 14.7387 10.341 14.6733 10.4067C14.6079 10.4721 14.5703 10.5625 14.5703 10.6553C14.5703 10.7477 14.6079 10.8384 14.6733 10.9038Z" fill="#FF8617"/>
<path d="M13.707 11.0068C13.6146 11.0068 13.5239 11.0445 13.4585 11.1098C13.3931 11.1752 13.3555 11.2659 13.3555 11.3584C13.3555 11.4509 13.3931 11.5416 13.4585 11.607C13.5239 11.6723 13.6146 11.71 13.707 11.71C13.7995 11.71 13.8902 11.6723 13.9556 11.607C14.021 11.5416 14.0586 11.4509 14.0586 11.3584C14.0586 11.2659 14.021 11.1752 13.9556 11.1098C13.8902 11.0445 13.7995 11.0068 13.707 11.0068Z" fill="#FF8617"/>
</svg>
