<svg width="17" height="19" viewBox="0 0 17 19" fill="none" xmlns="http://www.w3.org/2000/svg">
<path d="M14.5098 4.78711H14.0449V2.7832C14.0449 1.24854 12.9278 0 11.5547 0H5.44531C4.0722 0 2.95508 1.24854 2.95508 2.7832V4.78711H2.49023C1.11712 4.78711 0 6.03565 0 7.57031V12.0234C0 13.5581 1.11712 14.8066 2.49023 14.8066H2.95508V17.3301C2.95508 18.2509 3.62535 19 4.44922 19H12.5508C13.3747 19 14.0449 18.2509 14.0449 17.3301V14.8066H14.5098C15.8829 14.8066 17 13.5581 17 12.0234V7.57031C17 6.03565 15.8829 4.78711 14.5098 4.78711ZM3.95117 2.7832C3.95117 1.86241 4.62144 1.11328 5.44531 1.11328H11.5547C12.3786 1.11328 13.0488 1.86241 13.0488 2.7832V4.78711H3.95117V2.7832ZM13.0488 17.3301C13.0488 17.637 12.8254 17.8867 12.5508 17.8867H4.44922C4.1746 17.8867 3.95117 17.637 3.95117 17.3301V11.8379H13.0488V17.3301ZM16.0039 12.0234C16.0039 12.9442 15.3336 13.6934 14.5098 13.6934H14.0449V11.8379H14.3438C14.6188 11.8379 14.8418 11.5887 14.8418 11.2812C14.8418 10.9738 14.6188 10.7246 14.3438 10.7246H2.65625C2.3812 10.7246 2.1582 10.9738 2.1582 11.2812C2.1582 11.5887 2.3812 11.8379 2.65625 11.8379H2.95508V13.6934H2.49023C1.66637 13.6934 0.996094 12.9442 0.996094 12.0234V7.57031C0.996094 6.64952 1.66637 5.90039 2.49023 5.90039H14.5098C15.3336 5.90039 16.0039 6.64952 16.0039 7.57031V12.0234Z" fill="#FF8617"/>
<path d="M9.82617 13.0996H7.16992C6.89487 13.0996 6.67188 13.3488 6.67188 13.6562C6.67188 13.9637 6.89487 14.2129 7.16992 14.2129H9.82617C10.1012 14.2129 10.3242 13.9637 10.3242 13.6562C10.3242 13.3488 10.1012 13.0996 9.82617 13.0996Z" fill="#FF8617"/>
<path d="M9.82617 15.4746H7.16992C6.89487 15.4746 6.67188 15.7238 6.67188 16.0312C6.67188 16.3387 6.89487 16.5879 7.16992 16.5879H9.82617C10.1012 16.5879 10.3242 16.3387 10.3242 16.0312C10.3242 15.7238 10.1012 15.4746 9.82617 15.4746Z" fill="#FF8617"/>
<path d="M4.24805 7.16211H2.6543C2.37924 7.16211 2.15625 7.41134 2.15625 7.71875C2.15625 8.02616 2.37924 8.27539 2.6543 8.27539H4.24805C4.5231 8.27539 4.74609 8.02616 4.74609 7.71875C4.74609 7.41134 4.5231 7.16211 4.24805 7.16211Z" fill="#FF8617"/>
</svg>
