<svg width="54" height="53" viewBox="0 0 54 53" fill="none" xmlns="http://www.w3.org/2000/svg">
<path d="M33 25C32.448 25 32 25.448 32 26C32 26.552 32.448 27 33 27C33.552 27 34 26.552 34 26C34 25.448 33.552 25 33 25Z" fill="#FF8717"/>
<path d="M11.9773 36.8341L2.21165 49.3848C1.97857 49.6841 1.93432 50.093 2.09721 50.437C2.2601 50.7813 2.60189 51 2.9765 51H51.0233C51.3979 51 51.7397 50.7813 51.9026 50.437C52.0659 50.093 52.0213 49.6841 51.7882 49.3848L42.0226 36.8341C41.8376 36.5959 41.5557 36.457 41.2577 36.457H32.7033L40.0065 24.7732C41.7197 22.1534 42.6249 19.0982 42.6249 15.9375C42.6249 7.1497 35.6158 0 26.9999 0C18.384 0 11.3749 7.1497 11.3749 15.9375C11.3749 19.0982 12.2802 22.153 13.9933 24.7732L21.2966 36.457H12.7421C12.4442 36.457 12.1627 36.5959 11.9773 36.8341V36.8341ZM8.33118 44.7246H14.236L10.9034 49.0078H4.99829L8.33118 44.7246ZM22.5421 38.4492L25.2192 42.7324H18.2795L21.6124 38.4492H22.5421ZM31.4582 38.4492H32.3878L35.7203 42.7324H28.781L31.4582 38.4492ZM37.2706 44.7246L40.6031 49.0078H13.3967L16.7296 44.7246H37.2706ZM43.0968 49.0078L39.7639 44.7246H45.669L49.0016 49.0078H43.0968ZM44.1187 42.7324H38.214L34.8811 38.4492H40.7862L44.1187 42.7324ZM15.6237 23.6759C14.1219 21.3826 13.3281 18.7067 13.3281 15.9375C13.3281 8.24812 19.4613 1.99219 26.9999 1.99219C34.5385 1.99219 40.6718 8.24812 40.6718 15.9375C40.6718 18.7067 39.8779 21.3826 38.3765 23.6759C38.3723 23.6817 38.3689 23.6876 38.365 23.6934C37.7238 24.7195 27.4939 41.0858 26.9999 41.8756C25.7575 39.8877 16.9001 25.7175 15.6348 23.6934C15.6314 23.6876 15.6276 23.6817 15.6237 23.6759V23.6759ZM19.1188 38.4492L15.7862 42.7324H9.8811L13.214 38.4492H19.1188Z" fill="#FF8717"/>
<path d="M27 25C32.4898 25 37 20.7766 37 15.5C37 10.2616 32.5141 6 27 6C21.4859 6 17 10.2616 17 15.5C17 20.7781 21.5117 25 27 25ZM27 7.9C31.4113 7.9 35 11.3092 35 15.5C35 19.7297 31.3824 23.1 27 23.1C22.6164 23.1 19 19.7297 19 15.5C19 11.3092 22.5887 7.9 27 7.9Z" fill="#FF8717"/>
<path d="M31.4902 29.1414C30.9924 28.8609 30.3448 29.0107 30.0444 29.4761L26.1514 35.5082C25.851 35.9736 26.0115 36.578 26.5098 36.8585C27.0101 37.1402 27.6564 36.9873 27.9556 36.5238L31.8486 30.4917C32.149 30.0263 31.9885 29.4219 31.4902 29.1414V29.1414Z" fill="#FF8717"/>
</svg>
