<svg width="57" height="49" viewBox="0 0 57 49" fill="none" xmlns="http://www.w3.org/2000/svg">
<path d="M56.4764 15.7317L48.2592 9.9935V1.61182C48.1768 0.781537 47.5299 0.115139 46.694 0H10.6953C9.85963 0.115262 9.21253 0.781537 9.13015 1.61182V9.92896L0.586932 15.7316C0.248529 15.9744 0.0342023 16.3512 0 16.7631V47.3882C0.111095 48.2287 0.780163 48.8903 1.63035 49H55.759C56.4764 49 56.7373 48.1618 56.7373 47.3882V16.7632C56.7373 16.3764 56.8024 15.9895 56.4764 15.7317ZM48.2592 13.0882L53.8678 16.8921L48.2592 21.0829V13.0882ZM11.7388 2.57896H45.6506V23.0817L28.6946 35.7186L11.7386 23.0817V2.57896H11.7388ZM9.13015 13.0238V21.1475L3.52159 16.8922L9.13015 13.0238ZM2.60861 19.5356L20.8689 33.204L2.60861 45.3896V19.5356ZM5.739 46.4212L23.0862 34.8804L27.7165 38.3619C27.9786 38.5622 28.2983 38.6751 28.6295 38.6843C28.8904 38.6843 29.0208 38.5553 29.2816 38.3619L34.1075 34.6869L51.6504 46.4212H5.739ZM54.1287 44.9383L36.2597 33.0751L54.1287 19.5356V44.9383Z" fill="#FF8717"/>
<path d="M18.2613 10.9598H24.1307C24.851 10.9598 25.435 10.3825 25.435 9.67034C25.435 8.95816 24.851 8.38086 24.1307 8.38086H18.2613C17.541 8.38086 16.957 8.95816 16.957 9.67034C16.957 10.3825 17.541 10.9598 18.2613 10.9598Z" fill="#FF8717"/>
<path d="M18.2613 16.7635H39.1303C39.8506 16.7635 40.4346 16.1862 40.4346 15.474C40.4346 14.7619 39.8506 14.1846 39.1303 14.1846H18.2613C17.541 14.1846 16.957 14.7619 16.957 15.474C16.957 16.1862 17.541 16.7635 18.2613 16.7635Z" fill="#FF8717"/>
<path d="M40.4344 21.2768C40.4344 20.5646 39.8505 19.9873 39.1301 19.9873H18.2613C17.541 19.9873 16.957 20.5646 16.957 21.2768C16.957 21.989 17.541 22.5663 18.2613 22.5663H39.1303C39.8505 22.5663 40.4344 21.989 40.4344 21.2768Z" fill="#FF8717"/>
</svg>
