<svg width="14" height="12" viewBox="0 0 14 12" fill="none" xmlns="http://www.w3.org/2000/svg">
<path d="M8.372 4.042C8.372 3.36067 8.204 2.73533 7.868 2.166C7.532 1.58733 7.07467 1.13 6.496 0.794C5.92667 0.457999 5.30133 0.289999 4.62 0.289999C3.93867 0.289999 3.31333 0.457999 2.744 0.794C2.17467 1.13 1.722 1.58733 1.386 2.166C1.05 2.73533 0.882 3.36067 0.882 4.042C0.882 4.72333 1.05467 5.35333 1.4 5.932C1.72667 6.492 2.17467 6.94 2.744 7.276C3.32267 7.612 3.948 7.78 4.62 7.78C5.292 7.78 5.91733 7.612 6.496 7.276C7.07467 6.94 7.52733 6.492 7.854 5.932C8.19933 5.344 8.372 4.714 8.372 4.042ZM1.946 4.042C1.946 3.55667 2.06733 3.10867 2.31 2.698C2.55267 2.28733 2.87467 1.96533 3.276 1.732C3.68667 1.48933 4.13467 1.368 4.62 1.368C5.10533 1.368 5.54867 1.48933 5.95 1.732C6.36067 1.96533 6.68733 2.28733 6.93 2.698C7.17267 3.10867 7.294 3.55667 7.294 4.042C7.294 4.52733 7.17267 4.97533 6.93 5.386C6.69667 5.78733 6.37467 6.10933 5.964 6.352C5.55333 6.59467 5.10533 6.716 4.62 6.716C4.13467 6.716 3.68667 6.59467 3.276 6.352C2.86533 6.10933 2.53867 5.78733 2.296 5.386C2.06267 4.97533 1.946 4.52733 1.946 4.042ZM4.774 6.086V5.778C5.14733 5.75933 5.44133 5.666 5.656 5.498C5.88 5.32067 5.992 5.07333 5.992 4.756C5.992 4.41067 5.87067 4.154 5.628 3.986C5.46 3.86467 5.17533 3.762 4.774 3.678V2.754C4.914 2.754 5.03067 2.79133 5.124 2.866C5.18 2.90333 5.25 2.97333 5.334 3.076C5.39 3.15067 5.432 3.202 5.46 3.23C5.516 3.26733 5.572 3.286 5.628 3.286C5.712 3.286 5.782 3.258 5.838 3.202C5.90333 3.146 5.936 3.07133 5.936 2.978C5.936 2.76333 5.79133 2.586 5.502 2.446C5.25933 2.32467 5.01667 2.25933 4.774 2.25V1.998C4.774 1.95133 4.76 1.914 4.732 1.886C4.704 1.84867 4.67133 1.83 4.634 1.83C4.59667 1.83 4.564 1.84867 4.536 1.886C4.508 1.914 4.494 1.95133 4.494 1.998V2.25C4.16733 2.26867 3.89667 2.362 3.682 2.53C3.44867 2.71667 3.332 2.96867 3.332 3.286C3.332 3.54733 3.43 3.762 3.626 3.93C3.83133 4.08867 4.12067 4.20067 4.494 4.266V5.288C4.298 5.27867 4.15333 5.22733 4.06 5.134C4.004 5.08733 3.95267 4.99867 3.906 4.868C3.86867 4.76533 3.836 4.69533 3.808 4.658C3.752 4.602 3.67267 4.574 3.57 4.574C3.46733 4.574 3.388 4.602 3.332 4.658C3.28533 4.714 3.262 4.78867 3.262 4.882C3.262 5.106 3.36467 5.302 3.57 5.47C3.80333 5.666 4.11133 5.76867 4.494 5.778V6.086C4.494 6.13267 4.508 6.17467 4.536 6.212C4.564 6.24 4.59667 6.254 4.634 6.254C4.67133 6.254 4.704 6.24 4.732 6.212C4.76 6.17467 4.774 6.13267 4.774 6.086ZM4.774 4.322C4.95133 4.35933 5.08667 4.406 5.18 4.462C5.31067 4.546 5.376 4.66267 5.376 4.812C5.376 4.96133 5.31067 5.078 5.18 5.162C5.07733 5.22733 4.942 5.26933 4.774 5.288V4.322ZM4.48 3.622C4.116 3.54733 3.934 3.39333 3.934 3.16C3.934 3.05733 3.98533 2.96867 4.088 2.894C4.19067 2.81 4.32133 2.76333 4.48 2.754V3.622ZM12.362 4.588H9.016C8.94133 5.148 8.77333 5.65667 8.512 6.114H12.362C12.5767 6.114 12.7587 6.03933 12.908 5.89C13.0573 5.74067 13.132 5.56333 13.132 5.358C13.132 5.14333 13.0573 4.96133 12.908 4.812C12.7587 4.66267 12.5767 4.588 12.362 4.588ZM12.362 6.52H8.274C7.798 7.20133 7.18667 7.71 6.44 8.046H12.362C12.5767 8.046 12.754 7.97133 12.894 7.822C13.0433 7.67267 13.118 7.49533 13.118 7.29C13.1273 7.07533 13.0573 6.89333 12.908 6.744C12.7587 6.59467 12.5767 6.52 12.362 6.52ZM12.362 2.67H8.862C8.99267 3.09 9.058 3.52867 9.058 3.986V4.196H12.362C12.5673 4.196 12.7447 4.12133 12.894 3.972C13.0433 3.82267 13.118 3.64533 13.118 3.44C13.1273 3.22533 13.0573 3.04333 12.908 2.894C12.7587 2.74467 12.5767 2.67 12.362 2.67ZM12.362 8.438H4.382C4.16733 8.438 3.98533 8.51267 3.836 8.662C3.68667 8.81133 3.612 8.99333 3.612 9.208C3.612 9.42267 3.68667 9.60467 3.836 9.754C3.98533 9.90333 4.16733 9.978 4.382 9.978H12.362C12.5767 9.978 12.7587 9.90333 12.908 9.754C13.0573 9.59533 13.132 9.41333 13.132 9.208C13.132 8.99333 13.0573 8.81133 12.908 8.662C12.7587 8.51267 12.5767 8.438 12.362 8.438ZM12.362 10.37H4.382C4.16733 10.37 3.98533 10.4447 3.836 10.594C3.68667 10.7433 3.612 10.9253 3.612 11.14C3.612 11.3547 3.68667 11.532 3.836 11.672C3.98533 11.8213 4.16733 11.896 4.382 11.896H12.362C12.5767 11.896 12.7587 11.8213 12.908 11.672C13.0573 11.5227 13.132 11.3407 13.132 11.126C13.132 10.9207 13.0573 10.7433 12.908 10.594C12.7587 10.4447 12.5767 10.37 12.362 10.37ZM12.362 2.264C12.5767 2.264 12.7587 2.18933 12.908 2.04C13.0573 1.89067 13.132 1.71333 13.132 1.508C13.132 1.29333 13.0573 1.11133 12.908 0.962C12.7587 0.812666 12.5767 0.737999 12.362 0.737999H7.644C8.12 1.20467 8.47467 1.71333 8.708 2.264H12.362Z" fill="#FF8717"/>
</svg>
