<svg width="165" height="50" viewBox="0 0 165 50" fill="none" xmlns="http://www.w3.org/2000/svg">
<path d="M53.6435 25V6.09091H61.1037C62.5317 6.09091 63.7505 6.34635 64.7599 6.85724C65.7756 7.36198 66.5481 8.07907 67.0774 9.00852C67.6129 9.93182 67.8807 11.0182 67.8807 12.2678C67.8807 13.5234 67.6098 14.6037 67.0682 15.5085C66.5265 16.4072 65.7417 17.0966 64.7138 17.5767C63.692 18.0568 62.4548 18.2969 61.0021 18.2969H56.0071V15.0838H60.3558C61.1191 15.0838 61.7531 14.9792 62.2578 14.7699C62.7625 14.5606 63.138 14.2467 63.3842 13.8281C63.6366 13.4096 63.7628 12.8894 63.7628 12.2678C63.7628 11.6399 63.6366 11.1106 63.3842 10.6797C63.138 10.2488 62.7595 9.92258 62.2486 9.70099C61.7438 9.47325 61.1068 9.35938 60.3374 9.35938H57.6413V25H53.6435ZM63.8551 16.3949L68.5547 25H64.1413L59.5433 16.3949H63.8551ZM75.4561 25.2678C74.5513 25.2678 73.745 25.1108 73.0371 24.7969C72.3292 24.4768 71.7691 24.0059 71.3567 23.3842C70.9505 22.7564 70.7473 21.9747 70.7473 21.0391C70.7473 20.2512 70.892 19.5895 71.1813 19.054C71.4706 18.5185 71.8645 18.0876 72.3631 17.7614C72.8617 17.4351 73.428 17.1889 74.062 17.0227C74.7021 16.8565 75.373 16.7396 76.0747 16.6719C76.8996 16.5857 77.5643 16.5057 78.0691 16.4318C78.5738 16.3518 78.94 16.2348 79.1678 16.081C79.3955 15.9271 79.5094 15.6993 79.5094 15.3977V15.3423C79.5094 14.7576 79.3247 14.3052 78.9554 13.9851C78.5923 13.665 78.0752 13.505 77.4043 13.505C76.6964 13.505 76.1332 13.6619 75.7147 13.9759C75.2961 14.2836 75.0191 14.6714 74.8837 15.1392L71.2459 14.8438C71.4306 13.982 71.7937 13.2372 72.3354 12.6094C72.8771 11.9754 73.5757 11.4891 74.4313 11.1506C75.293 10.8059 76.2902 10.6335 77.4228 10.6335C78.2106 10.6335 78.9647 10.7259 79.6848 10.9105C80.4112 11.0952 81.0544 11.3814 81.6145 11.7692C82.1808 12.157 82.6271 12.6555 82.9533 13.2649C83.2795 13.8681 83.4426 14.5914 83.4426 15.4347V25H79.7125V23.0334H79.6017C79.374 23.4766 79.0693 23.8674 78.6877 24.206C78.306 24.5384 77.8475 24.8 77.312 24.9908C76.7764 25.1754 76.1578 25.2678 75.4561 25.2678ZM76.5826 22.5533C77.1612 22.5533 77.672 22.4394 78.1152 22.2116C78.5584 21.9777 78.9062 21.6638 79.1586 21.2699C79.4109 20.8759 79.5371 20.4297 79.5371 19.9311V18.4261C79.414 18.5062 79.2447 18.58 79.0293 18.6477C78.82 18.7093 78.583 18.7678 78.3184 18.8232C78.0537 18.8724 77.789 18.9186 77.5243 18.9616C77.2596 18.9986 77.0196 19.0324 76.8041 19.0632C76.3425 19.1309 75.9393 19.2386 75.5946 19.3864C75.2499 19.5341 74.9822 19.7341 74.7914 19.9865C74.6006 20.2327 74.5051 20.5405 74.5051 20.9098C74.5051 21.4453 74.699 21.8546 75.0868 22.1378C75.4808 22.4148 75.9793 22.5533 76.5826 22.5533ZM92.5 25.2308C91.4228 25.2308 90.4472 24.9538 89.5731 24.3999C88.7052 23.8397 88.0158 23.018 87.505 21.9347C87.0002 20.8452 86.7479 19.5095 86.7479 17.9276C86.7479 16.3026 87.0095 14.9515 87.5327 13.8743C88.0559 12.791 88.7514 11.9815 89.6193 11.446C90.4934 10.9044 91.4505 10.6335 92.4908 10.6335C93.2848 10.6335 93.9465 10.7689 94.4758 11.0398C95.0114 11.3045 95.4422 11.6368 95.7685 12.0369C96.1008 12.4309 96.3532 12.8187 96.5256 13.2003H96.6456V6.09091H100.57V25H96.6917V22.7287H96.5256C96.3409 23.1226 96.0793 23.5135 95.7408 23.9013C95.4084 24.2829 94.9744 24.5999 94.4389 24.8523C93.9096 25.1046 93.2632 25.2308 92.5 25.2308ZM93.7464 22.1009C94.3804 22.1009 94.9159 21.9285 95.353 21.5838C95.7962 21.233 96.1347 20.7436 96.3686 20.1158C96.6087 19.4879 96.7287 18.7524 96.7287 17.9091C96.7287 17.0658 96.6117 16.3333 96.3778 15.7116C96.1439 15.09 95.8054 14.6098 95.3622 14.2713C94.919 13.9328 94.3804 13.7635 93.7464 13.7635C93.1001 13.7635 92.5554 13.9389 92.1122 14.2898C91.669 14.6406 91.3336 15.1269 91.1058 15.7486C90.8781 16.3703 90.7642 17.0904 90.7642 17.9091C90.7642 18.7339 90.8781 19.4633 91.1058 20.0973C91.3397 20.7251 91.6752 21.2176 92.1122 21.5746C92.5554 21.9254 93.1001 22.1009 93.7464 22.1009ZM104.583 25V10.8182H108.517V25H104.583ZM106.559 8.99006C105.975 8.99006 105.473 8.79616 105.054 8.40838C104.642 8.01444 104.436 7.54356 104.436 6.99574C104.436 6.45407 104.642 5.98935 105.054 5.60156C105.473 5.20762 105.975 5.01065 106.559 5.01065C107.144 5.01065 107.643 5.20762 108.055 5.60156C108.474 5.98935 108.683 6.45407 108.683 6.99574C108.683 7.54356 108.474 8.01444 108.055 8.40838C107.643 8.79616 107.144 8.99006 106.559 8.99006ZM118.855 25.277C117.421 25.277 116.181 24.9723 115.134 24.3629C114.094 23.7474 113.291 22.8918 112.724 21.7962C112.158 20.6944 111.875 19.4171 111.875 17.9645C111.875 16.4995 112.158 15.2192 112.724 14.1236C113.291 13.0218 114.094 12.1662 115.134 11.5568C116.181 10.9413 117.421 10.6335 118.855 10.6335C120.289 10.6335 121.526 10.9413 122.567 11.5568C123.613 12.1662 124.419 13.0218 124.986 14.1236C125.552 15.2192 125.835 16.4995 125.835 17.9645C125.835 19.4171 125.552 20.6944 124.986 21.7962C124.419 22.8918 123.613 23.7474 122.567 24.3629C121.526 24.9723 120.289 25.277 118.855 25.277ZM118.874 22.2301C119.526 22.2301 120.071 22.0455 120.508 21.6761C120.945 21.3007 121.274 20.7898 121.496 20.1435C121.723 19.4972 121.837 18.7616 121.837 17.9368C121.837 17.112 121.723 16.3764 121.496 15.7301C121.274 15.0838 120.945 14.5729 120.508 14.1974C120.071 13.822 119.526 13.6342 118.874 13.6342C118.215 13.6342 117.661 13.822 117.212 14.1974C116.768 14.5729 116.433 15.0838 116.205 15.7301C115.984 16.3764 115.873 17.112 115.873 17.9368C115.873 18.7616 115.984 19.4972 116.205 20.1435C116.433 20.7898 116.768 21.3007 117.212 21.6761C117.661 22.0455 118.215 22.2301 118.874 22.2301ZM140.972 14.8622L137.372 15.0838C137.31 14.776 137.178 14.4991 136.975 14.2528C136.771 14.0005 136.504 13.8004 136.171 13.6527C135.845 13.4988 135.454 13.4219 134.999 13.4219C134.389 13.4219 133.875 13.5511 133.457 13.8097C133.038 14.062 132.829 14.4006 132.829 14.8253C132.829 15.1638 132.964 15.45 133.235 15.6839C133.506 15.9179 133.971 16.1056 134.629 16.2472L137.196 16.7642C138.575 17.0473 139.603 17.5028 140.28 18.1307C140.957 18.7585 141.296 19.5833 141.296 20.6051C141.296 21.5346 141.022 22.3501 140.474 23.0518C139.932 23.7536 139.187 24.3014 138.239 24.6953C137.298 25.0831 136.211 25.277 134.98 25.277C133.103 25.277 131.607 24.8861 130.493 24.1044C129.385 23.3165 128.736 22.2455 128.545 20.8913L132.413 20.6882C132.53 21.2607 132.814 21.6977 133.263 21.9993C133.712 22.2947 134.288 22.4425 134.989 22.4425C135.679 22.4425 136.233 22.3101 136.651 22.0455C137.076 21.7746 137.292 21.4268 137.298 21.0021C137.292 20.6451 137.141 20.3527 136.845 20.125C136.55 19.8911 136.094 19.7126 135.479 19.5895L133.023 19.1001C131.638 18.8232 130.607 18.343 129.93 17.6598C129.259 16.9766 128.923 16.1056 128.923 15.0469C128.923 14.1359 129.17 13.3511 129.662 12.6925C130.161 12.0339 130.859 11.526 131.758 11.169C132.663 10.812 133.721 10.6335 134.934 10.6335C136.725 10.6335 138.135 11.0121 139.163 11.7692C140.197 12.5263 140.8 13.5573 140.972 14.8622Z" fill="white"/>
<path d="M53.233 47V36.8182H59.3778V37.9119H54.4659V41.3523H59.0597V42.446H54.4659V45.9062H59.4574V47H53.233ZM62.6143 36.8182V47H61.4411V36.8182H62.6143ZM67.965 47.1591C67.2292 47.1591 66.5945 46.9967 66.0609 46.6719C65.5306 46.3438 65.1213 45.8864 64.8329 45.2997C64.5479 44.7098 64.4054 44.0237 64.4054 43.2415C64.4054 42.4593 64.5479 41.7699 64.8329 41.1733C65.1213 40.5734 65.5223 40.1061 66.036 39.7713C66.5531 39.4332 67.1563 39.2642 67.8457 39.2642C68.2434 39.2642 68.6362 39.3305 69.024 39.4631C69.4118 39.5956 69.7647 39.8111 70.0829 40.1094C70.4011 40.4044 70.6547 40.7955 70.8436 41.2827C71.0325 41.7699 71.127 42.3698 71.127 43.0824V43.5795H65.2406V42.5653H69.9338C69.9338 42.1345 69.8476 41.75 69.6752 41.4119C69.5062 41.0739 69.2643 40.8071 68.9494 40.6115C68.6378 40.416 68.2699 40.3182 67.8457 40.3182C67.3784 40.3182 66.974 40.4342 66.6326 40.6662C66.2946 40.8949 66.0344 41.1932 65.8521 41.5611C65.6698 41.929 65.5787 42.3234 65.5787 42.7443V43.4205C65.5787 43.9972 65.6781 44.486 65.877 44.8871C66.0791 45.2848 66.3592 45.5881 66.7172 45.7969C67.0751 46.0024 67.4911 46.1051 67.965 46.1051C68.2733 46.1051 68.5517 46.062 68.8002 45.9759C69.0521 45.8864 69.2692 45.7538 69.4515 45.5781C69.6338 45.3991 69.7747 45.1771 69.8741 44.9119L71.0076 45.2301C70.8883 45.6146 70.6878 45.9527 70.4061 46.2443C70.1243 46.5327 69.7763 46.758 69.362 46.9205C68.9477 47.0795 68.4821 47.1591 67.965 47.1591ZM76.014 47.1591C75.2981 47.1591 74.6816 46.9901 74.1646 46.652C73.6475 46.3139 73.2498 45.8482 72.9714 45.255C72.693 44.6617 72.5538 43.9839 72.5538 43.2216C72.5538 42.446 72.6963 41.7616 72.9814 41.1683C73.2697 40.5717 73.6708 40.1061 74.1845 39.7713C74.7015 39.4332 75.3047 39.2642 75.9941 39.2642C76.5311 39.2642 77.015 39.3636 77.4458 39.5625C77.8767 39.7614 78.2297 40.0398 78.5048 40.3977C78.7799 40.7557 78.9506 41.1733 79.0169 41.6506H77.8436C77.7541 41.3026 77.5552 40.9943 77.247 40.7259C76.9421 40.4541 76.5311 40.3182 76.014 40.3182C75.5566 40.3182 75.1556 40.4375 74.8109 40.6761C74.4695 40.9115 74.2027 41.2446 74.0105 41.6754C73.8216 42.103 73.7271 42.6051 73.7271 43.1818C73.7271 43.7718 73.8199 44.2855 74.0055 44.723C74.1944 45.1605 74.4596 45.5002 74.801 45.7422C75.1457 45.9841 75.55 46.1051 76.014 46.1051C76.319 46.1051 76.5957 46.0521 76.8443 45.946C77.0929 45.84 77.3033 45.6875 77.4757 45.4886C77.648 45.2898 77.7707 45.0511 77.8436 44.7727H79.0169C78.9506 45.2235 78.7865 45.6295 78.5247 45.9908C78.2662 46.3487 77.9231 46.6338 77.4956 46.8459C77.0713 47.0547 76.5775 47.1591 76.014 47.1591ZM84.0531 39.3636V40.358H80.0957V39.3636H84.0531ZM81.2491 37.5341H82.4224V44.8125C82.4224 45.1439 82.4705 45.3925 82.5666 45.5582C82.666 45.7206 82.792 45.83 82.9444 45.8864C83.1002 45.9394 83.2643 45.9659 83.4366 45.9659C83.5659 45.9659 83.6719 45.9593 83.7548 45.946C83.8377 45.9295 83.9039 45.9162 83.9537 45.9062L84.1923 46.9602C84.1127 46.9901 84.0017 47.0199 83.8592 47.0497C83.7167 47.0829 83.536 47.0994 83.3173 47.0994C82.9859 47.0994 82.661 47.0282 82.3429 46.8857C82.028 46.7431 81.7662 46.526 81.5574 46.2344C81.3519 45.9427 81.2491 45.5748 81.2491 45.1307V37.5341ZM85.818 47V39.3636H86.9515V40.517H87.0311C87.1703 40.1392 87.4222 39.8326 87.7868 39.5973C88.1513 39.362 88.5623 39.2443 89.0197 39.2443C89.1059 39.2443 89.2136 39.246 89.3429 39.2493C89.4721 39.2526 89.5699 39.2576 89.6362 39.2642V40.4574C89.5964 40.4474 89.5053 40.4325 89.3627 40.4126C89.2235 40.3894 89.0761 40.3778 88.9203 40.3778C88.5491 40.3778 88.2176 40.4557 87.926 40.6115C87.6376 40.764 87.4089 40.9761 87.2399 41.2479C87.0742 41.5163 86.9913 41.8229 86.9913 42.1676V47H85.818ZM93.8968 47.1591C93.2074 47.1591 92.6026 46.995 92.0822 46.6669C91.5652 46.3388 91.1608 45.8797 90.8691 45.2898C90.5808 44.6998 90.4366 44.0104 90.4366 43.2216C90.4366 42.4261 90.5808 41.7318 90.8691 41.1385C91.1608 40.5452 91.5652 40.0845 92.0822 39.7564C92.6026 39.4283 93.2074 39.2642 93.8968 39.2642C94.5862 39.2642 95.1895 39.4283 95.7065 39.7564C96.2269 40.0845 96.6312 40.5452 96.9196 41.1385C97.2112 41.7318 97.3571 42.4261 97.3571 43.2216C97.3571 44.0104 97.2112 44.6998 96.9196 45.2898C96.6312 45.8797 96.2269 46.3388 95.7065 46.6669C95.1895 46.995 94.5862 47.1591 93.8968 47.1591ZM93.8968 46.1051C94.4205 46.1051 94.8514 45.9709 95.1895 45.7024C95.5275 45.4339 95.7778 45.081 95.9402 44.6435C96.1026 44.206 96.1838 43.732 96.1838 43.2216C96.1838 42.7112 96.1026 42.2356 95.9402 41.7947C95.7778 41.3539 95.5275 40.9976 95.1895 40.7259C94.8514 40.4541 94.4205 40.3182 93.8968 40.3182C93.3732 40.3182 92.9423 40.4541 92.6042 40.7259C92.2662 40.9976 92.0159 41.3539 91.8535 41.7947C91.6911 42.2356 91.6099 42.7112 91.6099 43.2216C91.6099 43.732 91.6911 44.206 91.8535 44.6435C92.0159 45.081 92.2662 45.4339 92.6042 45.7024C92.9423 45.9709 93.3732 46.1051 93.8968 46.1051ZM100.321 42.4062V47H99.1481V39.3636H100.282V40.5568H100.381C100.56 40.169 100.832 39.8575 101.196 39.6222C101.561 39.3835 102.032 39.2642 102.608 39.2642C103.125 39.2642 103.578 39.3703 103.966 39.5824C104.353 39.7912 104.655 40.1094 104.87 40.5369C105.086 40.9612 105.194 41.4981 105.194 42.1477V47H104.02V42.2273C104.02 41.6274 103.864 41.16 103.553 40.8253C103.241 40.4872 102.814 40.3182 102.27 40.3182C101.896 40.3182 101.561 40.3994 101.266 40.5618C100.974 40.7242 100.744 40.9612 100.575 41.2727C100.406 41.5843 100.321 41.9621 100.321 42.4062ZM107.338 47V39.3636H108.511V47H107.338ZM107.934 38.0909C107.705 38.0909 107.508 38.013 107.343 37.8572C107.18 37.7015 107.099 37.5142 107.099 37.2955C107.099 37.0767 107.18 36.8894 107.343 36.7337C107.508 36.5779 107.705 36.5 107.934 36.5C108.163 36.5 108.358 36.5779 108.521 36.7337C108.686 36.8894 108.769 37.0767 108.769 37.2955C108.769 37.5142 108.686 37.7015 108.521 37.8572C108.358 38.013 108.163 38.0909 107.934 38.0909ZM113.762 47.1591C113.046 47.1591 112.43 46.9901 111.913 46.652C111.396 46.3139 110.998 45.8482 110.719 45.255C110.441 44.6617 110.302 43.9839 110.302 43.2216C110.302 42.446 110.444 41.7616 110.729 41.1683C111.018 40.5717 111.419 40.1061 111.933 39.7713C112.45 39.4332 113.053 39.2642 113.742 39.2642C114.279 39.2642 114.763 39.3636 115.194 39.5625C115.625 39.7614 115.978 40.0398 116.253 40.3977C116.528 40.7557 116.699 41.1733 116.765 41.6506H115.592C115.502 41.3026 115.303 40.9943 114.995 40.7259C114.69 40.4541 114.279 40.3182 113.762 40.3182C113.305 40.3182 112.904 40.4375 112.559 40.6761C112.218 40.9115 111.951 41.2446 111.759 41.6754C111.57 42.103 111.475 42.6051 111.475 43.1818C111.475 43.7718 111.568 44.2855 111.754 44.723C111.942 45.1605 112.208 45.5002 112.549 45.7422C112.894 45.9841 113.298 46.1051 113.762 46.1051C114.067 46.1051 114.344 46.0521 114.592 45.946C114.841 45.84 115.051 45.6875 115.224 45.4886C115.396 45.2898 115.519 45.0511 115.592 44.7727H116.765C116.699 45.2235 116.535 45.6295 116.273 45.9908C116.014 46.3487 115.671 46.6338 115.244 46.8459C114.819 47.0547 114.326 47.1591 113.762 47.1591ZM123.889 41.0739L122.835 41.3722C122.769 41.1965 122.671 41.0258 122.542 40.8601C122.416 40.6911 122.244 40.5518 122.025 40.4425C121.806 40.3331 121.526 40.2784 121.185 40.2784C120.717 40.2784 120.328 40.3861 120.016 40.6016C119.708 40.8137 119.554 41.0838 119.554 41.4119C119.554 41.7036 119.66 41.9339 119.872 42.103C120.084 42.272 120.416 42.4129 120.866 42.5256L122 42.804C122.683 42.9697 123.192 43.2232 123.526 43.5646C123.861 43.9027 124.028 44.3385 124.028 44.8722C124.028 45.3097 123.902 45.7008 123.651 46.0455C123.402 46.3902 123.054 46.6619 122.607 46.8608C122.159 47.0597 121.639 47.1591 121.045 47.1591C120.267 47.1591 119.622 46.9901 119.112 46.652C118.601 46.3139 118.278 45.8201 118.142 45.1705L119.256 44.892C119.362 45.303 119.562 45.6113 119.857 45.8168C120.156 46.0223 120.545 46.125 121.026 46.125C121.572 46.125 122.007 46.009 122.328 45.777C122.653 45.5417 122.815 45.2599 122.815 44.9318C122.815 44.6667 122.723 44.4446 122.537 44.2656C122.351 44.0833 122.066 43.9474 121.682 43.858L120.409 43.5597C119.71 43.3939 119.196 43.1371 118.868 42.7891C118.543 42.4377 118.381 41.9986 118.381 41.4716C118.381 41.0407 118.502 40.6596 118.744 40.3281C118.989 39.9967 119.322 39.7365 119.743 39.5476C120.167 39.3587 120.648 39.2642 121.185 39.2642C121.94 39.2642 122.534 39.4299 122.964 39.7614C123.399 40.0928 123.707 40.5303 123.889 41.0739ZM135.459 39.3636C135.4 38.8598 135.158 38.4688 134.733 38.1903C134.309 37.9119 133.789 37.7727 133.172 37.7727C132.722 37.7727 132.327 37.8456 131.989 37.9915C131.654 38.1373 131.393 38.3378 131.204 38.593C131.018 38.8482 130.925 39.1383 130.925 39.4631C130.925 39.7348 130.99 39.9685 131.119 40.1641C131.252 40.3563 131.421 40.517 131.626 40.6463C131.832 40.7723 132.047 40.8767 132.273 40.9595C132.498 41.0391 132.705 41.1037 132.894 41.1534L133.928 41.4318C134.193 41.5014 134.488 41.5975 134.813 41.7202C135.141 41.8428 135.454 42.0102 135.753 42.2223C136.054 42.4311 136.303 42.6996 136.498 43.0277C136.694 43.3558 136.792 43.7585 136.792 44.2358C136.792 44.786 136.648 45.2831 136.359 45.7273C136.074 46.1714 135.657 46.5244 135.106 46.7862C134.559 47.0481 133.895 47.179 133.113 47.179C132.384 47.179 131.752 47.0613 131.219 46.826C130.688 46.5907 130.271 46.2625 129.966 45.8416C129.664 45.4207 129.493 44.9318 129.454 44.375H130.726C130.76 44.7595 130.889 45.0777 131.114 45.3295C131.343 45.5781 131.631 45.7637 131.979 45.8864C132.331 46.0057 132.708 46.0653 133.113 46.0653C133.583 46.0653 134.006 45.9891 134.381 45.8366C134.755 45.6809 135.052 45.4654 135.27 45.1903C135.489 44.9119 135.599 44.5871 135.599 44.2159C135.599 43.8778 135.504 43.6027 135.315 43.3906C135.126 43.1785 134.878 43.0062 134.569 42.8736C134.261 42.741 133.928 42.625 133.57 42.5256L132.317 42.1676C131.522 41.9389 130.892 41.6125 130.428 41.1882C129.964 40.764 129.732 40.2088 129.732 39.5227C129.732 38.9527 129.886 38.4555 130.194 38.0312C130.506 37.6037 130.924 37.2723 131.447 37.0369C131.974 36.7983 132.563 36.679 133.212 36.679C133.868 36.679 134.452 36.7966 134.962 37.032C135.473 37.264 135.877 37.5821 136.175 37.9865C136.477 38.3909 136.636 38.8499 136.653 39.3636H135.459ZM141.981 39.3636V40.358H138.023V39.3636H141.981ZM139.177 37.5341H140.35V44.8125C140.35 45.1439 140.398 45.3925 140.494 45.5582C140.594 45.7206 140.72 45.83 140.872 45.8864C141.028 45.9394 141.192 45.9659 141.364 45.9659C141.494 45.9659 141.6 45.9593 141.683 45.946C141.765 45.9295 141.832 45.9162 141.881 45.9062L142.12 46.9602C142.04 46.9901 141.929 47.0199 141.787 47.0497C141.644 47.0829 141.464 47.0994 141.245 47.0994C140.914 47.0994 140.589 47.0282 140.271 46.8857C139.956 46.7431 139.694 46.526 139.485 46.2344C139.28 45.9427 139.177 45.5748 139.177 45.1307V37.5341ZM146.766 47.1591C146.077 47.1591 145.472 46.995 144.951 46.6669C144.434 46.3388 144.03 45.8797 143.738 45.2898C143.45 44.6998 143.306 44.0104 143.306 43.2216C143.306 42.4261 143.45 41.7318 143.738 41.1385C144.03 40.5452 144.434 40.0845 144.951 39.7564C145.472 39.4283 146.077 39.2642 146.766 39.2642C147.455 39.2642 148.059 39.4283 148.576 39.7564C149.096 40.0845 149.5 40.5452 149.789 41.1385C150.08 41.7318 150.226 42.4261 150.226 43.2216C150.226 44.0104 150.08 44.6998 149.789 45.2898C149.5 45.8797 149.096 46.3388 148.576 46.6669C148.059 46.995 147.455 47.1591 146.766 47.1591ZM146.766 46.1051C147.29 46.1051 147.721 45.9709 148.059 45.7024C148.397 45.4339 148.647 45.081 148.809 44.6435C148.972 44.206 149.053 43.732 149.053 43.2216C149.053 42.7112 148.972 42.2356 148.809 41.7947C148.647 41.3539 148.397 40.9976 148.059 40.7259C147.721 40.4541 147.29 40.3182 146.766 40.3182C146.242 40.3182 145.811 40.4541 145.473 40.7259C145.135 40.9976 144.885 41.3539 144.723 41.7947C144.56 42.2356 144.479 42.7112 144.479 43.2216C144.479 43.732 144.56 44.206 144.723 44.6435C144.885 45.081 145.135 45.4339 145.473 45.7024C145.811 45.9709 146.242 46.1051 146.766 46.1051ZM152.017 47V39.3636H153.151V40.517H153.23C153.369 40.1392 153.621 39.8326 153.986 39.5973C154.351 39.362 154.762 39.2443 155.219 39.2443C155.305 39.2443 155.413 39.246 155.542 39.2493C155.671 39.2526 155.769 39.2576 155.835 39.2642V40.4574C155.796 40.4474 155.704 40.4325 155.562 40.4126C155.423 40.3894 155.275 40.3778 155.119 40.3778C154.748 40.3778 154.417 40.4557 154.125 40.6115C153.837 40.764 153.608 40.9761 153.439 41.2479C153.273 41.5163 153.191 41.8229 153.191 42.1676V47H152.017ZM160.195 47.1591C159.46 47.1591 158.825 46.9967 158.291 46.6719C157.761 46.3438 157.352 45.8864 157.063 45.2997C156.778 44.7098 156.636 44.0237 156.636 43.2415C156.636 42.4593 156.778 41.7699 157.063 41.1733C157.352 40.5734 157.753 40.1061 158.267 39.7713C158.784 39.4332 159.387 39.2642 160.076 39.2642C160.474 39.2642 160.867 39.3305 161.254 39.4631C161.642 39.5956 161.995 39.8111 162.313 40.1094C162.632 40.4044 162.885 40.7955 163.074 41.2827C163.263 41.7699 163.357 42.3698 163.357 43.0824V43.5795H157.471V42.5653H162.164C162.164 42.1345 162.078 41.75 161.906 41.4119C161.737 41.0739 161.495 40.8071 161.18 40.6115C160.868 40.416 160.5 40.3182 160.076 40.3182C159.609 40.3182 159.204 40.4342 158.863 40.6662C158.525 40.8949 158.265 41.1932 158.083 41.5611C157.9 41.929 157.809 42.3234 157.809 42.7443V43.4205C157.809 43.9972 157.909 44.486 158.107 44.8871C158.31 45.2848 158.59 45.5881 158.948 45.7969C159.306 46.0024 159.722 46.1051 160.195 46.1051C160.504 46.1051 160.782 46.062 161.031 45.9759C161.283 45.8864 161.5 45.7538 161.682 45.5781C161.864 45.3991 162.005 45.1771 162.105 44.9119L163.238 45.2301C163.119 45.6146 162.918 45.9527 162.637 46.2443C162.355 46.5327 162.007 46.758 161.593 46.9205C161.178 47.0795 160.713 47.1591 160.195 47.1591Z" fill="#65687D" fill-opacity="0.7"/>
<path d="M1.91719 31.073C1.91719 31.073 0.826668 40.1517 8.0968 35.5389C8.0968 35.5389 10.4233 33.7268 12.3315 31.6404C14.2396 29.554 16.5299 27.1375 24.1636 26.5884C31.7972 26.0393 33.651 27.0828 33.4874 24.9959C33.3237 22.9095 33.0514 22.6895 33.0514 22.6895C33.0514 22.6895 37.0862 27.9609 31.7972 28.2905C26.5083 28.6201 16.7479 28.2358 13.0948 40.9199C13.0953 40.9204 -0.863483 43.6847 1.91719 31.073Z" fill="#FF8717"/>
<path d="M14.0625 40.9014L30.4752 41.9996L33.5287 37.2225L36.5279 37.0029L35.1645 29.4803C35.1645 29.4803 39.145 26.1309 35.3825 21.9023C35.3825 21.9023 38.1632 27.6129 31.4021 30.0294C24.6404 32.4448 17.2248 29.6993 14.0625 40.9014Z" fill="#FF8717"/>
<path d="M32.6705 20.2381L30.9254 11.4525L26.6359 9.3291L21.2801 9.55385C21.4297 10.7334 21.5307 12.0527 21.5706 13.529C21.6462 13.664 21.6923 13.8173 21.6923 13.9832C21.6923 14.4989 21.2775 14.9166 20.7654 14.9166C20.2533 14.9166 19.8385 14.4989 19.8385 13.9832C19.8385 13.7647 19.9162 13.5665 20.041 13.4075C19.999 11.988 19.8996 10.7313 19.7567 9.61799L10.742 9.99606C10.6214 11.7404 10.6747 13.2526 10.7156 13.9863C10.8042 14.1292 10.8575 14.2966 10.8575 14.4775C10.8575 14.9933 10.4427 15.4109 9.9306 15.4109C9.41848 15.4109 9.00371 14.9933 9.00371 14.4775C9.00371 14.2731 9.07103 14.0854 9.18132 13.9321C9.13834 13.1363 9.0964 11.7143 9.20463 10.0607L5.69746 10.2078L3.87993 21.1898C3.87993 21.1898 -2.51769 28.1451 1.11738 37.1508C1.11738 37.1508 -1.93618 26.8274 10.205 19.506C22.3463 12.1846 30.4889 18.7009 30.4889 18.7009L28.4026 18.8964C27.8004 18.9527 27.1935 18.8985 26.6131 18.7269C25.273 18.3311 22.4597 17.8806 20.8922 20.3847C20.8922 20.3847 10.7866 23.9724 7.07899 30.342C7.07899 30.342 12.4591 23.3132 21.1102 21.3369C21.1102 21.3369 21.4738 23.5333 23.8003 22.7276C26.1268 21.9225 27.4354 21.8489 27.4354 21.8489C27.4354 21.8489 29.2529 22.0685 28.1624 20.2381H32.6705ZM26.2749 21.2832C26.1248 21.2816 25.9637 21.2357 25.8001 21.1168C25.434 20.8503 25.0793 20.9854 24.838 21.1559C24.4786 21.4094 24.0582 21.5694 23.6196 21.5689C23.0515 21.5684 22.4089 21.3948 22.3105 20.6412C22.1288 19.2505 24.6371 19.104 24.6371 19.104C24.6371 19.104 26.5126 18.9423 26.974 20.1704C27.1702 20.6918 26.8295 21.2894 26.2749 21.2832Z" fill="white" fill-opacity="0.34"/>
<path d="M9.44668 14.5773C9.40836 14.1539 8.55603 4.17406 12.9378 0.771505C14.3255 -0.306363 16.2772 -0.249002 17.5785 0.907085C19.2349 2.37918 21.2368 5.85944 21.3673 14.0793L20.2768 14.097C20.153 6.27765 18.3484 3.05656 16.8566 1.731C15.9463 0.922208 14.5782 0.884141 13.6037 1.64131C9.69523 4.67675 10.5237 14.3802 10.5325 14.4777L9.44668 14.5773Z" fill="white" fill-opacity="0.34"/>
</svg>
